<?xml version="1.0" encoding="utf-8" standalone="no"?>
<!DOCTYPE svg PUBLIC "-//W3C//DTD SVG 1.1//EN"
  "http://www.w3.org/Graphics/SVG/1.1/DTD/svg11.dtd">
<svg xmlns:xlink="http://www.w3.org/1999/xlink" width="710.2125pt" height="494.602031pt" viewBox="0 0 710.2125 494.602031" xmlns="http://www.w3.org/2000/svg" version="1.1">
 <metadata>
  <rdf:RDF xmlns:dc="http://purl.org/dc/elements/1.1/" xmlns:cc="http://creativecommons.org/ns#" xmlns:rdf="http://www.w3.org/1999/02/22-rdf-syntax-ns#">
   <cc:Work>
    <dc:type rdf:resource="http://purl.org/dc/dcmitype/StillImage"/>
    <dc:date>2025-11-01T17:30:10.602264</dc:date>
    <dc:format>image/svg+xml</dc:format>
    <dc:creator>
     <cc:Agent>
      <dc:title>Matplotlib v3.8.4, https://matplotlib.org/</dc:title>
     </cc:Agent>
    </dc:creator>
   </cc:Work>
  </rdf:RDF>
 </metadata>
 <defs>
  <style type="text/css">*{stroke-linejoin: round; stroke-linecap: butt}</style>
 </defs>
 <g id="figure_1">
  <g id="patch_1">
   <path d="M 0 494.602031 
L 710.2125 494.602031 
L 710.2125 0 
L 0 0 
z
" style="fill: #ffffff"/>
  </g>
  <g id="axes_1">
   <g id="patch_2">
    <path d="M 51.0725 456.077969 
L 703.0125 456.077969 
L 703.0125 27.077969 
L 51.0725 27.077969 
z
" style="fill: #ffffff"/>
   </g>
   <g id="matplotlib.axis_1">
    <g id="xtick_1">
     <g id="line2d_1">
      <defs>
       <path id="mecfdae7a26" d="M 0 0 
L 0 3.5 
" style="stroke: #000000; stroke-width: 0.8"/>
      </defs>
      <g>
       <use xlink:href="#mecfdae7a26" x="76.728467" y="456.077969" style="stroke: #000000; stroke-width: 0.8"/>
      </g>
     </g>
     <g id="text_1">
      <!-- 0 -->
      <g transform="translate(73.547217 470.676406) scale(0.1 -0.1)">
       <defs>
        <path id="DejaVuSans-30" d="M 2034 4250 
Q 1547 4250 1301 3770 
Q 1056 3291 1056 2328 
Q 1056 1369 1301 889 
Q 1547 409 2034 409 
Q 2525 409 2770 889 
Q 3016 1369 3016 2328 
Q 3016 3291 2770 3770 
Q 2525 4250 2034 4250 
z
M 2034 4750 
Q 2819 4750 3233 4129 
Q 3647 3509 3647 2328 
Q 3647 1150 3233 529 
Q 2819 -91 2034 -91 
Q 1250 -91 836 529 
Q 422 1150 422 2328 
Q 422 3509 836 4129 
Q 1250 4750 2034 4750 
z
" transform="scale(0.015625)"/>
       </defs>
       <use xlink:href="#DejaVuSans-30"/>
      </g>
     </g>
    </g>
    <g id="xtick_2">
     <g id="line2d_2">
      <g>
       <use xlink:href="#mecfdae7a26" x="156.281853" y="456.077969" style="stroke: #000000; stroke-width: 0.8"/>
      </g>
     </g>
     <g id="text_2">
      <!-- 20 -->
      <g transform="translate(149.919353 470.676406) scale(0.1 -0.1)">
       <defs>
        <path id="DejaVuSans-32" d="M 1228 531 
L 3431 531 
L 3431 0 
L 469 0 
L 469 531 
Q 828 903 1448 1529 
Q 2069 2156 2228 2338 
Q 2531 2678 2651 2914 
Q 2772 3150 2772 3378 
Q 2772 3750 2511 3984 
Q 2250 4219 1831 4219 
Q 1534 4219 1204 4116 
Q 875 4013 500 3803 
L 500 4441 
Q 881 4594 1212 4672 
Q 1544 4750 1819 4750 
Q 2544 4750 2975 4387 
Q 3406 4025 3406 3419 
Q 3406 3131 3298 2873 
Q 3191 2616 2906 2266 
Q 2828 2175 2409 1742 
Q 1991 1309 1228 531 
z
" transform="scale(0.015625)"/>
       </defs>
       <use xlink:href="#DejaVuSans-32"/>
       <use xlink:href="#DejaVuSans-30" x="63.623047"/>
      </g>
     </g>
    </g>
    <g id="xtick_3">
     <g id="line2d_3">
      <g>
       <use xlink:href="#mecfdae7a26" x="235.835239" y="456.077969" style="stroke: #000000; stroke-width: 0.8"/>
      </g>
     </g>
     <g id="text_3">
      <!-- 40 -->
      <g transform="translate(229.472739 470.676406) scale(0.1 -0.1)">
       <defs>
        <path id="DejaVuSans-34" d="M 2419 4116 
L 825 1625 
L 2419 1625 
L 2419 4116 
z
M 2253 4666 
L 3047 4666 
L 3047 1625 
L 3713 1625 
L 3713 1100 
L 3047 1100 
L 3047 0 
L 2419 0 
L 2419 1100 
L 313 1100 
L 313 1709 
L 2253 4666 
z
" transform="scale(0.015625)"/>
       </defs>
       <use xlink:href="#DejaVuSans-34"/>
       <use xlink:href="#DejaVuSans-30" x="63.623047"/>
      </g>
     </g>
    </g>
    <g id="xtick_4">
     <g id="line2d_4">
      <g>
       <use xlink:href="#mecfdae7a26" x="315.388626" y="456.077969" style="stroke: #000000; stroke-width: 0.8"/>
      </g>
     </g>
     <g id="text_4">
      <!-- 60 -->
      <g transform="translate(309.026126 470.676406) scale(0.1 -0.1)">
       <defs>
        <path id="DejaVuSans-36" d="M 2113 2584 
Q 1688 2584 1439 2293 
Q 1191 2003 1191 1497 
Q 1191 994 1439 701 
Q 1688 409 2113 409 
Q 2538 409 2786 701 
Q 3034 994 3034 1497 
Q 3034 2003 2786 2293 
Q 2538 2584 2113 2584 
z
M 3366 4563 
L 3366 3988 
Q 3128 4100 2886 4159 
Q 2644 4219 2406 4219 
Q 1781 4219 1451 3797 
Q 1122 3375 1075 2522 
Q 1259 2794 1537 2939 
Q 1816 3084 2150 3084 
Q 2853 3084 3261 2657 
Q 3669 2231 3669 1497 
Q 3669 778 3244 343 
Q 2819 -91 2113 -91 
Q 1303 -91 875 529 
Q 447 1150 447 2328 
Q 447 3434 972 4092 
Q 1497 4750 2381 4750 
Q 2619 4750 2861 4703 
Q 3103 4656 3366 4563 
z
" transform="scale(0.015625)"/>
       </defs>
       <use xlink:href="#DejaVuSans-36"/>
       <use xlink:href="#DejaVuSans-30" x="63.623047"/>
      </g>
     </g>
    </g>
    <g id="xtick_5">
     <g id="line2d_5">
      <g>
       <use xlink:href="#mecfdae7a26" x="394.942012" y="456.077969" style="stroke: #000000; stroke-width: 0.8"/>
      </g>
     </g>
     <g id="text_5">
      <!-- 80 -->
      <g transform="translate(388.579512 470.676406) scale(0.1 -0.1)">
       <defs>
        <path id="DejaVuSans-38" d="M 2034 2216 
Q 1584 2216 1326 1975 
Q 1069 1734 1069 1313 
Q 1069 891 1326 650 
Q 1584 409 2034 409 
Q 2484 409 2743 651 
Q 3003 894 3003 1313 
Q 3003 1734 2745 1975 
Q 2488 2216 2034 2216 
z
M 1403 2484 
Q 997 2584 770 2862 
Q 544 3141 544 3541 
Q 544 4100 942 4425 
Q 1341 4750 2034 4750 
Q 2731 4750 3128 4425 
Q 3525 4100 3525 3541 
Q 3525 3141 3298 2862 
Q 3072 2584 2669 2484 
Q 3125 2378 3379 2068 
Q 3634 1759 3634 1313 
Q 3634 634 3220 271 
Q 2806 -91 2034 -91 
Q 1263 -91 848 271 
Q 434 634 434 1313 
Q 434 1759 690 2068 
Q 947 2378 1403 2484 
z
M 1172 3481 
Q 1172 3119 1398 2916 
Q 1625 2713 2034 2713 
Q 2441 2713 2670 2916 
Q 2900 3119 2900 3481 
Q 2900 3844 2670 4047 
Q 2441 4250 2034 4250 
Q 1625 4250 1398 4047 
Q 1172 3844 1172 3481 
z
" transform="scale(0.015625)"/>
       </defs>
       <use xlink:href="#DejaVuSans-38"/>
       <use xlink:href="#DejaVuSans-30" x="63.623047"/>
      </g>
     </g>
    </g>
    <g id="xtick_6">
     <g id="line2d_6">
      <g>
       <use xlink:href="#mecfdae7a26" x="474.495398" y="456.077969" style="stroke: #000000; stroke-width: 0.8"/>
      </g>
     </g>
     <g id="text_6">
      <!-- 100 -->
      <g transform="translate(464.951648 470.676406) scale(0.1 -0.1)">
       <defs>
        <path id="DejaVuSans-31" d="M 794 531 
L 1825 531 
L 1825 4091 
L 703 3866 
L 703 4441 
L 1819 4666 
L 2450 4666 
L 2450 531 
L 3481 531 
L 3481 0 
L 794 0 
L 794 531 
z
" transform="scale(0.015625)"/>
       </defs>
       <use xlink:href="#DejaVuSans-31"/>
       <use xlink:href="#DejaVuSans-30" x="63.623047"/>
       <use xlink:href="#DejaVuSans-30" x="127.246094"/>
      </g>
     </g>
    </g>
    <g id="xtick_7">
     <g id="line2d_7">
      <g>
       <use xlink:href="#mecfdae7a26" x="554.048784" y="456.077969" style="stroke: #000000; stroke-width: 0.8"/>
      </g>
     </g>
     <g id="text_7">
      <!-- 120 -->
      <g transform="translate(544.505034 470.676406) scale(0.1 -0.1)">
       <use xlink:href="#DejaVuSans-31"/>
       <use xlink:href="#DejaVuSans-32" x="63.623047"/>
       <use xlink:href="#DejaVuSans-30" x="127.246094"/>
      </g>
     </g>
    </g>
    <g id="xtick_8">
     <g id="line2d_8">
      <g>
       <use xlink:href="#mecfdae7a26" x="633.602171" y="456.077969" style="stroke: #000000; stroke-width: 0.8"/>
      </g>
     </g>
     <g id="text_8">
      <!-- 140 -->
      <g transform="translate(624.058421 470.676406) scale(0.1 -0.1)">
       <use xlink:href="#DejaVuSans-31"/>
       <use xlink:href="#DejaVuSans-34" x="63.623047"/>
       <use xlink:href="#DejaVuSans-30" x="127.246094"/>
      </g>
     </g>
    </g>
    <g id="text_9">
     <!-- Epoch -->
     <g transform="translate(360.200469 485.114375) scale(0.11 -0.11)">
      <defs>
       <path id="DejaVuSans-45" d="M 628 4666 
L 3578 4666 
L 3578 4134 
L 1259 4134 
L 1259 2753 
L 3481 2753 
L 3481 2222 
L 1259 2222 
L 1259 531 
L 3634 531 
L 3634 0 
L 628 0 
L 628 4666 
z
" transform="scale(0.015625)"/>
       <path id="DejaVuSans-70" d="M 1159 525 
L 1159 -1331 
L 581 -1331 
L 581 3500 
L 1159 3500 
L 1159 2969 
Q 1341 3281 1617 3432 
Q 1894 3584 2278 3584 
Q 2916 3584 3314 3078 
Q 3713 2572 3713 1747 
Q 3713 922 3314 415 
Q 2916 -91 2278 -91 
Q 1894 -91 1617 61 
Q 1341 213 1159 525 
z
M 3116 1747 
Q 3116 2381 2855 2742 
Q 2594 3103 2138 3103 
Q 1681 3103 1420 2742 
Q 1159 2381 1159 1747 
Q 1159 1113 1420 752 
Q 1681 391 2138 391 
Q 2594 391 2855 752 
Q 3116 1113 3116 1747 
z
" transform="scale(0.015625)"/>
       <path id="DejaVuSans-6f" d="M 1959 3097 
Q 1497 3097 1228 2736 
Q 959 2375 959 1747 
Q 959 1119 1226 758 
Q 1494 397 1959 397 
Q 2419 397 2687 759 
Q 2956 1122 2956 1747 
Q 2956 2369 2687 2733 
Q 2419 3097 1959 3097 
z
M 1959 3584 
Q 2709 3584 3137 3096 
Q 3566 2609 3566 1747 
Q 3566 888 3137 398 
Q 2709 -91 1959 -91 
Q 1206 -91 779 398 
Q 353 888 353 1747 
Q 353 2609 779 3096 
Q 1206 3584 1959 3584 
z
" transform="scale(0.015625)"/>
       <path id="DejaVuSans-63" d="M 3122 3366 
L 3122 2828 
Q 2878 2963 2633 3030 
Q 2388 3097 2138 3097 
Q 1578 3097 1268 2742 
Q 959 2388 959 1747 
Q 959 1106 1268 751 
Q 1578 397 2138 397 
Q 2388 397 2633 464 
Q 2878 531 3122 666 
L 3122 134 
Q 2881 22 2623 -34 
Q 2366 -91 2075 -91 
Q 1284 -91 818 406 
Q 353 903 353 1747 
Q 353 2603 823 3093 
Q 1294 3584 2113 3584 
Q 2378 3584 2631 3529 
Q 2884 3475 3122 3366 
z
" transform="scale(0.015625)"/>
       <path id="DejaVuSans-68" d="M 3513 2113 
L 3513 0 
L 2938 0 
L 2938 2094 
Q 2938 2591 2744 2837 
Q 2550 3084 2163 3084 
Q 1697 3084 1428 2787 
Q 1159 2491 1159 1978 
L 1159 0 
L 581 0 
L 581 4863 
L 1159 4863 
L 1159 2956 
Q 1366 3272 1645 3428 
Q 1925 3584 2291 3584 
Q 2894 3584 3203 3211 
Q 3513 2838 3513 2113 
z
" transform="scale(0.015625)"/>
      </defs>
      <use xlink:href="#DejaVuSans-45"/>
      <use xlink:href="#DejaVuSans-70" x="63.183594"/>
      <use xlink:href="#DejaVuSans-6f" x="126.660156"/>
      <use xlink:href="#DejaVuSans-63" x="187.841797"/>
      <use xlink:href="#DejaVuSans-68" x="242.822266"/>
     </g>
    </g>
   </g>
   <g id="matplotlib.axis_2">
    <g id="ytick_1">
     <g id="line2d_9">
      <path d="M 51.0725 439.110227 
L 703.0125 439.110227 
" clip-path="url(#pc7419a188e)" style="fill: none; stroke-dasharray: 0.6,0.99; stroke-dashoffset: 0; stroke: #b0b0b0; stroke-opacity: 0.6; stroke-width: 0.6"/>
     </g>
     <g id="line2d_10">
      <defs>
       <path id="m7796779e32" d="M 0 0 
L -3.5 0 
" style="stroke: #000000; stroke-width: 0.8"/>
      </defs>
      <g>
       <use xlink:href="#m7796779e32" x="51.0725" y="439.110227" style="stroke: #000000; stroke-width: 0.8"/>
      </g>
     </g>
     <g id="text_10">
      <!-- 20% -->
      <g transform="translate(21.845938 442.909446) scale(0.1 -0.1)">
       <defs>
        <path id="DejaVuSans-25" d="M 4653 2053 
Q 4381 2053 4226 1822 
Q 4072 1591 4072 1178 
Q 4072 772 4226 539 
Q 4381 306 4653 306 
Q 4919 306 5073 539 
Q 5228 772 5228 1178 
Q 5228 1588 5073 1820 
Q 4919 2053 4653 2053 
z
M 4653 2450 
Q 5147 2450 5437 2106 
Q 5728 1763 5728 1178 
Q 5728 594 5436 251 
Q 5144 -91 4653 -91 
Q 4153 -91 3862 251 
Q 3572 594 3572 1178 
Q 3572 1766 3864 2108 
Q 4156 2450 4653 2450 
z
M 1428 4353 
Q 1159 4353 1004 4120 
Q 850 3888 850 3481 
Q 850 3069 1003 2837 
Q 1156 2606 1428 2606 
Q 1700 2606 1854 2837 
Q 2009 3069 2009 3481 
Q 2009 3884 1853 4118 
Q 1697 4353 1428 4353 
z
M 4250 4750 
L 4750 4750 
L 1831 -91 
L 1331 -91 
L 4250 4750 
z
M 1428 4750 
Q 1922 4750 2215 4408 
Q 2509 4066 2509 3481 
Q 2509 2891 2217 2550 
Q 1925 2209 1428 2209 
Q 931 2209 642 2551 
Q 353 2894 353 3481 
Q 353 4063 643 4406 
Q 934 4750 1428 4750 
z
" transform="scale(0.015625)"/>
       </defs>
       <use xlink:href="#DejaVuSans-32"/>
       <use xlink:href="#DejaVuSans-30" x="63.623047"/>
       <use xlink:href="#DejaVuSans-25" x="127.246094"/>
      </g>
     </g>
    </g>
    <g id="ytick_2">
     <g id="line2d_11">
      <path d="M 51.0725 358.465066 
L 703.0125 358.465066 
" clip-path="url(#pc7419a188e)" style="fill: none; stroke-dasharray: 0.6,0.99; stroke-dashoffset: 0; stroke: #b0b0b0; stroke-opacity: 0.6; stroke-width: 0.6"/>
     </g>
     <g id="line2d_12">
      <g>
       <use xlink:href="#m7796779e32" x="51.0725" y="358.465066" style="stroke: #000000; stroke-width: 0.8"/>
      </g>
     </g>
     <g id="text_11">
      <!-- 30% -->
      <g transform="translate(21.845938 362.264284) scale(0.1 -0.1)">
       <defs>
        <path id="DejaVuSans-33" d="M 2597 2516 
Q 3050 2419 3304 2112 
Q 3559 1806 3559 1356 
Q 3559 666 3084 287 
Q 2609 -91 1734 -91 
Q 1441 -91 1130 -33 
Q 819 25 488 141 
L 488 750 
Q 750 597 1062 519 
Q 1375 441 1716 441 
Q 2309 441 2620 675 
Q 2931 909 2931 1356 
Q 2931 1769 2642 2001 
Q 2353 2234 1838 2234 
L 1294 2234 
L 1294 2753 
L 1863 2753 
Q 2328 2753 2575 2939 
Q 2822 3125 2822 3475 
Q 2822 3834 2567 4026 
Q 2313 4219 1838 4219 
Q 1578 4219 1281 4162 
Q 984 4106 628 3988 
L 628 4550 
Q 988 4650 1302 4700 
Q 1616 4750 1894 4750 
Q 2613 4750 3031 4423 
Q 3450 4097 3450 3541 
Q 3450 3153 3228 2886 
Q 3006 2619 2597 2516 
z
" transform="scale(0.015625)"/>
       </defs>
       <use xlink:href="#DejaVuSans-33"/>
       <use xlink:href="#DejaVuSans-30" x="63.623047"/>
       <use xlink:href="#DejaVuSans-25" x="127.246094"/>
      </g>
     </g>
    </g>
    <g id="ytick_3">
     <g id="line2d_13">
      <path d="M 51.0725 277.819904 
L 703.0125 277.819904 
" clip-path="url(#pc7419a188e)" style="fill: none; stroke-dasharray: 0.6,0.99; stroke-dashoffset: 0; stroke: #b0b0b0; stroke-opacity: 0.6; stroke-width: 0.6"/>
     </g>
     <g id="line2d_14">
      <g>
       <use xlink:href="#m7796779e32" x="51.0725" y="277.819904" style="stroke: #000000; stroke-width: 0.8"/>
      </g>
     </g>
     <g id="text_12">
      <!-- 40% -->
      <g transform="translate(21.845938 281.619123) scale(0.1 -0.1)">
       <use xlink:href="#DejaVuSans-34"/>
       <use xlink:href="#DejaVuSans-30" x="63.623047"/>
       <use xlink:href="#DejaVuSans-25" x="127.246094"/>
      </g>
     </g>
    </g>
    <g id="ytick_4">
     <g id="line2d_15">
      <path d="M 51.0725 197.174743 
L 703.0125 197.174743 
" clip-path="url(#pc7419a188e)" style="fill: none; stroke-dasharray: 0.6,0.99; stroke-dashoffset: 0; stroke: #b0b0b0; stroke-opacity: 0.6; stroke-width: 0.6"/>
     </g>
     <g id="line2d_16">
      <g>
       <use xlink:href="#m7796779e32" x="51.0725" y="197.174743" style="stroke: #000000; stroke-width: 0.8"/>
      </g>
     </g>
     <g id="text_13">
      <!-- 50% -->
      <g transform="translate(21.845938 200.973962) scale(0.1 -0.1)">
       <defs>
        <path id="DejaVuSans-35" d="M 691 4666 
L 3169 4666 
L 3169 4134 
L 1269 4134 
L 1269 2991 
Q 1406 3038 1543 3061 
Q 1681 3084 1819 3084 
Q 2600 3084 3056 2656 
Q 3513 2228 3513 1497 
Q 3513 744 3044 326 
Q 2575 -91 1722 -91 
Q 1428 -91 1123 -41 
Q 819 9 494 109 
L 494 744 
Q 775 591 1075 516 
Q 1375 441 1709 441 
Q 2250 441 2565 725 
Q 2881 1009 2881 1497 
Q 2881 1984 2565 2268 
Q 2250 2553 1709 2553 
Q 1456 2553 1204 2497 
Q 953 2441 691 2322 
L 691 4666 
z
" transform="scale(0.015625)"/>
       </defs>
       <use xlink:href="#DejaVuSans-35"/>
       <use xlink:href="#DejaVuSans-30" x="63.623047"/>
       <use xlink:href="#DejaVuSans-25" x="127.246094"/>
      </g>
     </g>
    </g>
    <g id="ytick_5">
     <g id="line2d_17">
      <path d="M 51.0725 116.529582 
L 703.0125 116.529582 
" clip-path="url(#pc7419a188e)" style="fill: none; stroke-dasharray: 0.6,0.99; stroke-dashoffset: 0; stroke: #b0b0b0; stroke-opacity: 0.6; stroke-width: 0.6"/>
     </g>
     <g id="line2d_18">
      <g>
       <use xlink:href="#m7796779e32" x="51.0725" y="116.529582" style="stroke: #000000; stroke-width: 0.8"/>
      </g>
     </g>
     <g id="text_14">
      <!-- 60% -->
      <g transform="translate(21.845938 120.3288) scale(0.1 -0.1)">
       <use xlink:href="#DejaVuSans-36"/>
       <use xlink:href="#DejaVuSans-30" x="63.623047"/>
       <use xlink:href="#DejaVuSans-25" x="127.246094"/>
      </g>
     </g>
    </g>
    <g id="ytick_6">
     <g id="line2d_19">
      <path d="M 51.0725 35.88442 
L 703.0125 35.88442 
" clip-path="url(#pc7419a188e)" style="fill: none; stroke-dasharray: 0.6,0.99; stroke-dashoffset: 0; stroke: #b0b0b0; stroke-opacity: 0.6; stroke-width: 0.6"/>
     </g>
     <g id="line2d_20">
      <g>
       <use xlink:href="#m7796779e32" x="51.0725" y="35.88442" style="stroke: #000000; stroke-width: 0.8"/>
      </g>
     </g>
     <g id="text_15">
      <!-- 70% -->
      <g transform="translate(21.845938 39.683639) scale(0.1 -0.1)">
       <defs>
        <path id="DejaVuSans-37" d="M 525 4666 
L 3525 4666 
L 3525 4397 
L 1831 0 
L 1172 0 
L 2766 4134 
L 525 4134 
L 525 4666 
z
" transform="scale(0.015625)"/>
       </defs>
       <use xlink:href="#DejaVuSans-37"/>
       <use xlink:href="#DejaVuSans-30" x="63.623047"/>
       <use xlink:href="#DejaVuSans-25" x="127.246094"/>
      </g>
     </g>
    </g>
    <g id="text_16">
     <!-- mAP50-95 (validation) -->
     <g transform="translate(15.558281 303.114375) rotate(-90) scale(0.11 -0.11)">
      <defs>
       <path id="DejaVuSans-6d" d="M 3328 2828 
Q 3544 3216 3844 3400 
Q 4144 3584 4550 3584 
Q 5097 3584 5394 3201 
Q 5691 2819 5691 2113 
L 5691 0 
L 5113 0 
L 5113 2094 
Q 5113 2597 4934 2840 
Q 4756 3084 4391 3084 
Q 3944 3084 3684 2787 
Q 3425 2491 3425 1978 
L 3425 0 
L 2847 0 
L 2847 2094 
Q 2847 2600 2669 2842 
Q 2491 3084 2119 3084 
Q 1678 3084 1418 2786 
Q 1159 2488 1159 1978 
L 1159 0 
L 581 0 
L 581 3500 
L 1159 3500 
L 1159 2956 
Q 1356 3278 1631 3431 
Q 1906 3584 2284 3584 
Q 2666 3584 2933 3390 
Q 3200 3197 3328 2828 
z
" transform="scale(0.015625)"/>
       <path id="DejaVuSans-41" d="M 2188 4044 
L 1331 1722 
L 3047 1722 
L 2188 4044 
z
M 1831 4666 
L 2547 4666 
L 4325 0 
L 3669 0 
L 3244 1197 
L 1141 1197 
L 716 0 
L 50 0 
L 1831 4666 
z
" transform="scale(0.015625)"/>
       <path id="DejaVuSans-50" d="M 1259 4147 
L 1259 2394 
L 2053 2394 
Q 2494 2394 2734 2622 
Q 2975 2850 2975 3272 
Q 2975 3691 2734 3919 
Q 2494 4147 2053 4147 
L 1259 4147 
z
M 628 4666 
L 2053 4666 
Q 2838 4666 3239 4311 
Q 3641 3956 3641 3272 
Q 3641 2581 3239 2228 
Q 2838 1875 2053 1875 
L 1259 1875 
L 1259 0 
L 628 0 
L 628 4666 
z
" transform="scale(0.015625)"/>
       <path id="DejaVuSans-2d" d="M 313 2009 
L 1997 2009 
L 1997 1497 
L 313 1497 
L 313 2009 
z
" transform="scale(0.015625)"/>
       <path id="DejaVuSans-39" d="M 703 97 
L 703 672 
Q 941 559 1184 500 
Q 1428 441 1663 441 
Q 2288 441 2617 861 
Q 2947 1281 2994 2138 
Q 2813 1869 2534 1725 
Q 2256 1581 1919 1581 
Q 1219 1581 811 2004 
Q 403 2428 403 3163 
Q 403 3881 828 4315 
Q 1253 4750 1959 4750 
Q 2769 4750 3195 4129 
Q 3622 3509 3622 2328 
Q 3622 1225 3098 567 
Q 2575 -91 1691 -91 
Q 1453 -91 1209 -44 
Q 966 3 703 97 
z
M 1959 2075 
Q 2384 2075 2632 2365 
Q 2881 2656 2881 3163 
Q 2881 3666 2632 3958 
Q 2384 4250 1959 4250 
Q 1534 4250 1286 3958 
Q 1038 3666 1038 3163 
Q 1038 2656 1286 2365 
Q 1534 2075 1959 2075 
z
" transform="scale(0.015625)"/>
       <path id="DejaVuSans-20" transform="scale(0.015625)"/>
       <path id="DejaVuSans-28" d="M 1984 4856 
Q 1566 4138 1362 3434 
Q 1159 2731 1159 2009 
Q 1159 1288 1364 580 
Q 1569 -128 1984 -844 
L 1484 -844 
Q 1016 -109 783 600 
Q 550 1309 550 2009 
Q 550 2706 781 3412 
Q 1013 4119 1484 4856 
L 1984 4856 
z
" transform="scale(0.015625)"/>
       <path id="DejaVuSans-76" d="M 191 3500 
L 800 3500 
L 1894 563 
L 2988 3500 
L 3597 3500 
L 2284 0 
L 1503 0 
L 191 3500 
z
" transform="scale(0.015625)"/>
       <path id="DejaVuSans-61" d="M 2194 1759 
Q 1497 1759 1228 1600 
Q 959 1441 959 1056 
Q 959 750 1161 570 
Q 1363 391 1709 391 
Q 2188 391 2477 730 
Q 2766 1069 2766 1631 
L 2766 1759 
L 2194 1759 
z
M 3341 1997 
L 3341 0 
L 2766 0 
L 2766 531 
Q 2569 213 2275 61 
Q 1981 -91 1556 -91 
Q 1019 -91 701 211 
Q 384 513 384 1019 
Q 384 1609 779 1909 
Q 1175 2209 1959 2209 
L 2766 2209 
L 2766 2266 
Q 2766 2663 2505 2880 
Q 2244 3097 1772 3097 
Q 1472 3097 1187 3025 
Q 903 2953 641 2809 
L 641 3341 
Q 956 3463 1253 3523 
Q 1550 3584 1831 3584 
Q 2591 3584 2966 3190 
Q 3341 2797 3341 1997 
z
" transform="scale(0.015625)"/>
       <path id="DejaVuSans-6c" d="M 603 4863 
L 1178 4863 
L 1178 0 
L 603 0 
L 603 4863 
z
" transform="scale(0.015625)"/>
       <path id="DejaVuSans-69" d="M 603 3500 
L 1178 3500 
L 1178 0 
L 603 0 
L 603 3500 
z
M 603 4863 
L 1178 4863 
L 1178 4134 
L 603 4134 
L 603 4863 
z
" transform="scale(0.015625)"/>
       <path id="DejaVuSans-64" d="M 2906 2969 
L 2906 4863 
L 3481 4863 
L 3481 0 
L 2906 0 
L 2906 525 
Q 2725 213 2448 61 
Q 2172 -91 1784 -91 
Q 1150 -91 751 415 
Q 353 922 353 1747 
Q 353 2572 751 3078 
Q 1150 3584 1784 3584 
Q 2172 3584 2448 3432 
Q 2725 3281 2906 2969 
z
M 947 1747 
Q 947 1113 1208 752 
Q 1469 391 1925 391 
Q 2381 391 2643 752 
Q 2906 1113 2906 1747 
Q 2906 2381 2643 2742 
Q 2381 3103 1925 3103 
Q 1469 3103 1208 2742 
Q 947 2381 947 1747 
z
" transform="scale(0.015625)"/>
       <path id="DejaVuSans-74" d="M 1172 4494 
L 1172 3500 
L 2356 3500 
L 2356 3053 
L 1172 3053 
L 1172 1153 
Q 1172 725 1289 603 
Q 1406 481 1766 481 
L 2356 481 
L 2356 0 
L 1766 0 
Q 1100 0 847 248 
Q 594 497 594 1153 
L 594 3053 
L 172 3053 
L 172 3500 
L 594 3500 
L 594 4494 
L 1172 4494 
z
" transform="scale(0.015625)"/>
       <path id="DejaVuSans-6e" d="M 3513 2113 
L 3513 0 
L 2938 0 
L 2938 2094 
Q 2938 2591 2744 2837 
Q 2550 3084 2163 3084 
Q 1697 3084 1428 2787 
Q 1159 2491 1159 1978 
L 1159 0 
L 581 0 
L 581 3500 
L 1159 3500 
L 1159 2956 
Q 1366 3272 1645 3428 
Q 1925 3584 2291 3584 
Q 2894 3584 3203 3211 
Q 3513 2838 3513 2113 
z
" transform="scale(0.015625)"/>
       <path id="DejaVuSans-29" d="M 513 4856 
L 1013 4856 
Q 1481 4119 1714 3412 
Q 1947 2706 1947 2009 
Q 1947 1309 1714 600 
Q 1481 -109 1013 -844 
L 513 -844 
Q 928 -128 1133 580 
Q 1338 1288 1338 2009 
Q 1338 2731 1133 3434 
Q 928 4138 513 4856 
z
" transform="scale(0.015625)"/>
      </defs>
      <use xlink:href="#DejaVuSans-6d"/>
      <use xlink:href="#DejaVuSans-41" x="97.412109"/>
      <use xlink:href="#DejaVuSans-50" x="165.820312"/>
      <use xlink:href="#DejaVuSans-35" x="226.123047"/>
      <use xlink:href="#DejaVuSans-30" x="289.746094"/>
      <use xlink:href="#DejaVuSans-2d" x="353.369141"/>
      <use xlink:href="#DejaVuSans-39" x="389.453125"/>
      <use xlink:href="#DejaVuSans-35" x="453.076172"/>
      <use xlink:href="#DejaVuSans-20" x="516.699219"/>
      <use xlink:href="#DejaVuSans-28" x="548.486328"/>
      <use xlink:href="#DejaVuSans-76" x="587.5"/>
      <use xlink:href="#DejaVuSans-61" x="646.679688"/>
      <use xlink:href="#DejaVuSans-6c" x="707.958984"/>
      <use xlink:href="#DejaVuSans-69" x="735.742188"/>
      <use xlink:href="#DejaVuSans-64" x="763.525391"/>
      <use xlink:href="#DejaVuSans-61" x="827.001953"/>
      <use xlink:href="#DejaVuSans-74" x="888.28125"/>
      <use xlink:href="#DejaVuSans-69" x="927.490234"/>
      <use xlink:href="#DejaVuSans-6f" x="955.273438"/>
      <use xlink:href="#DejaVuSans-6e" x="1016.455078"/>
      <use xlink:href="#DejaVuSans-29" x="1079.833984"/>
     </g>
    </g>
   </g>
   <g id="line2d_21">
    <path d="M 80.706136 113.416678 
L 84.683806 204.852162 
L 88.661475 218.150549 
L 92.639144 241.319904 
L 96.616814 176.457001 
L 100.594483 204.537646 
L 104.572152 130.755388 
L 108.549822 147.327969 
L 112.527491 107.505388 
L 116.50516 133.190872 
L 120.482829 109.731195 
L 124.460499 112.424743 
L 128.438168 120.803775 
L 132.415837 122.400549 
L 136.393507 89.416678 
L 140.371176 93.448936 
L 144.348845 103.118291 
L 148.326515 89.190872 
L 152.304184 109.594098 
L 156.281853 97.239259 
L 160.259523 96.916678 
L 164.237192 105.529582 
L 168.214861 113.432807 
L 172.192531 126.545711 
L 176.1702 111.513453 
L 180.147869 105.932807 
L 184.125538 95.989259 
L 188.103208 94.924743 
L 192.080877 108.72313 
L 196.058546 124.586033 
L 200.036216 120.642485 
L 204.013885 108.319904 
L 207.991554 100.594098 
L 211.969224 111.005388 
L 215.946893 105.31184 
L 219.924562 109.448936 
L 223.902232 100.553775 
L 227.879901 100.836033 
L 231.85757 101.271517 
L 235.835239 95.279582 
L 239.812909 94.118291 
L 243.790578 96.287646 
L 247.768247 100.707001 
L 251.745917 102.319904 
L 255.723586 104.457001 
L 259.701255 106.650549 
L 263.678925 108.763453 
L 267.656594 109.465066 
L 271.634263 105.900549 
L 275.611933 106.795711 
L 279.589602 104.440872 
L 283.567271 105.094098 
L 287.544941 103.997324 
L 291.52261 101.06184 
L 295.500279 98.948936 
L 299.477948 99.448936 
L 303.455618 99.481195 
L 307.433287 100.924743 
L 311.410956 99.021517 
L 315.388626 99.948936 
L 319.366295 100.352162 
L 323.343964 101.069904 
L 327.321634 100.876356 
L 331.299303 101.352162 
L 335.276972 101.053775 
L 339.254642 101.666678 
L 343.232311 102.086033 
L 347.20998 103.610227 
" clip-path="url(#pc7419a188e)" style="fill: none; stroke-dasharray: 1.6,1.6; stroke-dashoffset: 0; stroke: #262626; stroke-width: 1.6"/>
    <defs>
     <path id="m4689cd2b95" d="M -2 2 
L 2 2 
L 2 -2 
L -2 -2 
z
" style="stroke: #262626; stroke-width: 0.9; stroke-linejoin: miter"/>
    </defs>
    <g clip-path="url(#pc7419a188e)">
     <use xlink:href="#m4689cd2b95" x="80.706136" y="113.416678" style="fill: #ffffff; stroke: #262626; stroke-width: 0.9; stroke-linejoin: miter"/>
     <use xlink:href="#m4689cd2b95" x="112.527491" y="107.505388" style="fill: #ffffff; stroke: #262626; stroke-width: 0.9; stroke-linejoin: miter"/>
     <use xlink:href="#m4689cd2b95" x="144.348845" y="103.118291" style="fill: #ffffff; stroke: #262626; stroke-width: 0.9; stroke-linejoin: miter"/>
     <use xlink:href="#m4689cd2b95" x="176.1702" y="111.513453" style="fill: #ffffff; stroke: #262626; stroke-width: 0.9; stroke-linejoin: miter"/>
     <use xlink:href="#m4689cd2b95" x="207.991554" y="100.594098" style="fill: #ffffff; stroke: #262626; stroke-width: 0.9; stroke-linejoin: miter"/>
     <use xlink:href="#m4689cd2b95" x="239.812909" y="94.118291" style="fill: #ffffff; stroke: #262626; stroke-width: 0.9; stroke-linejoin: miter"/>
     <use xlink:href="#m4689cd2b95" x="271.634263" y="105.900549" style="fill: #ffffff; stroke: #262626; stroke-width: 0.9; stroke-linejoin: miter"/>
     <use xlink:href="#m4689cd2b95" x="303.455618" y="99.481195" style="fill: #ffffff; stroke: #262626; stroke-width: 0.9; stroke-linejoin: miter"/>
     <use xlink:href="#m4689cd2b95" x="335.276972" y="101.053775" style="fill: #ffffff; stroke: #262626; stroke-width: 0.9; stroke-linejoin: miter"/>
    </g>
   </g>
   <g id="line2d_22">
    <path d="M 80.706136 190.537646 
L 84.683806 196.013453 
L 88.661475 346.852162 
L 92.639144 268.352162 
L 96.616814 218.763453 
L 100.594483 159.763453 
L 104.572152 140.166678 
L 108.549822 130.400549 
L 112.527491 114.916678 
L 116.50516 131.110227 
L 120.482829 109.352162 
L 124.460499 150.38442 
L 128.438168 118.957001 
L 132.415837 145.602162 
L 136.393507 125.868291 
L 140.371176 101.819904 
L 144.348845 113.787646 
L 148.326515 80.392485 
L 152.304184 95.416678 
L 156.281853 110.747324 
L 160.259523 87.505388 
L 164.237192 87.932807 
L 168.214861 104.400549 
L 172.192531 104.844098 
L 176.1702 103.150549 
L 180.147869 76.731195 
L 184.125538 87.231195 
L 188.103208 89.021517 
L 192.080877 90.102162 
L 196.058546 98.013453 
L 200.036216 95.053775 
L 204.013885 82.803775 
L 207.991554 91.860227 
L 211.969224 94.513453 
L 215.946893 86.489259 
L 219.924562 91.22313 
L 223.902232 92.908614 
L 227.879901 90.803775 
L 231.85757 84.940872 
L 235.835239 86.142485 
L 239.812909 90.642485 
L 243.790578 89.166678 
L 247.768247 92.715066 
L 251.745917 94.819904 
L 255.723586 92.836033 
L 259.701255 92.997324 
L 263.678925 89.787646 
L 267.656594 91.553775 
L 271.634263 93.231195 
L 275.611933 94.077969 
L 279.589602 96.602162 
L 283.567271 96.255388 
L 287.544941 94.432807 
L 291.52261 93.287646 
L 295.500279 95.336033 
L 299.477948 94.981195 
L 303.455618 93.989259 
L 307.433287 93.860227 
L 311.410956 92.916678 
L 315.388626 93.247324 
L 319.366295 92.594098 
L 323.343964 90.448936 
L 327.321634 89.610227 
L 331.299303 88.81184 
L 335.276972 88.819904 
L 339.254642 89.650549 
L 343.232311 90.247324 
L 347.20998 90.06184 
L 351.187649 89.97313 
L 355.165319 90.231195 
L 359.142988 90.924743 
L 363.120657 91.392485 
L 367.098327 90.569904 
L 371.075996 91.392485 
L 375.053665 91.360227 
L 379.031335 91.448936 
" clip-path="url(#pc7419a188e)" style="fill: none; stroke-dasharray: 1.6,1.6; stroke-dashoffset: 0; stroke: #262626; stroke-width: 1.6"/>
    <defs>
     <path id="mfa0d79ef67" d="M 0 2 
C 0.530406 2 1.03916 1.789267 1.414214 1.414214 
C 1.789267 1.03916 2 0.530406 2 0 
C 2 -0.530406 1.789267 -1.03916 1.414214 -1.414214 
C 1.03916 -1.789267 0.530406 -2 0 -2 
C -0.530406 -2 -1.03916 -1.789267 -1.414214 -1.414214 
C -1.789267 -1.03916 -2 -0.530406 -2 0 
C -2 0.530406 -1.789267 1.03916 -1.414214 1.414214 
C -1.03916 1.789267 -0.530406 2 0 2 
z
" style="stroke: #262626; stroke-width: 0.9"/>
    </defs>
    <g clip-path="url(#pc7419a188e)">
     <use xlink:href="#mfa0d79ef67" x="80.706136" y="190.537646" style="fill: #ffffff; stroke: #262626; stroke-width: 0.9"/>
     <use xlink:href="#mfa0d79ef67" x="112.527491" y="114.916678" style="fill: #ffffff; stroke: #262626; stroke-width: 0.9"/>
     <use xlink:href="#mfa0d79ef67" x="144.348845" y="113.787646" style="fill: #ffffff; stroke: #262626; stroke-width: 0.9"/>
     <use xlink:href="#mfa0d79ef67" x="176.1702" y="103.150549" style="fill: #ffffff; stroke: #262626; stroke-width: 0.9"/>
     <use xlink:href="#mfa0d79ef67" x="207.991554" y="91.860227" style="fill: #ffffff; stroke: #262626; stroke-width: 0.9"/>
     <use xlink:href="#mfa0d79ef67" x="239.812909" y="90.642485" style="fill: #ffffff; stroke: #262626; stroke-width: 0.9"/>
     <use xlink:href="#mfa0d79ef67" x="271.634263" y="93.231195" style="fill: #ffffff; stroke: #262626; stroke-width: 0.9"/>
     <use xlink:href="#mfa0d79ef67" x="303.455618" y="93.989259" style="fill: #ffffff; stroke: #262626; stroke-width: 0.9"/>
     <use xlink:href="#mfa0d79ef67" x="335.276972" y="88.819904" style="fill: #ffffff; stroke: #262626; stroke-width: 0.9"/>
     <use xlink:href="#mfa0d79ef67" x="367.098327" y="90.569904" style="fill: #ffffff; stroke: #262626; stroke-width: 0.9"/>
    </g>
   </g>
   <g id="line2d_23">
    <path d="M 80.706136 131.360227 
L 84.683806 205.513453 
L 88.661475 201.650549 
L 92.639144 247.497324 
L 96.616814 172.787646 
L 100.594483 170.38442 
L 104.572152 146.876356 
L 108.549822 158.908614 
L 112.527491 123.457001 
L 116.50516 112.231195 
L 120.482829 114.448936 
L 124.460499 117.715066 
L 128.438168 98.182807 
L 132.415837 94.755388 
L 136.393507 129.626356 
L 140.371176 88.255388 
L 144.348845 123.005388 
L 148.326515 113.739259 
L 152.304184 89.529582 
L 156.281853 95.674743 
L 160.259523 91.747324 
L 164.237192 79.271517 
L 168.214861 96.594098 
L 172.192531 75.997324 
L 176.1702 91.666678 
L 180.147869 98.586033 
L 184.125538 99.013453 
L 188.103208 75.166678 
L 192.080877 88.158614 
L 196.058546 98.376356 
L 200.036216 90.900549 
L 204.013885 85.513453 
L 207.991554 83.198936 
L 211.969224 93.916678 
L 215.946893 92.13442 
L 219.924562 89.932807 
L 223.902232 90.586033 
L 227.879901 82.892485 
L 231.85757 80.626356 
L 235.835239 85.650549 
L 239.812909 86.577969 
L 243.790578 86.698936 
L 247.768247 83.88442 
L 251.745917 84.142485 
L 255.723586 88.215066 
L 259.701255 83.577969 
L 263.678925 77.965066 
L 267.656594 75.892485 
L 271.634263 74.077969 
L 275.611933 77.650549 
L 279.589602 79.602162 
L 283.567271 79.924743 
L 287.544941 80.344098 
L 291.52261 79.545711 
L 295.500279 78.892485 
L 299.477948 81.029582 
L 303.455618 80.940872 
L 307.433287 81.198936 
L 311.410956 82.182807 
L 315.388626 82.344098 
L 319.366295 84.352162 
L 323.343964 85.440872 
L 327.321634 86.327969 
L 331.299303 86.497324 
L 335.276972 87.021517 
L 339.254642 87.698936 
L 343.232311 86.465066 
L 347.20998 85.666678 
L 351.187649 85.376356 
L 355.165319 85.182807 
L 359.142988 85.207001 
L 363.120657 84.876356 
L 367.098327 85.698936 
L 371.075996 84.844098 
L 375.053665 84.352162 
L 379.031335 84.545711 
L 383.009004 83.88442 
L 386.986673 83.174743 
L 390.964343 82.924743 
L 394.942012 81.22313 
L 398.919681 81.263453 
L 402.897351 80.263453 
L 406.87502 80.400549 
L 410.852689 79.698936 
L 414.830358 79.166678 
L 418.808028 79.666678 
L 422.785697 80.81184 
L 426.763366 81.077969 
L 430.741036 81.63442 
L 434.718705 82.731195 
L 438.696374 82.779582 
L 442.674044 83.126356 
L 446.651713 84.053775 
L 450.629382 84.844098 
L 454.607052 85.271517 
L 458.584721 85.594098 
L 462.56239 85.876356 
L 466.540059 87.053775 
L 470.517729 86.731195 
" clip-path="url(#pc7419a188e)" style="fill: none; stroke-dasharray: 1.6,1.6; stroke-dashoffset: 0; stroke: #262626; stroke-width: 1.6"/>
    <defs>
     <path id="mafaec5b7ed" d="M 0 -2 
L -2 2 
L 2 2 
z
" style="stroke: #262626; stroke-width: 0.9; stroke-linejoin: miter"/>
    </defs>
    <g clip-path="url(#pc7419a188e)">
     <use xlink:href="#mafaec5b7ed" x="80.706136" y="131.360227" style="fill: #ffffff; stroke: #262626; stroke-width: 0.9; stroke-linejoin: miter"/>
     <use xlink:href="#mafaec5b7ed" x="112.527491" y="123.457001" style="fill: #ffffff; stroke: #262626; stroke-width: 0.9; stroke-linejoin: miter"/>
     <use xlink:href="#mafaec5b7ed" x="144.348845" y="123.005388" style="fill: #ffffff; stroke: #262626; stroke-width: 0.9; stroke-linejoin: miter"/>
     <use xlink:href="#mafaec5b7ed" x="176.1702" y="91.666678" style="fill: #ffffff; stroke: #262626; stroke-width: 0.9; stroke-linejoin: miter"/>
     <use xlink:href="#mafaec5b7ed" x="207.991554" y="83.198936" style="fill: #ffffff; stroke: #262626; stroke-width: 0.9; stroke-linejoin: miter"/>
     <use xlink:href="#mafaec5b7ed" x="239.812909" y="86.577969" style="fill: #ffffff; stroke: #262626; stroke-width: 0.9; stroke-linejoin: miter"/>
     <use xlink:href="#mafaec5b7ed" x="271.634263" y="74.077969" style="fill: #ffffff; stroke: #262626; stroke-width: 0.9; stroke-linejoin: miter"/>
     <use xlink:href="#mafaec5b7ed" x="303.455618" y="80.940872" style="fill: #ffffff; stroke: #262626; stroke-width: 0.9; stroke-linejoin: miter"/>
     <use xlink:href="#mafaec5b7ed" x="335.276972" y="87.021517" style="fill: #ffffff; stroke: #262626; stroke-width: 0.9; stroke-linejoin: miter"/>
     <use xlink:href="#mafaec5b7ed" x="367.098327" y="85.698936" style="fill: #ffffff; stroke: #262626; stroke-width: 0.9; stroke-linejoin: miter"/>
     <use xlink:href="#mafaec5b7ed" x="398.919681" y="81.263453" style="fill: #ffffff; stroke: #262626; stroke-width: 0.9; stroke-linejoin: miter"/>
     <use xlink:href="#mafaec5b7ed" x="430.741036" y="81.63442" style="fill: #ffffff; stroke: #262626; stroke-width: 0.9; stroke-linejoin: miter"/>
     <use xlink:href="#mafaec5b7ed" x="462.56239" y="85.876356" style="fill: #ffffff; stroke: #262626; stroke-width: 0.9; stroke-linejoin: miter"/>
    </g>
   </g>
   <g id="line2d_24">
    <path d="M 80.706136 255.174743 
L 84.683806 370.376356 
L 88.661475 413.674743 
L 92.639144 392.747324 
L 96.616814 237.650549 
L 100.594483 288.086033 
L 104.572152 283.150549 
L 108.549822 249.231195 
L 112.527491 209.537646 
L 116.50516 219.521517 
L 120.482829 181.529582 
L 124.460499 204.158614 
L 128.438168 149.392485 
L 132.415837 185.400549 
L 136.393507 219.666678 
L 140.371176 148.198936 
L 144.348845 170.739259 
L 148.326515 113.658614 
L 152.304184 140.416678 
L 156.281853 104.021517 
L 160.259523 108.642485 
L 164.237192 125.029582 
L 168.214861 137.521517 
L 172.192531 98.247324 
L 176.1702 108.924743 
L 180.147869 101.457001 
L 184.125538 86.739259 
L 188.103208 65.416678 
L 192.080877 90.207001 
L 196.058546 93.900549 
L 200.036216 99.965066 
L 204.013885 90.932807 
L 207.991554 84.287646 
L 211.969224 79.336033 
L 215.946893 95.360227 
L 219.924562 68.432807 
L 223.902232 66.56184 
L 227.879901 58.505388 
L 231.85757 64.303775 
L 235.835239 69.803775 
L 239.812909 57.868291 
L 243.790578 51.06184 
L 247.768247 50.174743 
L 251.745917 55.827969 
L 255.723586 54.497324 
L 259.701255 53.948936 
L 263.678925 54.489259 
L 267.656594 52.763453 
L 271.634263 53.594098 
L 275.611933 56.158614 
L 279.589602 59.215066 
L 283.567271 60.465066 
L 287.544941 59.247324 
L 291.52261 62.303775 
L 295.500279 64.771517 
L 299.477948 65.344098 
L 303.455618 64.432807 
L 307.433287 64.72313 
L 311.410956 63.448936 
L 315.388626 64.126356 
L 319.366295 64.005388 
L 323.343964 63.698936 
L 327.321634 65.360227 
L 331.299303 62.31184 
L 335.276972 64.38442 
L 339.254642 64.198936 
L 343.232311 63.47313 
L 347.20998 62.876356 
L 351.187649 62.545711 
L 355.165319 62.077969 
L 359.142988 62.045711 
L 363.120657 60.150549 
L 367.098327 58.997324 
L 371.075996 58.271517 
L 375.053665 58.400549 
L 379.031335 58.698936 
L 383.009004 59.247324 
L 386.986673 58.981195 
L 390.964343 58.586033 
L 394.942012 57.965066 
L 398.919681 57.497324 
L 402.897351 58.319904 
L 406.87502 58.497324 
L 410.852689 59.553775 
L 414.830358 59.803775 
L 418.808028 60.63442 
L 422.785697 60.045711 
L 426.763366 59.279582 
L 430.741036 59.989259 
L 434.718705 60.755388 
L 438.696374 62.529582 
L 442.674044 63.594098 
L 446.651713 62.650549 
" clip-path="url(#pc7419a188e)" style="fill: none; stroke: #595959; stroke-width: 1.6; stroke-linecap: square"/>
    <defs>
     <path id="m701238fabf" d="M -2 2 
L 2 2 
L 2 -2 
L -2 -2 
z
" style="stroke: #595959; stroke-width: 0.9; stroke-linejoin: miter"/>
    </defs>
    <g clip-path="url(#pc7419a188e)">
     <use xlink:href="#m701238fabf" x="80.706136" y="255.174743" style="fill: #ffffff; stroke: #595959; stroke-width: 0.9; stroke-linejoin: miter"/>
     <use xlink:href="#m701238fabf" x="112.527491" y="209.537646" style="fill: #ffffff; stroke: #595959; stroke-width: 0.9; stroke-linejoin: miter"/>
     <use xlink:href="#m701238fabf" x="144.348845" y="170.739259" style="fill: #ffffff; stroke: #595959; stroke-width: 0.9; stroke-linejoin: miter"/>
     <use xlink:href="#m701238fabf" x="176.1702" y="108.924743" style="fill: #ffffff; stroke: #595959; stroke-width: 0.9; stroke-linejoin: miter"/>
     <use xlink:href="#m701238fabf" x="207.991554" y="84.287646" style="fill: #ffffff; stroke: #595959; stroke-width: 0.9; stroke-linejoin: miter"/>
     <use xlink:href="#m701238fabf" x="239.812909" y="57.868291" style="fill: #ffffff; stroke: #595959; stroke-width: 0.9; stroke-linejoin: miter"/>
     <use xlink:href="#m701238fabf" x="271.634263" y="53.594098" style="fill: #ffffff; stroke: #595959; stroke-width: 0.9; stroke-linejoin: miter"/>
     <use xlink:href="#m701238fabf" x="303.455618" y="64.432807" style="fill: #ffffff; stroke: #595959; stroke-width: 0.9; stroke-linejoin: miter"/>
     <use xlink:href="#m701238fabf" x="335.276972" y="64.38442" style="fill: #ffffff; stroke: #595959; stroke-width: 0.9; stroke-linejoin: miter"/>
     <use xlink:href="#m701238fabf" x="367.098327" y="58.997324" style="fill: #ffffff; stroke: #595959; stroke-width: 0.9; stroke-linejoin: miter"/>
     <use xlink:href="#m701238fabf" x="398.919681" y="57.497324" style="fill: #ffffff; stroke: #595959; stroke-width: 0.9; stroke-linejoin: miter"/>
     <use xlink:href="#m701238fabf" x="430.741036" y="59.989259" style="fill: #ffffff; stroke: #595959; stroke-width: 0.9; stroke-linejoin: miter"/>
    </g>
   </g>
   <g id="line2d_25">
    <path d="M 80.706136 190.400549 
L 84.683806 341.948936 
L 88.661475 409.118291 
L 92.639144 343.513453 
L 96.616814 326.981195 
L 100.594483 285.47313 
L 104.572152 243.263453 
L 108.549822 259.13442 
L 112.527491 219.739259 
L 116.50516 219.465066 
L 120.482829 183.110227 
L 124.460499 211.448936 
L 128.438168 182.416678 
L 132.415837 184.940872 
L 136.393507 167.908614 
L 140.371176 170.327969 
L 144.348845 132.803775 
L 148.326515 158.303775 
L 152.304184 104.303775 
L 156.281853 120.448936 
L 160.259523 119.271517 
L 164.237192 127.892485 
L 168.214861 149.81184 
L 172.192531 123.198936 
L 176.1702 104.97313 
L 180.147869 117.077969 
L 184.125538 114.674743 
L 188.103208 127.336033 
L 192.080877 116.432807 
L 196.058546 115.569904 
L 200.036216 121.997324 
L 204.013885 109.513453 
L 207.991554 94.352162 
L 211.969224 99.239259 
L 215.946893 80.13442 
L 219.924562 64.47313 
L 223.902232 69.787646 
L 227.879901 78.739259 
L 231.85757 95.142485 
L 235.835239 88.545711 
L 239.812909 86.336033 
L 243.790578 78.626356 
L 247.768247 72.231195 
L 251.745917 71.31184 
L 255.723586 72.215066 
L 259.701255 70.481195 
L 263.678925 70.618291 
L 267.656594 70.795711 
L 271.634263 71.803775 
L 275.611933 67.916678 
L 279.589602 67.239259 
L 283.567271 64.836033 
L 287.544941 64.142485 
L 291.52261 65.489259 
L 295.500279 66.948936 
L 299.477948 65.924743 
L 303.455618 65.81184 
L 307.433287 66.537646 
L 311.410956 65.319904 
L 315.388626 66.126356 
L 319.366295 67.497324 
L 323.343964 67.094098 
L 327.321634 67.247324 
L 331.299303 67.731195 
L 335.276972 68.465066 
L 339.254642 69.763453 
L 343.232311 70.142485 
L 347.20998 70.021517 
L 351.187649 69.787646 
L 355.165319 69.287646 
L 359.142988 68.38442 
L 363.120657 68.739259 
L 367.098327 68.158614 
L 371.075996 68.553775 
L 375.053665 68.432807 
L 379.031335 68.618291 
L 383.009004 68.06184 
L 386.986673 67.110227 
L 390.964343 66.602162 
L 394.942012 66.069904 
L 398.919681 66.31184 
L 402.897351 66.868291 
L 406.87502 66.650549 
L 410.852689 66.707001 
L 414.830358 67.368291 
L 418.808028 68.158614 
L 422.785697 67.545711 
L 426.763366 67.876356 
L 430.741036 67.72313 
L 434.718705 67.763453 
L 438.696374 68.247324 
L 442.674044 68.771517 
L 446.651713 69.56184 
L 450.629382 70.263453 
L 454.607052 71.021517 
L 458.584721 71.779582 
L 462.56239 71.892485 
L 466.540059 72.376356 
L 470.517729 73.47313 
L 474.495398 72.747324 
L 478.473067 71.457001 
L 482.450737 72.38442 
L 486.428406 71.416678 
" clip-path="url(#pc7419a188e)" style="fill: none; stroke: #595959; stroke-width: 1.6; stroke-linecap: square"/>
    <defs>
     <path id="m642ecf9038" d="M 0 2 
C 0.530406 2 1.03916 1.789267 1.414214 1.414214 
C 1.789267 1.03916 2 0.530406 2 0 
C 2 -0.530406 1.789267 -1.03916 1.414214 -1.414214 
C 1.03916 -1.789267 0.530406 -2 0 -2 
C -0.530406 -2 -1.03916 -1.789267 -1.414214 -1.414214 
C -1.789267 -1.03916 -2 -0.530406 -2 0 
C -2 0.530406 -1.789267 1.03916 -1.414214 1.414214 
C -1.03916 1.789267 -0.530406 2 0 2 
z
" style="stroke: #595959; stroke-width: 0.9"/>
    </defs>
    <g clip-path="url(#pc7419a188e)">
     <use xlink:href="#m642ecf9038" x="80.706136" y="190.400549" style="fill: #ffffff; stroke: #595959; stroke-width: 0.9"/>
     <use xlink:href="#m642ecf9038" x="112.527491" y="219.739259" style="fill: #ffffff; stroke: #595959; stroke-width: 0.9"/>
     <use xlink:href="#m642ecf9038" x="144.348845" y="132.803775" style="fill: #ffffff; stroke: #595959; stroke-width: 0.9"/>
     <use xlink:href="#m642ecf9038" x="176.1702" y="104.97313" style="fill: #ffffff; stroke: #595959; stroke-width: 0.9"/>
     <use xlink:href="#m642ecf9038" x="207.991554" y="94.352162" style="fill: #ffffff; stroke: #595959; stroke-width: 0.9"/>
     <use xlink:href="#m642ecf9038" x="239.812909" y="86.336033" style="fill: #ffffff; stroke: #595959; stroke-width: 0.9"/>
     <use xlink:href="#m642ecf9038" x="271.634263" y="71.803775" style="fill: #ffffff; stroke: #595959; stroke-width: 0.9"/>
     <use xlink:href="#m642ecf9038" x="303.455618" y="65.81184" style="fill: #ffffff; stroke: #595959; stroke-width: 0.9"/>
     <use xlink:href="#m642ecf9038" x="335.276972" y="68.465066" style="fill: #ffffff; stroke: #595959; stroke-width: 0.9"/>
     <use xlink:href="#m642ecf9038" x="367.098327" y="68.158614" style="fill: #ffffff; stroke: #595959; stroke-width: 0.9"/>
     <use xlink:href="#m642ecf9038" x="398.919681" y="66.31184" style="fill: #ffffff; stroke: #595959; stroke-width: 0.9"/>
     <use xlink:href="#m642ecf9038" x="430.741036" y="67.72313" style="fill: #ffffff; stroke: #595959; stroke-width: 0.9"/>
     <use xlink:href="#m642ecf9038" x="462.56239" y="71.892485" style="fill: #ffffff; stroke: #595959; stroke-width: 0.9"/>
    </g>
   </g>
   <g id="line2d_26">
    <path d="M 80.706136 413.916678 
L 84.683806 394.086033 
L 88.661475 436.577969 
L 92.639144 418.513453 
L 96.616814 278.521517 
L 100.594483 299.56184 
L 104.572152 232.771517 
L 108.549822 226.658614 
L 112.527491 249.22313 
L 116.50516 211.045711 
L 120.482829 230.779582 
L 124.460499 263.327969 
L 128.438168 220.110227 
L 132.415837 214.424743 
L 136.393507 152.553775 
L 140.371176 180.965066 
L 144.348845 189.440872 
L 148.326515 183.747324 
L 152.304184 172.231195 
L 156.281853 145.408614 
L 160.259523 145.005388 
L 164.237192 124.126356 
L 168.214861 134.868291 
L 172.192531 108.295711 
L 176.1702 140.069904 
L 180.147869 146.819904 
L 184.125538 130.086033 
L 188.103208 130.31184 
L 192.080877 111.56184 
L 196.058546 118.747324 
L 200.036216 120.707001 
L 204.013885 121.045711 
L 207.991554 132.577969 
L 211.969224 110.940872 
L 215.946893 104.021517 
L 219.924562 98.38442 
L 223.902232 92.916678 
L 227.879901 93.295711 
L 231.85757 82.642485 
L 235.835239 88.505388 
L 239.812909 83.150549 
L 243.790578 83.610227 
L 247.768247 84.327969 
L 251.745917 82.279582 
L 255.723586 81.481195 
L 259.701255 78.577969 
L 263.678925 84.271517 
L 267.656594 78.327969 
L 271.634263 82.97313 
L 275.611933 80.618291 
L 279.589602 81.457001 
L 283.567271 79.658614 
L 287.544941 79.198936 
L 291.52261 78.319904 
L 295.500279 74.97313 
L 299.477948 73.924743 
L 303.455618 72.255388 
L 307.433287 73.626356 
L 311.410956 74.448936 
L 315.388626 73.658614 
L 319.366295 74.198936 
L 323.343964 73.360227 
L 327.321634 73.448936 
L 331.299303 72.38442 
L 335.276972 71.989259 
L 339.254642 70.56184 
L 343.232311 69.731195 
L 347.20998 69.392485 
L 351.187649 69.489259 
L 355.165319 70.376356 
L 359.142988 71.690872 
L 363.120657 72.465066 
L 367.098327 72.626356 
L 371.075996 74.06184 
L 375.053665 74.545711 
L 379.031335 74.465066 
L 383.009004 74.432807 
L 386.986673 75.56184 
L 390.964343 75.497324 
L 394.942012 75.932807 
L 398.919681 76.166678 
L 402.897351 76.166678 
L 406.87502 76.440872 
L 410.852689 75.674743 
L 414.830358 75.537646 
L 418.808028 75.513453 
L 422.785697 73.787646 
L 426.763366 72.771517 
L 430.741036 73.102162 
L 434.718705 72.690872 
L 438.696374 73.319904 
L 442.674044 73.352162 
L 446.651713 73.965066 
L 450.629382 74.287646 
L 454.607052 74.900549 
L 458.584721 74.690872 
L 462.56239 75.731195 
L 466.540059 76.013453 
L 470.517729 75.158614 
L 474.495398 75.513453 
L 478.473067 74.731195 
L 482.450737 73.771517 
L 486.428406 72.529582 
L 490.406075 71.739259 
L 494.383745 72.932807 
L 498.361414 73.400549 
L 502.339083 72.513453 
L 506.316753 71.747324 
L 510.294422 71.892485 
L 514.272091 72.400549 
L 518.249761 72.327969 
L 522.22743 71.989259 
L 526.205099 72.086033 
L 530.182768 71.537646 
L 534.160438 71.416678 
L 538.138107 71.029582 
L 542.115776 70.376356 
L 546.093446 69.094098 
" clip-path="url(#pc7419a188e)" style="fill: none; stroke: #595959; stroke-width: 1.6; stroke-linecap: square"/>
    <defs>
     <path id="md2f6eea79a" d="M 0 -2 
L -2 2 
L 2 2 
z
" style="stroke: #595959; stroke-width: 0.9; stroke-linejoin: miter"/>
    </defs>
    <g clip-path="url(#pc7419a188e)">
     <use xlink:href="#md2f6eea79a" x="80.706136" y="413.916678" style="fill: #ffffff; stroke: #595959; stroke-width: 0.9; stroke-linejoin: miter"/>
     <use xlink:href="#md2f6eea79a" x="112.527491" y="249.22313" style="fill: #ffffff; stroke: #595959; stroke-width: 0.9; stroke-linejoin: miter"/>
     <use xlink:href="#md2f6eea79a" x="144.348845" y="189.440872" style="fill: #ffffff; stroke: #595959; stroke-width: 0.9; stroke-linejoin: miter"/>
     <use xlink:href="#md2f6eea79a" x="176.1702" y="140.069904" style="fill: #ffffff; stroke: #595959; stroke-width: 0.9; stroke-linejoin: miter"/>
     <use xlink:href="#md2f6eea79a" x="207.991554" y="132.577969" style="fill: #ffffff; stroke: #595959; stroke-width: 0.9; stroke-linejoin: miter"/>
     <use xlink:href="#md2f6eea79a" x="239.812909" y="83.150549" style="fill: #ffffff; stroke: #595959; stroke-width: 0.9; stroke-linejoin: miter"/>
     <use xlink:href="#md2f6eea79a" x="271.634263" y="82.97313" style="fill: #ffffff; stroke: #595959; stroke-width: 0.9; stroke-linejoin: miter"/>
     <use xlink:href="#md2f6eea79a" x="303.455618" y="72.255388" style="fill: #ffffff; stroke: #595959; stroke-width: 0.9; stroke-linejoin: miter"/>
     <use xlink:href="#md2f6eea79a" x="335.276972" y="71.989259" style="fill: #ffffff; stroke: #595959; stroke-width: 0.9; stroke-linejoin: miter"/>
     <use xlink:href="#md2f6eea79a" x="367.098327" y="72.626356" style="fill: #ffffff; stroke: #595959; stroke-width: 0.9; stroke-linejoin: miter"/>
     <use xlink:href="#md2f6eea79a" x="398.919681" y="76.166678" style="fill: #ffffff; stroke: #595959; stroke-width: 0.9; stroke-linejoin: miter"/>
     <use xlink:href="#md2f6eea79a" x="430.741036" y="73.102162" style="fill: #ffffff; stroke: #595959; stroke-width: 0.9; stroke-linejoin: miter"/>
     <use xlink:href="#md2f6eea79a" x="462.56239" y="75.731195" style="fill: #ffffff; stroke: #595959; stroke-width: 0.9; stroke-linejoin: miter"/>
     <use xlink:href="#md2f6eea79a" x="494.383745" y="72.932807" style="fill: #ffffff; stroke: #595959; stroke-width: 0.9; stroke-linejoin: miter"/>
     <use xlink:href="#md2f6eea79a" x="526.205099" y="72.086033" style="fill: #ffffff; stroke: #595959; stroke-width: 0.9; stroke-linejoin: miter"/>
    </g>
   </g>
   <g id="line2d_27">
    <path d="M 80.706136 89.771517 
L 84.683806 143.827969 
L 88.661475 192.037646 
L 92.639144 196.037646 
L 96.616814 123.594098 
L 100.594483 158.577969 
L 104.572152 97.505388 
L 108.549822 115.448936 
L 112.527491 81.916678 
L 116.50516 83.553775 
L 120.482829 124.13442 
L 124.460499 58.13442 
L 128.438168 87.97313 
L 132.415837 87.690872 
L 136.393507 72.247324 
L 140.371176 63.327969 
L 144.348845 63.997324 
L 148.326515 66.06184 
L 152.304184 73.682807 
L 156.281853 77.827969 
L 160.259523 68.553775 
L 164.237192 73.698936 
L 168.214861 84.868291 
L 172.192531 72.215066 
L 176.1702 70.787646 
L 180.147869 58.900549 
L 184.125538 58.755388 
L 188.103208 65.779582 
L 192.080877 64.126356 
L 196.058546 59.545711 
L 200.036216 61.432807 
L 204.013885 61.360227 
L 207.991554 57.674743 
L 211.969224 58.247324 
L 215.946893 63.803775 
L 219.924562 62.997324 
L 223.902232 58.110227 
L 227.879901 58.666678 
L 231.85757 54.005388 
L 235.835239 57.400549 
L 239.812909 54.940872 
L 243.790578 57.06184 
L 247.768247 57.803775 
L 251.745917 58.819904 
L 255.723586 58.47313 
L 259.701255 57.416678 
L 263.678925 56.731195 
L 271.634263 54.505388 
L 275.611933 54.182807 
L 279.589602 54.513453 
L 283.567271 55.47313 
L 287.544941 54.779582 
L 291.52261 55.045711 
L 295.500279 54.771517 
L 299.477948 55.368291 
L 303.455618 55.602162 
L 307.433287 55.497324 
L 311.410956 55.577969 
L 319.366295 53.715066 
L 323.343964 53.666678 
L 327.321634 53.739259 
L 335.276972 54.287646 
L 339.254642 54.602162 
L 343.232311 54.215066 
L 347.20998 54.231195 
L 351.187649 53.658614 
L 355.165319 53.618291 
L 359.142988 53.38442 
L 363.120657 54.094098 
L 367.098327 54.22313 
L 375.053665 52.642485 
L 383.009004 52.819904 
L 394.942012 53.126356 
L 398.919681 52.844098 
L 402.897351 52.698936 
L 406.87502 51.908614 
L 410.852689 52.086033 
L 414.830358 52.465066 
L 418.808028 52.577969 
L 430.741036 51.56184 
L 434.718705 51.731195 
L 438.696374 51.497324 
L 442.674044 51.779582 
L 450.629382 51.053775 
L 454.607052 49.836033 
L 458.584721 50.31184 
L 462.56239 50.368291 
L 466.540059 50.279582 
L 470.517729 49.981195 
L 474.495398 49.497324 
L 478.473067 50.013453 
L 482.450737 50.198936 
L 486.428406 50.779582 
L 490.406075 51.537646 
L 494.383745 51.481195 
L 498.361414 52.255388 
L 506.316753 51.690872 
L 510.294422 51.827969 
L 514.272091 51.481195 
L 518.249761 52.682807 
L 526.205099 53.053775 
L 530.182768 52.997324 
L 534.160438 53.586033 
L 538.138107 53.610227 
L 542.115776 53.513453 
L 546.093446 53.763453 
L 550.071115 53.56184 
L 554.048784 54.069904 
L 558.026454 53.957001 
L 562.004123 54.876356 
L 565.981792 55.489259 
L 569.959462 55.513453 
L 573.937131 56.263453 
L 577.9148 56.836033 
L 581.892469 56.190872 
L 585.870139 58.247324 
L 589.847808 57.118291 
L 593.825477 59.182807 
L 597.803147 60.602162 
L 601.780816 60.755388 
L 605.758485 61.88442 
L 609.736155 62.118291 
L 617.691493 61.086033 
L 621.669163 60.376356 
L 625.646832 60.771517 
L 629.624501 61.457001 
L 633.602171 61.900549 
L 637.57984 62.779582 
L 641.557509 62.005388 
L 645.535178 62.690872 
L 649.512848 61.38442 
L 653.490517 61.868291 
L 657.468186 61.682807 
L 661.445856 62.465066 
L 665.423525 62.715066 
L 669.401194 61.698936 
L 673.378864 61.31184 
L 673.378864 61.31184 
" clip-path="url(#pc7419a188e)" style="fill: none; stroke-dasharray: 4.8,1.6,1.6,1.6; stroke-dashoffset: 0; stroke: #8c8c8c; stroke-width: 1.6"/>
    <defs>
     <path id="mb36b011bb9" d="M -2 2 
L 2 2 
L 2 -2 
L -2 -2 
z
" style="stroke: #8c8c8c; stroke-width: 0.9; stroke-linejoin: miter"/>
    </defs>
    <g clip-path="url(#pc7419a188e)">
     <use xlink:href="#mb36b011bb9" x="80.706136" y="89.771517" style="fill: #ffffff; stroke: #8c8c8c; stroke-width: 0.9; stroke-linejoin: miter"/>
     <use xlink:href="#mb36b011bb9" x="112.527491" y="81.916678" style="fill: #ffffff; stroke: #8c8c8c; stroke-width: 0.9; stroke-linejoin: miter"/>
     <use xlink:href="#mb36b011bb9" x="144.348845" y="63.997324" style="fill: #ffffff; stroke: #8c8c8c; stroke-width: 0.9; stroke-linejoin: miter"/>
     <use xlink:href="#mb36b011bb9" x="176.1702" y="70.787646" style="fill: #ffffff; stroke: #8c8c8c; stroke-width: 0.9; stroke-linejoin: miter"/>
     <use xlink:href="#mb36b011bb9" x="207.991554" y="57.674743" style="fill: #ffffff; stroke: #8c8c8c; stroke-width: 0.9; stroke-linejoin: miter"/>
     <use xlink:href="#mb36b011bb9" x="239.812909" y="54.940872" style="fill: #ffffff; stroke: #8c8c8c; stroke-width: 0.9; stroke-linejoin: miter"/>
     <use xlink:href="#mb36b011bb9" x="271.634263" y="54.505388" style="fill: #ffffff; stroke: #8c8c8c; stroke-width: 0.9; stroke-linejoin: miter"/>
     <use xlink:href="#mb36b011bb9" x="303.455618" y="55.602162" style="fill: #ffffff; stroke: #8c8c8c; stroke-width: 0.9; stroke-linejoin: miter"/>
     <use xlink:href="#mb36b011bb9" x="335.276972" y="54.287646" style="fill: #ffffff; stroke: #8c8c8c; stroke-width: 0.9; stroke-linejoin: miter"/>
     <use xlink:href="#mb36b011bb9" x="367.098327" y="54.22313" style="fill: #ffffff; stroke: #8c8c8c; stroke-width: 0.9; stroke-linejoin: miter"/>
     <use xlink:href="#mb36b011bb9" x="398.919681" y="52.844098" style="fill: #ffffff; stroke: #8c8c8c; stroke-width: 0.9; stroke-linejoin: miter"/>
     <use xlink:href="#mb36b011bb9" x="430.741036" y="51.56184" style="fill: #ffffff; stroke: #8c8c8c; stroke-width: 0.9; stroke-linejoin: miter"/>
     <use xlink:href="#mb36b011bb9" x="462.56239" y="50.368291" style="fill: #ffffff; stroke: #8c8c8c; stroke-width: 0.9; stroke-linejoin: miter"/>
     <use xlink:href="#mb36b011bb9" x="494.383745" y="51.481195" style="fill: #ffffff; stroke: #8c8c8c; stroke-width: 0.9; stroke-linejoin: miter"/>
     <use xlink:href="#mb36b011bb9" x="526.205099" y="53.053775" style="fill: #ffffff; stroke: #8c8c8c; stroke-width: 0.9; stroke-linejoin: miter"/>
     <use xlink:href="#mb36b011bb9" x="558.026454" y="53.957001" style="fill: #ffffff; stroke: #8c8c8c; stroke-width: 0.9; stroke-linejoin: miter"/>
     <use xlink:href="#mb36b011bb9" x="589.847808" y="57.118291" style="fill: #ffffff; stroke: #8c8c8c; stroke-width: 0.9; stroke-linejoin: miter"/>
     <use xlink:href="#mb36b011bb9" x="621.669163" y="60.376356" style="fill: #ffffff; stroke: #8c8c8c; stroke-width: 0.9; stroke-linejoin: miter"/>
     <use xlink:href="#mb36b011bb9" x="653.490517" y="61.868291" style="fill: #ffffff; stroke: #8c8c8c; stroke-width: 0.9; stroke-linejoin: miter"/>
    </g>
   </g>
   <g id="line2d_28">
    <path d="M 80.706136 122.481195 
L 84.683806 139.997324 
L 88.661475 176.747324 
L 92.639144 220.392485 
L 96.616814 129.376356 
L 100.594483 169.31184 
L 104.572152 84.303775 
L 108.549822 137.295711 
L 112.527491 93.150549 
L 116.50516 111.424743 
L 120.482829 88.779582 
L 124.460499 134.408614 
L 128.438168 113.836033 
L 132.415837 100.674743 
L 136.393507 82.053775 
L 140.371176 71.368291 
L 144.348845 71.110227 
L 148.326515 84.674743 
L 152.304184 70.626356 
L 156.281853 71.448936 
L 160.259523 62.352162 
L 164.237192 61.900549 
L 168.214861 69.142485 
L 172.192531 70.844098 
L 176.1702 65.231195 
L 180.147869 72.803775 
L 184.125538 57.102162 
L 188.103208 79.400549 
L 192.080877 59.940872 
L 196.058546 53.997324 
L 200.036216 48.72313 
L 204.013885 56.005388 
L 207.991554 54.327969 
L 211.969224 56.932807 
L 215.946893 64.231195 
L 219.924562 53.529582 
L 223.902232 63.319904 
L 227.879901 62.803775 
L 231.85757 58.22313 
L 235.835239 58.287646 
L 239.812909 57.158614 
L 243.790578 52.88442 
L 247.768247 56.053775 
L 251.745917 54.400549 
L 255.723586 56.13442 
L 259.701255 57.069904 
L 263.678925 57.819904 
L 267.656594 58.836033 
L 271.634263 58.142485 
L 275.611933 59.239259 
L 279.589602 55.981195 
L 283.567271 56.021517 
L 287.544941 54.457001 
L 291.52261 55.900549 
L 295.500279 56.521517 
L 299.477948 58.715066 
L 303.455618 57.440872 
L 307.433287 57.045711 
L 311.410956 58.094098 
L 315.388626 58.602162 
L 319.366295 57.747324 
L 323.343964 56.086033 
L 327.321634 54.844098 
L 331.299303 54.819904 
L 335.276972 55.231195 
L 339.254642 56.263453 
L 343.232311 57.182807 
L 347.20998 56.190872 
L 351.187649 56.094098 
L 355.165319 55.319904 
L 359.142988 55.376356 
L 363.120657 55.029582 
L 367.098327 55.303775 
L 371.075996 54.97313 
L 375.053665 54.997324 
L 379.031335 55.279582 
L 383.009004 56.521517 
L 386.986673 56.263453 
L 390.964343 56.763453 
L 394.942012 56.190872 
L 398.919681 57.215066 
" clip-path="url(#pc7419a188e)" style="fill: none; stroke-dasharray: 4.8,1.6,1.6,1.6; stroke-dashoffset: 0; stroke: #8c8c8c; stroke-width: 1.6"/>
    <defs>
     <path id="m3ff64275f1" d="M 0 2 
C 0.530406 2 1.03916 1.789267 1.414214 1.414214 
C 1.789267 1.03916 2 0.530406 2 0 
C 2 -0.530406 1.789267 -1.03916 1.414214 -1.414214 
C 1.03916 -1.789267 0.530406 -2 0 -2 
C -0.530406 -2 -1.03916 -1.789267 -1.414214 -1.414214 
C -1.789267 -1.03916 -2 -0.530406 -2 0 
C -2 0.530406 -1.789267 1.03916 -1.414214 1.414214 
C -1.03916 1.789267 -0.530406 2 0 2 
z
" style="stroke: #8c8c8c; stroke-width: 0.9"/>
    </defs>
    <g clip-path="url(#pc7419a188e)">
     <use xlink:href="#m3ff64275f1" x="80.706136" y="122.481195" style="fill: #ffffff; stroke: #8c8c8c; stroke-width: 0.9"/>
     <use xlink:href="#m3ff64275f1" x="112.527491" y="93.150549" style="fill: #ffffff; stroke: #8c8c8c; stroke-width: 0.9"/>
     <use xlink:href="#m3ff64275f1" x="144.348845" y="71.110227" style="fill: #ffffff; stroke: #8c8c8c; stroke-width: 0.9"/>
     <use xlink:href="#m3ff64275f1" x="176.1702" y="65.231195" style="fill: #ffffff; stroke: #8c8c8c; stroke-width: 0.9"/>
     <use xlink:href="#m3ff64275f1" x="207.991554" y="54.327969" style="fill: #ffffff; stroke: #8c8c8c; stroke-width: 0.9"/>
     <use xlink:href="#m3ff64275f1" x="239.812909" y="57.158614" style="fill: #ffffff; stroke: #8c8c8c; stroke-width: 0.9"/>
     <use xlink:href="#m3ff64275f1" x="271.634263" y="58.142485" style="fill: #ffffff; stroke: #8c8c8c; stroke-width: 0.9"/>
     <use xlink:href="#m3ff64275f1" x="303.455618" y="57.440872" style="fill: #ffffff; stroke: #8c8c8c; stroke-width: 0.9"/>
     <use xlink:href="#m3ff64275f1" x="335.276972" y="55.231195" style="fill: #ffffff; stroke: #8c8c8c; stroke-width: 0.9"/>
     <use xlink:href="#m3ff64275f1" x="367.098327" y="55.303775" style="fill: #ffffff; stroke: #8c8c8c; stroke-width: 0.9"/>
     <use xlink:href="#m3ff64275f1" x="398.919681" y="57.215066" style="fill: #ffffff; stroke: #8c8c8c; stroke-width: 0.9"/>
    </g>
   </g>
   <g id="line2d_29">
    <path d="M 80.706136 135.957001 
L 84.683806 112.553775 
L 88.661475 172.094098 
L 92.639144 137.013453 
L 96.616814 117.360227 
L 100.594483 119.803775 
L 104.572152 103.618291 
L 108.549822 81.698936 
L 112.527491 116.924743 
L 116.50516 117.06184 
L 120.482829 87.594098 
L 124.460499 82.618291 
L 128.438168 80.586033 
L 132.415837 86.900549 
L 136.393507 97.981195 
L 140.371176 84.336033 
L 144.348845 82.763453 
L 148.326515 72.88442 
L 152.304184 82.13442 
L 156.281853 62.787646 
L 160.259523 62.981195 
L 164.237192 57.529582 
L 168.214861 56.126356 
L 172.192531 68.207001 
L 176.1702 75.747324 
L 180.147869 57.448936 
L 184.125538 55.948936 
L 188.103208 73.327969 
L 192.080877 63.086033 
L 196.058546 69.303775 
L 200.036216 57.594098 
L 204.013885 61.537646 
L 207.991554 63.682807 
L 211.969224 59.142485 
L 215.946893 58.537646 
L 219.924562 60.102162 
L 223.902232 53.239259 
L 227.879901 54.13442 
L 231.85757 56.247324 
L 235.835239 55.707001 
L 239.812909 53.594098 
L 243.790578 48.295711 
L 247.768247 54.56184 
L 251.745917 51.586033 
L 255.723586 52.319904 
L 259.701255 50.045711 
L 263.678925 51.88442 
L 267.656594 54.408614 
L 271.634263 55.271517 
L 275.611933 55.271517 
L 279.589602 54.432807 
L 287.544941 53.97313 
L 291.52261 54.045711 
L 295.500279 54.553775 
L 299.477948 53.47313 
L 303.455618 53.416678 
L 307.433287 52.860227 
L 315.388626 52.521517 
L 319.366295 52.63442 
L 323.343964 50.771517 
L 331.299303 48.836033 
L 335.276972 48.279582 
L 343.232311 49.682807 
L 347.20998 49.63442 
L 351.187649 49.368291 
L 359.142988 49.207001 
L 363.120657 48.844098 
L 367.098327 48.787646 
L 371.075996 47.908614 
L 375.053665 47.981195 
L 379.031335 47.319904 
L 383.009004 47.690872 
L 390.964343 47.698936 
L 394.942012 47.81184 
L 398.919681 48.239259 
L 402.897351 47.924743 
L 406.87502 47.295711 
L 410.852689 46.844098 
L 414.830358 47.06184 
L 418.808028 46.577969 
L 422.785697 47.215066 
L 426.763366 48.110227 
L 430.741036 48.094098 
L 434.718705 47.642485 
L 438.696374 47.408614 
L 442.674044 47.465066 
L 446.651713 47.086033 
L 450.629382 48.303775 
L 454.607052 48.715066 
L 462.56239 48.731195 
L 466.540059 49.400549 
L 470.517729 49.715066 
L 474.495398 49.876356 
L 478.473067 49.916678 
L 482.450737 51.118291 
L 486.428406 50.72313 
L 490.406075 49.940872 
L 494.383745 50.158614 
L 498.361414 50.06184 
L 502.339083 50.352162 
L 506.316753 49.658614 
L 510.294422 49.513453 
L 514.272091 49.06184 
L 518.249761 49.408614 
L 522.22743 48.666678 
L 526.205099 49.336033 
L 530.182768 49.72313 
L 534.160438 49.844098 
L 538.138107 49.271517 
L 542.115776 48.900549 
L 550.071115 50.037646 
L 558.026454 50.819904 
L 562.004123 50.166678 
L 565.981792 50.457001 
L 569.959462 50.279582 
L 573.937131 51.053775 
L 577.9148 51.577969 
L 581.892469 51.327969 
L 585.870139 51.642485 
L 589.847808 51.569904 
L 593.825477 51.190872 
L 597.803147 51.731195 
L 601.780816 50.731195 
L 605.758485 50.279582 
L 617.691493 50.166678 
L 617.691493 50.166678 
" clip-path="url(#pc7419a188e)" style="fill: none; stroke-dasharray: 4.8,1.6,1.6,1.6; stroke-dashoffset: 0; stroke: #8c8c8c; stroke-width: 1.6"/>
    <defs>
     <path id="m4cd9ef0cb9" d="M 0 -2 
L -2 2 
L 2 2 
z
" style="stroke: #8c8c8c; stroke-width: 0.9; stroke-linejoin: miter"/>
    </defs>
    <g clip-path="url(#pc7419a188e)">
     <use xlink:href="#m4cd9ef0cb9" x="80.706136" y="135.957001" style="fill: #ffffff; stroke: #8c8c8c; stroke-width: 0.9; stroke-linejoin: miter"/>
     <use xlink:href="#m4cd9ef0cb9" x="112.527491" y="116.924743" style="fill: #ffffff; stroke: #8c8c8c; stroke-width: 0.9; stroke-linejoin: miter"/>
     <use xlink:href="#m4cd9ef0cb9" x="144.348845" y="82.763453" style="fill: #ffffff; stroke: #8c8c8c; stroke-width: 0.9; stroke-linejoin: miter"/>
     <use xlink:href="#m4cd9ef0cb9" x="176.1702" y="75.747324" style="fill: #ffffff; stroke: #8c8c8c; stroke-width: 0.9; stroke-linejoin: miter"/>
     <use xlink:href="#m4cd9ef0cb9" x="207.991554" y="63.682807" style="fill: #ffffff; stroke: #8c8c8c; stroke-width: 0.9; stroke-linejoin: miter"/>
     <use xlink:href="#m4cd9ef0cb9" x="239.812909" y="53.594098" style="fill: #ffffff; stroke: #8c8c8c; stroke-width: 0.9; stroke-linejoin: miter"/>
     <use xlink:href="#m4cd9ef0cb9" x="271.634263" y="55.271517" style="fill: #ffffff; stroke: #8c8c8c; stroke-width: 0.9; stroke-linejoin: miter"/>
     <use xlink:href="#m4cd9ef0cb9" x="303.455618" y="53.416678" style="fill: #ffffff; stroke: #8c8c8c; stroke-width: 0.9; stroke-linejoin: miter"/>
     <use xlink:href="#m4cd9ef0cb9" x="335.276972" y="48.279582" style="fill: #ffffff; stroke: #8c8c8c; stroke-width: 0.9; stroke-linejoin: miter"/>
     <use xlink:href="#m4cd9ef0cb9" x="367.098327" y="48.787646" style="fill: #ffffff; stroke: #8c8c8c; stroke-width: 0.9; stroke-linejoin: miter"/>
     <use xlink:href="#m4cd9ef0cb9" x="398.919681" y="48.239259" style="fill: #ffffff; stroke: #8c8c8c; stroke-width: 0.9; stroke-linejoin: miter"/>
     <use xlink:href="#m4cd9ef0cb9" x="430.741036" y="48.094098" style="fill: #ffffff; stroke: #8c8c8c; stroke-width: 0.9; stroke-linejoin: miter"/>
     <use xlink:href="#m4cd9ef0cb9" x="462.56239" y="48.731195" style="fill: #ffffff; stroke: #8c8c8c; stroke-width: 0.9; stroke-linejoin: miter"/>
     <use xlink:href="#m4cd9ef0cb9" x="494.383745" y="50.158614" style="fill: #ffffff; stroke: #8c8c8c; stroke-width: 0.9; stroke-linejoin: miter"/>
     <use xlink:href="#m4cd9ef0cb9" x="526.205099" y="49.336033" style="fill: #ffffff; stroke: #8c8c8c; stroke-width: 0.9; stroke-linejoin: miter"/>
     <use xlink:href="#m4cd9ef0cb9" x="558.026454" y="50.819904" style="fill: #ffffff; stroke: #8c8c8c; stroke-width: 0.9; stroke-linejoin: miter"/>
     <use xlink:href="#m4cd9ef0cb9" x="589.847808" y="51.569904" style="fill: #ffffff; stroke: #8c8c8c; stroke-width: 0.9; stroke-linejoin: miter"/>
    </g>
   </g>
   <g id="line2d_30">
    <path d="M 80.706136 138.747324 
L 84.683806 185.344098 
L 88.661475 200.174743 
L 92.639144 285.731195 
L 96.616814 182.981195 
L 100.594483 206.166678 
L 104.572152 141.569904 
L 108.549822 156.594098 
L 112.527491 109.303775 
L 116.50516 140.408614 
L 120.482829 119.81184 
L 124.460499 134.13442 
L 128.438168 124.771517 
L 132.415837 153.81184 
L 136.393507 73.239259 
L 140.371176 97.771517 
L 144.348845 116.376356 
L 148.326515 115.303775 
L 152.304184 105.650549 
L 156.281853 90.110227 
L 160.259523 101.497324 
L 164.237192 98.481195 
L 168.214861 123.513453 
L 172.192531 131.755388 
L 176.1702 115.610227 
L 180.147869 93.505388 
L 184.125538 110.56184 
L 188.103208 112.31184 
L 192.080877 100.876356 
L 196.058546 114.190872 
L 200.036216 109.707001 
L 204.013885 101.06184 
L 207.991554 94.618291 
L 211.969224 100.81184 
L 215.946893 98.416678 
L 219.924562 96.618291 
L 223.902232 96.747324 
L 227.879901 99.279582 
L 231.85757 92.336033 
L 235.835239 92.569904 
L 239.812909 93.231195 
L 243.790578 93.360227 
L 247.768247 94.102162 
L 251.745917 92.908614 
L 255.723586 92.731195 
L 259.701255 92.586033 
L 263.678925 93.13442 
L 267.656594 92.021517 
L 271.634263 91.166678 
L 275.611933 90.650549 
L 279.589602 92.860227 
L 283.567271 92.852162 
L 287.544941 95.174743 
L 291.52261 94.97313 
L 295.500279 94.481195 
L 299.477948 95.037646 
L 303.455618 94.327969 
L 307.433287 94.368291 
L 311.410956 96.836033 
L 315.388626 96.836033 
L 319.366295 96.424743 
L 323.343964 96.88442 
L 327.321634 96.795711 
L 331.299303 96.860227 
L 335.276972 97.150549 
" clip-path="url(#pc7419a188e)" style="fill: none; stroke-dasharray: 8,3.2; stroke-dashoffset: 0; stroke: #bfbfbf; stroke-width: 1.6"/>
    <defs>
     <path id="mae03401514" d="M -0 2.828427 
L 2.828427 0 
L 0 -2.828427 
L -2.828427 -0 
z
" style="stroke: #bfbfbf; stroke-width: 0.9; stroke-linejoin: miter"/>
    </defs>
    <g clip-path="url(#pc7419a188e)">
     <use xlink:href="#mae03401514" x="80.706136" y="138.747324" style="fill: #ffffff; stroke: #bfbfbf; stroke-width: 0.9; stroke-linejoin: miter"/>
     <use xlink:href="#mae03401514" x="112.527491" y="109.303775" style="fill: #ffffff; stroke: #bfbfbf; stroke-width: 0.9; stroke-linejoin: miter"/>
     <use xlink:href="#mae03401514" x="144.348845" y="116.376356" style="fill: #ffffff; stroke: #bfbfbf; stroke-width: 0.9; stroke-linejoin: miter"/>
     <use xlink:href="#mae03401514" x="176.1702" y="115.610227" style="fill: #ffffff; stroke: #bfbfbf; stroke-width: 0.9; stroke-linejoin: miter"/>
     <use xlink:href="#mae03401514" x="207.991554" y="94.618291" style="fill: #ffffff; stroke: #bfbfbf; stroke-width: 0.9; stroke-linejoin: miter"/>
     <use xlink:href="#mae03401514" x="239.812909" y="93.231195" style="fill: #ffffff; stroke: #bfbfbf; stroke-width: 0.9; stroke-linejoin: miter"/>
     <use xlink:href="#mae03401514" x="271.634263" y="91.166678" style="fill: #ffffff; stroke: #bfbfbf; stroke-width: 0.9; stroke-linejoin: miter"/>
     <use xlink:href="#mae03401514" x="303.455618" y="94.327969" style="fill: #ffffff; stroke: #bfbfbf; stroke-width: 0.9; stroke-linejoin: miter"/>
     <use xlink:href="#mae03401514" x="335.276972" y="97.150549" style="fill: #ffffff; stroke: #bfbfbf; stroke-width: 0.9; stroke-linejoin: miter"/>
    </g>
   </g>
   <g id="patch_3">
    <path d="M 51.0725 456.077969 
L 51.0725 27.077969 
" style="fill: none; stroke: #333333; stroke-width: 0.8; stroke-linejoin: miter; stroke-linecap: square"/>
   </g>
   <g id="patch_4">
    <path d="M 51.0725 456.077969 
L 703.0125 456.077969 
" style="fill: none; stroke: #333333; stroke-width: 0.8; stroke-linejoin: miter; stroke-linecap: square"/>
   </g>
   <g id="text_17">
    <!-- volution du mAP50-95 sur le validation set -->
    <g transform="translate(234.590938 17.077969) scale(0.13 -0.13)">
     <defs>
      <path id="DejaVuSans-c9" d="M 628 4666 
L 3578 4666 
L 3578 4134 
L 1259 4134 
L 1259 2753 
L 3481 2753 
L 3481 2222 
L 1259 2222 
L 1259 531 
L 3634 531 
L 3634 0 
L 628 0 
L 628 4666 
z
M 2268 5921 
L 2846 5921 
L 2134 5096 
L 1655 5096 
L 2268 5921 
z
" transform="scale(0.015625)"/>
      <path id="DejaVuSans-75" d="M 544 1381 
L 544 3500 
L 1119 3500 
L 1119 1403 
Q 1119 906 1312 657 
Q 1506 409 1894 409 
Q 2359 409 2629 706 
Q 2900 1003 2900 1516 
L 2900 3500 
L 3475 3500 
L 3475 0 
L 2900 0 
L 2900 538 
Q 2691 219 2414 64 
Q 2138 -91 1772 -91 
Q 1169 -91 856 284 
Q 544 659 544 1381 
z
M 1991 3584 
L 1991 3584 
z
" transform="scale(0.015625)"/>
      <path id="DejaVuSans-73" d="M 2834 3397 
L 2834 2853 
Q 2591 2978 2328 3040 
Q 2066 3103 1784 3103 
Q 1356 3103 1142 2972 
Q 928 2841 928 2578 
Q 928 2378 1081 2264 
Q 1234 2150 1697 2047 
L 1894 2003 
Q 2506 1872 2764 1633 
Q 3022 1394 3022 966 
Q 3022 478 2636 193 
Q 2250 -91 1575 -91 
Q 1294 -91 989 -36 
Q 684 19 347 128 
L 347 722 
Q 666 556 975 473 
Q 1284 391 1588 391 
Q 1994 391 2212 530 
Q 2431 669 2431 922 
Q 2431 1156 2273 1281 
Q 2116 1406 1581 1522 
L 1381 1569 
Q 847 1681 609 1914 
Q 372 2147 372 2553 
Q 372 3047 722 3315 
Q 1072 3584 1716 3584 
Q 2034 3584 2315 3537 
Q 2597 3491 2834 3397 
z
" transform="scale(0.015625)"/>
      <path id="DejaVuSans-72" d="M 2631 2963 
Q 2534 3019 2420 3045 
Q 2306 3072 2169 3072 
Q 1681 3072 1420 2755 
Q 1159 2438 1159 1844 
L 1159 0 
L 581 0 
L 581 3500 
L 1159 3500 
L 1159 2956 
Q 1341 3275 1631 3429 
Q 1922 3584 2338 3584 
Q 2397 3584 2469 3576 
Q 2541 3569 2628 3553 
L 2631 2963 
z
" transform="scale(0.015625)"/>
      <path id="DejaVuSans-65" d="M 3597 1894 
L 3597 1613 
L 953 1613 
Q 991 1019 1311 708 
Q 1631 397 2203 397 
Q 2534 397 2845 478 
Q 3156 559 3463 722 
L 3463 178 
Q 3153 47 2828 -22 
Q 2503 -91 2169 -91 
Q 1331 -91 842 396 
Q 353 884 353 1716 
Q 353 2575 817 3079 
Q 1281 3584 2069 3584 
Q 2775 3584 3186 3129 
Q 3597 2675 3597 1894 
z
M 3022 2063 
Q 3016 2534 2758 2815 
Q 2500 3097 2075 3097 
Q 1594 3097 1305 2825 
Q 1016 2553 972 2059 
L 3022 2063 
z
" transform="scale(0.015625)"/>
     </defs>
     <use xlink:href="#DejaVuSans-c9"/>
     <use xlink:href="#DejaVuSans-76" x="63.183594"/>
     <use xlink:href="#DejaVuSans-6f" x="122.363281"/>
     <use xlink:href="#DejaVuSans-6c" x="183.544922"/>
     <use xlink:href="#DejaVuSans-75" x="211.328125"/>
     <use xlink:href="#DejaVuSans-74" x="274.707031"/>
     <use xlink:href="#DejaVuSans-69" x="313.916016"/>
     <use xlink:href="#DejaVuSans-6f" x="341.699219"/>
     <use xlink:href="#DejaVuSans-6e" x="402.880859"/>
     <use xlink:href="#DejaVuSans-20" x="466.259766"/>
     <use xlink:href="#DejaVuSans-64" x="498.046875"/>
     <use xlink:href="#DejaVuSans-75" x="561.523438"/>
     <use xlink:href="#DejaVuSans-20" x="624.902344"/>
     <use xlink:href="#DejaVuSans-6d" x="656.689453"/>
     <use xlink:href="#DejaVuSans-41" x="754.101562"/>
     <use xlink:href="#DejaVuSans-50" x="822.509766"/>
     <use xlink:href="#DejaVuSans-35" x="882.8125"/>
     <use xlink:href="#DejaVuSans-30" x="946.435547"/>
     <use xlink:href="#DejaVuSans-2d" x="1010.058594"/>
     <use xlink:href="#DejaVuSans-39" x="1046.142578"/>
     <use xlink:href="#DejaVuSans-35" x="1109.765625"/>
     <use xlink:href="#DejaVuSans-20" x="1173.388672"/>
     <use xlink:href="#DejaVuSans-73" x="1205.175781"/>
     <use xlink:href="#DejaVuSans-75" x="1257.275391"/>
     <use xlink:href="#DejaVuSans-72" x="1320.654297"/>
     <use xlink:href="#DejaVuSans-20" x="1361.767578"/>
     <use xlink:href="#DejaVuSans-6c" x="1393.554688"/>
     <use xlink:href="#DejaVuSans-65" x="1421.337891"/>
     <use xlink:href="#DejaVuSans-20" x="1482.861328"/>
     <use xlink:href="#DejaVuSans-76" x="1514.648438"/>
     <use xlink:href="#DejaVuSans-61" x="1573.828125"/>
     <use xlink:href="#DejaVuSans-6c" x="1635.107422"/>
     <use xlink:href="#DejaVuSans-69" x="1662.890625"/>
     <use xlink:href="#DejaVuSans-64" x="1690.673828"/>
     <use xlink:href="#DejaVuSans-61" x="1754.150391"/>
     <use xlink:href="#DejaVuSans-74" x="1815.429688"/>
     <use xlink:href="#DejaVuSans-69" x="1854.638672"/>
     <use xlink:href="#DejaVuSans-6f" x="1882.421875"/>
     <use xlink:href="#DejaVuSans-6e" x="1943.603516"/>
     <use xlink:href="#DejaVuSans-20" x="2006.982422"/>
     <use xlink:href="#DejaVuSans-73" x="2038.769531"/>
     <use xlink:href="#DejaVuSans-65" x="2090.869141"/>
     <use xlink:href="#DejaVuSans-74" x="2152.392578"/>
    </g>
   </g>
   <g id="legend_1">
    <g id="line2d_31">
     <path d="M 352.64625 409.186719 
L 364.64625 409.186719 
L 376.64625 409.186719 
" style="fill: none; stroke-dasharray: 1.6,1.6; stroke-dashoffset: 0; stroke: #262626; stroke-width: 1.6"/>
     <g>
      <use xlink:href="#m4689cd2b95" x="364.64625" y="409.186719" style="fill: #ffffff; stroke: #262626; stroke-width: 0.9; stroke-linejoin: miter"/>
     </g>
    </g>
    <g id="text_18">
     <!-- Light-Medium -->
     <g transform="translate(383.04625 411.986719) scale(0.08 -0.08)">
      <defs>
       <path id="DejaVuSans-4c" d="M 628 4666 
L 1259 4666 
L 1259 531 
L 3531 531 
L 3531 0 
L 628 0 
L 628 4666 
z
" transform="scale(0.015625)"/>
       <path id="DejaVuSans-67" d="M 2906 1791 
Q 2906 2416 2648 2759 
Q 2391 3103 1925 3103 
Q 1463 3103 1205 2759 
Q 947 2416 947 1791 
Q 947 1169 1205 825 
Q 1463 481 1925 481 
Q 2391 481 2648 825 
Q 2906 1169 2906 1791 
z
M 3481 434 
Q 3481 -459 3084 -895 
Q 2688 -1331 1869 -1331 
Q 1566 -1331 1297 -1286 
Q 1028 -1241 775 -1147 
L 775 -588 
Q 1028 -725 1275 -790 
Q 1522 -856 1778 -856 
Q 2344 -856 2625 -561 
Q 2906 -266 2906 331 
L 2906 616 
Q 2728 306 2450 153 
Q 2172 0 1784 0 
Q 1141 0 747 490 
Q 353 981 353 1791 
Q 353 2603 747 3093 
Q 1141 3584 1784 3584 
Q 2172 3584 2450 3431 
Q 2728 3278 2906 2969 
L 2906 3500 
L 3481 3500 
L 3481 434 
z
" transform="scale(0.015625)"/>
       <path id="DejaVuSans-4d" d="M 628 4666 
L 1569 4666 
L 2759 1491 
L 3956 4666 
L 4897 4666 
L 4897 0 
L 4281 0 
L 4281 4097 
L 3078 897 
L 2444 897 
L 1241 4097 
L 1241 0 
L 628 0 
L 628 4666 
z
" transform="scale(0.015625)"/>
      </defs>
      <use xlink:href="#DejaVuSans-4c"/>
      <use xlink:href="#DejaVuSans-69" x="55.712891"/>
      <use xlink:href="#DejaVuSans-67" x="83.496094"/>
      <use xlink:href="#DejaVuSans-68" x="146.972656"/>
      <use xlink:href="#DejaVuSans-74" x="210.351562"/>
      <use xlink:href="#DejaVuSans-2d" x="249.560547"/>
      <use xlink:href="#DejaVuSans-4d" x="285.644531"/>
      <use xlink:href="#DejaVuSans-65" x="371.923828"/>
      <use xlink:href="#DejaVuSans-64" x="433.447266"/>
      <use xlink:href="#DejaVuSans-69" x="496.923828"/>
      <use xlink:href="#DejaVuSans-75" x="524.707031"/>
      <use xlink:href="#DejaVuSans-6d" x="588.085938"/>
     </g>
    </g>
    <g id="line2d_32">
     <path d="M 352.64625 420.929219 
L 364.64625 420.929219 
L 376.64625 420.929219 
" style="fill: none; stroke-dasharray: 1.6,1.6; stroke-dashoffset: 0; stroke: #262626; stroke-width: 1.6"/>
     <g>
      <use xlink:href="#mfa0d79ef67" x="364.64625" y="420.929219" style="fill: #ffffff; stroke: #262626; stroke-width: 0.9"/>
     </g>
    </g>
    <g id="text_19">
     <!-- Light-Small -->
     <g transform="translate(383.04625 423.729219) scale(0.08 -0.08)">
      <defs>
       <path id="DejaVuSans-53" d="M 3425 4513 
L 3425 3897 
Q 3066 4069 2747 4153 
Q 2428 4238 2131 4238 
Q 1616 4238 1336 4038 
Q 1056 3838 1056 3469 
Q 1056 3159 1242 3001 
Q 1428 2844 1947 2747 
L 2328 2669 
Q 3034 2534 3370 2195 
Q 3706 1856 3706 1288 
Q 3706 609 3251 259 
Q 2797 -91 1919 -91 
Q 1588 -91 1214 -16 
Q 841 59 441 206 
L 441 856 
Q 825 641 1194 531 
Q 1563 422 1919 422 
Q 2459 422 2753 634 
Q 3047 847 3047 1241 
Q 3047 1584 2836 1778 
Q 2625 1972 2144 2069 
L 1759 2144 
Q 1053 2284 737 2584 
Q 422 2884 422 3419 
Q 422 4038 858 4394 
Q 1294 4750 2059 4750 
Q 2388 4750 2728 4690 
Q 3069 4631 3425 4513 
z
" transform="scale(0.015625)"/>
      </defs>
      <use xlink:href="#DejaVuSans-4c"/>
      <use xlink:href="#DejaVuSans-69" x="55.712891"/>
      <use xlink:href="#DejaVuSans-67" x="83.496094"/>
      <use xlink:href="#DejaVuSans-68" x="146.972656"/>
      <use xlink:href="#DejaVuSans-74" x="210.351562"/>
      <use xlink:href="#DejaVuSans-2d" x="249.560547"/>
      <use xlink:href="#DejaVuSans-53" x="285.644531"/>
      <use xlink:href="#DejaVuSans-6d" x="349.121094"/>
      <use xlink:href="#DejaVuSans-61" x="446.533203"/>
      <use xlink:href="#DejaVuSans-6c" x="507.8125"/>
      <use xlink:href="#DejaVuSans-6c" x="535.595703"/>
     </g>
    </g>
    <g id="line2d_33">
     <path d="M 352.64625 432.671719 
L 364.64625 432.671719 
L 376.64625 432.671719 
" style="fill: none; stroke-dasharray: 1.6,1.6; stroke-dashoffset: 0; stroke: #262626; stroke-width: 1.6"/>
     <g>
      <use xlink:href="#mafaec5b7ed" x="364.64625" y="432.671719" style="fill: #ffffff; stroke: #262626; stroke-width: 0.9; stroke-linejoin: miter"/>
     </g>
    </g>
    <g id="text_20">
     <!-- Light-Strong -->
     <g transform="translate(383.04625 435.471719) scale(0.08 -0.08)">
      <use xlink:href="#DejaVuSans-4c"/>
      <use xlink:href="#DejaVuSans-69" x="55.712891"/>
      <use xlink:href="#DejaVuSans-67" x="83.496094"/>
      <use xlink:href="#DejaVuSans-68" x="146.972656"/>
      <use xlink:href="#DejaVuSans-74" x="210.351562"/>
      <use xlink:href="#DejaVuSans-2d" x="249.560547"/>
      <use xlink:href="#DejaVuSans-53" x="285.644531"/>
      <use xlink:href="#DejaVuSans-74" x="349.121094"/>
      <use xlink:href="#DejaVuSans-72" x="388.330078"/>
      <use xlink:href="#DejaVuSans-6f" x="427.193359"/>
      <use xlink:href="#DejaVuSans-6e" x="488.375"/>
      <use xlink:href="#DejaVuSans-67" x="551.753906"/>
     </g>
    </g>
    <g id="line2d_34">
     <path d="M 352.64625 444.414219 
L 364.64625 444.414219 
L 376.64625 444.414219 
" style="fill: none; stroke: #595959; stroke-width: 1.6; stroke-linecap: square"/>
     <g>
      <use xlink:href="#m701238fabf" x="364.64625" y="444.414219" style="fill: #ffffff; stroke: #595959; stroke-width: 0.9; stroke-linejoin: miter"/>
     </g>
    </g>
    <g id="text_21">
     <!-- Geometric-Medium -->
     <g transform="translate(383.04625 447.214219) scale(0.08 -0.08)">
      <defs>
       <path id="DejaVuSans-47" d="M 3809 666 
L 3809 1919 
L 2778 1919 
L 2778 2438 
L 4434 2438 
L 4434 434 
Q 4069 175 3628 42 
Q 3188 -91 2688 -91 
Q 1594 -91 976 548 
Q 359 1188 359 2328 
Q 359 3472 976 4111 
Q 1594 4750 2688 4750 
Q 3144 4750 3555 4637 
Q 3966 4525 4313 4306 
L 4313 3634 
Q 3963 3931 3569 4081 
Q 3175 4231 2741 4231 
Q 1884 4231 1454 3753 
Q 1025 3275 1025 2328 
Q 1025 1384 1454 906 
Q 1884 428 2741 428 
Q 3075 428 3337 486 
Q 3600 544 3809 666 
z
" transform="scale(0.015625)"/>
      </defs>
      <use xlink:href="#DejaVuSans-47"/>
      <use xlink:href="#DejaVuSans-65" x="77.490234"/>
      <use xlink:href="#DejaVuSans-6f" x="139.013672"/>
      <use xlink:href="#DejaVuSans-6d" x="200.195312"/>
      <use xlink:href="#DejaVuSans-65" x="297.607422"/>
      <use xlink:href="#DejaVuSans-74" x="359.130859"/>
      <use xlink:href="#DejaVuSans-72" x="398.339844"/>
      <use xlink:href="#DejaVuSans-69" x="439.453125"/>
      <use xlink:href="#DejaVuSans-63" x="467.236328"/>
      <use xlink:href="#DejaVuSans-2d" x="522.216797"/>
      <use xlink:href="#DejaVuSans-4d" x="558.300781"/>
      <use xlink:href="#DejaVuSans-65" x="644.580078"/>
      <use xlink:href="#DejaVuSans-64" x="706.103516"/>
      <use xlink:href="#DejaVuSans-69" x="769.580078"/>
      <use xlink:href="#DejaVuSans-75" x="797.363281"/>
      <use xlink:href="#DejaVuSans-6d" x="860.742188"/>
     </g>
    </g>
    <g id="line2d_35">
     <path d="M 475.69875 409.186719 
L 487.69875 409.186719 
L 499.69875 409.186719 
" style="fill: none; stroke: #595959; stroke-width: 1.6; stroke-linecap: square"/>
     <g>
      <use xlink:href="#m642ecf9038" x="487.69875" y="409.186719" style="fill: #ffffff; stroke: #595959; stroke-width: 0.9"/>
     </g>
    </g>
    <g id="text_22">
     <!-- Geometric-Small -->
     <g transform="translate(506.09875 411.986719) scale(0.08 -0.08)">
      <use xlink:href="#DejaVuSans-47"/>
      <use xlink:href="#DejaVuSans-65" x="77.490234"/>
      <use xlink:href="#DejaVuSans-6f" x="139.013672"/>
      <use xlink:href="#DejaVuSans-6d" x="200.195312"/>
      <use xlink:href="#DejaVuSans-65" x="297.607422"/>
      <use xlink:href="#DejaVuSans-74" x="359.130859"/>
      <use xlink:href="#DejaVuSans-72" x="398.339844"/>
      <use xlink:href="#DejaVuSans-69" x="439.453125"/>
      <use xlink:href="#DejaVuSans-63" x="467.236328"/>
      <use xlink:href="#DejaVuSans-2d" x="522.216797"/>
      <use xlink:href="#DejaVuSans-53" x="558.300781"/>
      <use xlink:href="#DejaVuSans-6d" x="621.777344"/>
      <use xlink:href="#DejaVuSans-61" x="719.189453"/>
      <use xlink:href="#DejaVuSans-6c" x="780.46875"/>
      <use xlink:href="#DejaVuSans-6c" x="808.251953"/>
     </g>
    </g>
    <g id="line2d_36">
     <path d="M 475.69875 420.929219 
L 487.69875 420.929219 
L 499.69875 420.929219 
" style="fill: none; stroke: #595959; stroke-width: 1.6; stroke-linecap: square"/>
     <g>
      <use xlink:href="#md2f6eea79a" x="487.69875" y="420.929219" style="fill: #ffffff; stroke: #595959; stroke-width: 0.9; stroke-linejoin: miter"/>
     </g>
    </g>
    <g id="text_23">
     <!-- Geometric-Strong -->
     <g transform="translate(506.09875 423.729219) scale(0.08 -0.08)">
      <use xlink:href="#DejaVuSans-47"/>
      <use xlink:href="#DejaVuSans-65" x="77.490234"/>
      <use xlink:href="#DejaVuSans-6f" x="139.013672"/>
      <use xlink:href="#DejaVuSans-6d" x="200.195312"/>
      <use xlink:href="#DejaVuSans-65" x="297.607422"/>
      <use xlink:href="#DejaVuSans-74" x="359.130859"/>
      <use xlink:href="#DejaVuSans-72" x="398.339844"/>
      <use xlink:href="#DejaVuSans-69" x="439.453125"/>
      <use xlink:href="#DejaVuSans-63" x="467.236328"/>
      <use xlink:href="#DejaVuSans-2d" x="522.216797"/>
      <use xlink:href="#DejaVuSans-53" x="558.300781"/>
      <use xlink:href="#DejaVuSans-74" x="621.777344"/>
      <use xlink:href="#DejaVuSans-72" x="660.986328"/>
      <use xlink:href="#DejaVuSans-6f" x="699.849609"/>
      <use xlink:href="#DejaVuSans-6e" x="761.03125"/>
      <use xlink:href="#DejaVuSans-67" x="824.410156"/>
     </g>
    </g>
    <g id="line2d_37">
     <path d="M 475.69875 432.671719 
L 487.69875 432.671719 
L 499.69875 432.671719 
" style="fill: none; stroke-dasharray: 4.8,1.6,1.6,1.6; stroke-dashoffset: 0; stroke: #8c8c8c; stroke-width: 1.6"/>
     <g>
      <use xlink:href="#mb36b011bb9" x="487.69875" y="432.671719" style="fill: #ffffff; stroke: #8c8c8c; stroke-width: 0.9; stroke-linejoin: miter"/>
     </g>
    </g>
    <g id="text_24">
     <!-- Structural-Medium -->
     <g transform="translate(506.09875 435.471719) scale(0.08 -0.08)">
      <use xlink:href="#DejaVuSans-53"/>
      <use xlink:href="#DejaVuSans-74" x="63.476562"/>
      <use xlink:href="#DejaVuSans-72" x="102.685547"/>
      <use xlink:href="#DejaVuSans-75" x="143.798828"/>
      <use xlink:href="#DejaVuSans-63" x="207.177734"/>
      <use xlink:href="#DejaVuSans-74" x="262.158203"/>
      <use xlink:href="#DejaVuSans-75" x="301.367188"/>
      <use xlink:href="#DejaVuSans-72" x="364.746094"/>
      <use xlink:href="#DejaVuSans-61" x="405.859375"/>
      <use xlink:href="#DejaVuSans-6c" x="467.138672"/>
      <use xlink:href="#DejaVuSans-2d" x="494.921875"/>
      <use xlink:href="#DejaVuSans-4d" x="531.005859"/>
      <use xlink:href="#DejaVuSans-65" x="617.285156"/>
      <use xlink:href="#DejaVuSans-64" x="678.808594"/>
      <use xlink:href="#DejaVuSans-69" x="742.285156"/>
      <use xlink:href="#DejaVuSans-75" x="770.068359"/>
      <use xlink:href="#DejaVuSans-6d" x="833.447266"/>
     </g>
    </g>
    <g id="line2d_38">
     <path d="M 596.56625 409.186719 
L 608.56625 409.186719 
L 620.56625 409.186719 
" style="fill: none; stroke-dasharray: 4.8,1.6,1.6,1.6; stroke-dashoffset: 0; stroke: #8c8c8c; stroke-width: 1.6"/>
     <g>
      <use xlink:href="#m3ff64275f1" x="608.56625" y="409.186719" style="fill: #ffffff; stroke: #8c8c8c; stroke-width: 0.9"/>
     </g>
    </g>
    <g id="text_25">
     <!-- Structural-Small -->
     <g transform="translate(626.96625 411.986719) scale(0.08 -0.08)">
      <use xlink:href="#DejaVuSans-53"/>
      <use xlink:href="#DejaVuSans-74" x="63.476562"/>
      <use xlink:href="#DejaVuSans-72" x="102.685547"/>
      <use xlink:href="#DejaVuSans-75" x="143.798828"/>
      <use xlink:href="#DejaVuSans-63" x="207.177734"/>
      <use xlink:href="#DejaVuSans-74" x="262.158203"/>
      <use xlink:href="#DejaVuSans-75" x="301.367188"/>
      <use xlink:href="#DejaVuSans-72" x="364.746094"/>
      <use xlink:href="#DejaVuSans-61" x="405.859375"/>
      <use xlink:href="#DejaVuSans-6c" x="467.138672"/>
      <use xlink:href="#DejaVuSans-2d" x="494.921875"/>
      <use xlink:href="#DejaVuSans-53" x="531.005859"/>
      <use xlink:href="#DejaVuSans-6d" x="594.482422"/>
      <use xlink:href="#DejaVuSans-61" x="691.894531"/>
      <use xlink:href="#DejaVuSans-6c" x="753.173828"/>
      <use xlink:href="#DejaVuSans-6c" x="780.957031"/>
     </g>
    </g>
    <g id="line2d_39">
     <path d="M 596.56625 420.929219 
L 608.56625 420.929219 
L 620.56625 420.929219 
" style="fill: none; stroke-dasharray: 4.8,1.6,1.6,1.6; stroke-dashoffset: 0; stroke: #8c8c8c; stroke-width: 1.6"/>
     <g>
      <use xlink:href="#m4cd9ef0cb9" x="608.56625" y="420.929219" style="fill: #ffffff; stroke: #8c8c8c; stroke-width: 0.9; stroke-linejoin: miter"/>
     </g>
    </g>
    <g id="text_26">
     <!-- Structural-Strong -->
     <g transform="translate(626.96625 423.729219) scale(0.08 -0.08)">
      <use xlink:href="#DejaVuSans-53"/>
      <use xlink:href="#DejaVuSans-74" x="63.476562"/>
      <use xlink:href="#DejaVuSans-72" x="102.685547"/>
      <use xlink:href="#DejaVuSans-75" x="143.798828"/>
      <use xlink:href="#DejaVuSans-63" x="207.177734"/>
      <use xlink:href="#DejaVuSans-74" x="262.158203"/>
      <use xlink:href="#DejaVuSans-75" x="301.367188"/>
      <use xlink:href="#DejaVuSans-72" x="364.746094"/>
      <use xlink:href="#DejaVuSans-61" x="405.859375"/>
      <use xlink:href="#DejaVuSans-6c" x="467.138672"/>
      <use xlink:href="#DejaVuSans-2d" x="494.921875"/>
      <use xlink:href="#DejaVuSans-53" x="531.005859"/>
      <use xlink:href="#DejaVuSans-74" x="594.482422"/>
      <use xlink:href="#DejaVuSans-72" x="633.691406"/>
      <use xlink:href="#DejaVuSans-6f" x="672.554688"/>
      <use xlink:href="#DejaVuSans-6e" x="733.736328"/>
      <use xlink:href="#DejaVuSans-67" x="797.115234"/>
     </g>
    </g>
    <g id="line2d_40">
     <path d="M 596.56625 432.671719 
L 608.56625 432.671719 
L 620.56625 432.671719 
" style="fill: none; stroke-dasharray: 8,3.2; stroke-dashoffset: 0; stroke: #bfbfbf; stroke-width: 1.6"/>
     <g>
      <use xlink:href="#mae03401514" x="608.56625" y="432.671719" style="fill: #ffffff; stroke: #bfbfbf; stroke-width: 0.9; stroke-linejoin: miter"/>
     </g>
    </g>
    <g id="text_27">
     <!-- Baseline-None -->
     <g transform="translate(626.96625 435.471719) scale(0.08 -0.08)">
      <defs>
       <path id="DejaVuSans-42" d="M 1259 2228 
L 1259 519 
L 2272 519 
Q 2781 519 3026 730 
Q 3272 941 3272 1375 
Q 3272 1813 3026 2020 
Q 2781 2228 2272 2228 
L 1259 2228 
z
M 1259 4147 
L 1259 2741 
L 2194 2741 
Q 2656 2741 2882 2914 
Q 3109 3088 3109 3444 
Q 3109 3797 2882 3972 
Q 2656 4147 2194 4147 
L 1259 4147 
z
M 628 4666 
L 2241 4666 
Q 2963 4666 3353 4366 
Q 3744 4066 3744 3513 
Q 3744 3084 3544 2831 
Q 3344 2578 2956 2516 
Q 3422 2416 3680 2098 
Q 3938 1781 3938 1306 
Q 3938 681 3513 340 
Q 3088 0 2303 0 
L 628 0 
L 628 4666 
z
" transform="scale(0.015625)"/>
       <path id="DejaVuSans-4e" d="M 628 4666 
L 1478 4666 
L 3547 763 
L 3547 4666 
L 4159 4666 
L 4159 0 
L 3309 0 
L 1241 3903 
L 1241 0 
L 628 0 
L 628 4666 
z
" transform="scale(0.015625)"/>
      </defs>
      <use xlink:href="#DejaVuSans-42"/>
      <use xlink:href="#DejaVuSans-61" x="68.603516"/>
      <use xlink:href="#DejaVuSans-73" x="129.882812"/>
      <use xlink:href="#DejaVuSans-65" x="181.982422"/>
      <use xlink:href="#DejaVuSans-6c" x="243.505859"/>
      <use xlink:href="#DejaVuSans-69" x="271.289062"/>
      <use xlink:href="#DejaVuSans-6e" x="299.072266"/>
      <use xlink:href="#DejaVuSans-65" x="362.451172"/>
      <use xlink:href="#DejaVuSans-2d" x="423.974609"/>
      <use xlink:href="#DejaVuSans-4e" x="460.058594"/>
      <use xlink:href="#DejaVuSans-6f" x="534.863281"/>
      <use xlink:href="#DejaVuSans-6e" x="596.044922"/>
      <use xlink:href="#DejaVuSans-65" x="659.423828"/>
     </g>
    </g>
   </g>
  </g>
 </g>
 <defs>
  <clipPath id="pc7419a188e">
   <rect x="51.0725" y="27.077969" width="651.94" height="429"/>
  </clipPath>
 </defs>
</svg>
