<?xml version="1.0" encoding="utf-8" standalone="no"?>
<!DOCTYPE svg PUBLIC "-//W3C//DTD SVG 1.1//EN"
  "http://www.w3.org/Graphics/SVG/1.1/DTD/svg11.dtd">
<svg xmlns:xlink="http://www.w3.org/1999/xlink" width="720pt" height="432pt" viewBox="0 0 720 432" xmlns="http://www.w3.org/2000/svg" version="1.1">
 <metadata>
  <rdf:RDF xmlns:dc="http://purl.org/dc/elements/1.1/" xmlns:cc="http://creativecommons.org/ns#" xmlns:rdf="http://www.w3.org/1999/02/22-rdf-syntax-ns#">
   <cc:Work>
    <dc:type rdf:resource="http://purl.org/dc/dcmitype/StillImage"/>
    <dc:date>2025-10-29T15:19:04.177253</dc:date>
    <dc:format>image/svg+xml</dc:format>
    <dc:creator>
     <cc:Agent>
      <dc:title>Matplotlib v3.8.4, https://matplotlib.org/</dc:title>
     </cc:Agent>
    </dc:creator>
   </cc:Work>
  </rdf:RDF>
 </metadata>
 <defs>
  <style type="text/css">*{stroke-linejoin: round; stroke-linecap: butt}</style>
 </defs>
 <g id="figure_1">
  <g id="patch_1">
   <path d="M 0 432 
L 720 432 
L 720 0 
L 0 0 
z
" style="fill: #ffffff"/>
  </g>
  <g id="axes_1">
   <g id="patch_2">
    <path d="M 56.18 388.48 
L 708.12 388.48 
L 708.12 31.48 
L 56.18 31.48 
z
" style="fill: #ffffff"/>
   </g>
   <g id="matplotlib.axis_1">
    <g id="xtick_1">
     <g id="line2d_1">
      <defs>
       <path id="m456f769094" d="M 0 0 
L 0 3.5 
" style="stroke: #000000; stroke-width: 0.8"/>
      </defs>
      <g>
       <use xlink:href="#m456f769094" x="81.835967" y="388.48" style="stroke: #000000; stroke-width: 0.8"/>
      </g>
     </g>
     <g id="text_1">
      <!-- 0 -->
      <g transform="translate(78.654717 403.078437) scale(0.1 -0.1)">
       <defs>
        <path id="DejaVuSans-30" d="M 2034 4250 
Q 1547 4250 1301 3770 
Q 1056 3291 1056 2328 
Q 1056 1369 1301 889 
Q 1547 409 2034 409 
Q 2525 409 2770 889 
Q 3016 1369 3016 2328 
Q 3016 3291 2770 3770 
Q 2525 4250 2034 4250 
z
M 2034 4750 
Q 2819 4750 3233 4129 
Q 3647 3509 3647 2328 
Q 3647 1150 3233 529 
Q 2819 -91 2034 -91 
Q 1250 -91 836 529 
Q 422 1150 422 2328 
Q 422 3509 836 4129 
Q 1250 4750 2034 4750 
z
" transform="scale(0.015625)"/>
       </defs>
       <use xlink:href="#DejaVuSans-30"/>
      </g>
     </g>
    </g>
    <g id="xtick_2">
     <g id="line2d_2">
      <g>
       <use xlink:href="#m456f769094" x="161.389353" y="388.48" style="stroke: #000000; stroke-width: 0.8"/>
      </g>
     </g>
     <g id="text_2">
      <!-- 20 -->
      <g transform="translate(155.026853 403.078437) scale(0.1 -0.1)">
       <defs>
        <path id="DejaVuSans-32" d="M 1228 531 
L 3431 531 
L 3431 0 
L 469 0 
L 469 531 
Q 828 903 1448 1529 
Q 2069 2156 2228 2338 
Q 2531 2678 2651 2914 
Q 2772 3150 2772 3378 
Q 2772 3750 2511 3984 
Q 2250 4219 1831 4219 
Q 1534 4219 1204 4116 
Q 875 4013 500 3803 
L 500 4441 
Q 881 4594 1212 4672 
Q 1544 4750 1819 4750 
Q 2544 4750 2975 4387 
Q 3406 4025 3406 3419 
Q 3406 3131 3298 2873 
Q 3191 2616 2906 2266 
Q 2828 2175 2409 1742 
Q 1991 1309 1228 531 
z
" transform="scale(0.015625)"/>
       </defs>
       <use xlink:href="#DejaVuSans-32"/>
       <use xlink:href="#DejaVuSans-30" x="63.623047"/>
      </g>
     </g>
    </g>
    <g id="xtick_3">
     <g id="line2d_3">
      <g>
       <use xlink:href="#m456f769094" x="240.942739" y="388.48" style="stroke: #000000; stroke-width: 0.8"/>
      </g>
     </g>
     <g id="text_3">
      <!-- 40 -->
      <g transform="translate(234.580239 403.078437) scale(0.1 -0.1)">
       <defs>
        <path id="DejaVuSans-34" d="M 2419 4116 
L 825 1625 
L 2419 1625 
L 2419 4116 
z
M 2253 4666 
L 3047 4666 
L 3047 1625 
L 3713 1625 
L 3713 1100 
L 3047 1100 
L 3047 0 
L 2419 0 
L 2419 1100 
L 313 1100 
L 313 1709 
L 2253 4666 
z
" transform="scale(0.015625)"/>
       </defs>
       <use xlink:href="#DejaVuSans-34"/>
       <use xlink:href="#DejaVuSans-30" x="63.623047"/>
      </g>
     </g>
    </g>
    <g id="xtick_4">
     <g id="line2d_4">
      <g>
       <use xlink:href="#m456f769094" x="320.496126" y="388.48" style="stroke: #000000; stroke-width: 0.8"/>
      </g>
     </g>
     <g id="text_4">
      <!-- 60 -->
      <g transform="translate(314.133626 403.078437) scale(0.1 -0.1)">
       <defs>
        <path id="DejaVuSans-36" d="M 2113 2584 
Q 1688 2584 1439 2293 
Q 1191 2003 1191 1497 
Q 1191 994 1439 701 
Q 1688 409 2113 409 
Q 2538 409 2786 701 
Q 3034 994 3034 1497 
Q 3034 2003 2786 2293 
Q 2538 2584 2113 2584 
z
M 3366 4563 
L 3366 3988 
Q 3128 4100 2886 4159 
Q 2644 4219 2406 4219 
Q 1781 4219 1451 3797 
Q 1122 3375 1075 2522 
Q 1259 2794 1537 2939 
Q 1816 3084 2150 3084 
Q 2853 3084 3261 2657 
Q 3669 2231 3669 1497 
Q 3669 778 3244 343 
Q 2819 -91 2113 -91 
Q 1303 -91 875 529 
Q 447 1150 447 2328 
Q 447 3434 972 4092 
Q 1497 4750 2381 4750 
Q 2619 4750 2861 4703 
Q 3103 4656 3366 4563 
z
" transform="scale(0.015625)"/>
       </defs>
       <use xlink:href="#DejaVuSans-36"/>
       <use xlink:href="#DejaVuSans-30" x="63.623047"/>
      </g>
     </g>
    </g>
    <g id="xtick_5">
     <g id="line2d_5">
      <g>
       <use xlink:href="#m456f769094" x="400.049512" y="388.48" style="stroke: #000000; stroke-width: 0.8"/>
      </g>
     </g>
     <g id="text_5">
      <!-- 80 -->
      <g transform="translate(393.687012 403.078437) scale(0.1 -0.1)">
       <defs>
        <path id="DejaVuSans-38" d="M 2034 2216 
Q 1584 2216 1326 1975 
Q 1069 1734 1069 1313 
Q 1069 891 1326 650 
Q 1584 409 2034 409 
Q 2484 409 2743 651 
Q 3003 894 3003 1313 
Q 3003 1734 2745 1975 
Q 2488 2216 2034 2216 
z
M 1403 2484 
Q 997 2584 770 2862 
Q 544 3141 544 3541 
Q 544 4100 942 4425 
Q 1341 4750 2034 4750 
Q 2731 4750 3128 4425 
Q 3525 4100 3525 3541 
Q 3525 3141 3298 2862 
Q 3072 2584 2669 2484 
Q 3125 2378 3379 2068 
Q 3634 1759 3634 1313 
Q 3634 634 3220 271 
Q 2806 -91 2034 -91 
Q 1263 -91 848 271 
Q 434 634 434 1313 
Q 434 1759 690 2068 
Q 947 2378 1403 2484 
z
M 1172 3481 
Q 1172 3119 1398 2916 
Q 1625 2713 2034 2713 
Q 2441 2713 2670 2916 
Q 2900 3119 2900 3481 
Q 2900 3844 2670 4047 
Q 2441 4250 2034 4250 
Q 1625 4250 1398 4047 
Q 1172 3844 1172 3481 
z
" transform="scale(0.015625)"/>
       </defs>
       <use xlink:href="#DejaVuSans-38"/>
       <use xlink:href="#DejaVuSans-30" x="63.623047"/>
      </g>
     </g>
    </g>
    <g id="xtick_6">
     <g id="line2d_6">
      <g>
       <use xlink:href="#m456f769094" x="479.602898" y="388.48" style="stroke: #000000; stroke-width: 0.8"/>
      </g>
     </g>
     <g id="text_6">
      <!-- 100 -->
      <g transform="translate(470.059148 403.078437) scale(0.1 -0.1)">
       <defs>
        <path id="DejaVuSans-31" d="M 794 531 
L 1825 531 
L 1825 4091 
L 703 3866 
L 703 4441 
L 1819 4666 
L 2450 4666 
L 2450 531 
L 3481 531 
L 3481 0 
L 794 0 
L 794 531 
z
" transform="scale(0.015625)"/>
       </defs>
       <use xlink:href="#DejaVuSans-31"/>
       <use xlink:href="#DejaVuSans-30" x="63.623047"/>
       <use xlink:href="#DejaVuSans-30" x="127.246094"/>
      </g>
     </g>
    </g>
    <g id="xtick_7">
     <g id="line2d_7">
      <g>
       <use xlink:href="#m456f769094" x="559.156284" y="388.48" style="stroke: #000000; stroke-width: 0.8"/>
      </g>
     </g>
     <g id="text_7">
      <!-- 120 -->
      <g transform="translate(549.612534 403.078437) scale(0.1 -0.1)">
       <use xlink:href="#DejaVuSans-31"/>
       <use xlink:href="#DejaVuSans-32" x="63.623047"/>
       <use xlink:href="#DejaVuSans-30" x="127.246094"/>
      </g>
     </g>
    </g>
    <g id="xtick_8">
     <g id="line2d_8">
      <g>
       <use xlink:href="#m456f769094" x="638.709671" y="388.48" style="stroke: #000000; stroke-width: 0.8"/>
      </g>
     </g>
     <g id="text_8">
      <!-- 140 -->
      <g transform="translate(629.165921 403.078437) scale(0.1 -0.1)">
       <use xlink:href="#DejaVuSans-31"/>
       <use xlink:href="#DejaVuSans-34" x="63.623047"/>
       <use xlink:href="#DejaVuSans-30" x="127.246094"/>
      </g>
     </g>
    </g>
    <g id="text_9">
     <!-- Epoch -->
     <g transform="translate(365.307969 417.516406) scale(0.11 -0.11)">
      <defs>
       <path id="DejaVuSans-45" d="M 628 4666 
L 3578 4666 
L 3578 4134 
L 1259 4134 
L 1259 2753 
L 3481 2753 
L 3481 2222 
L 1259 2222 
L 1259 531 
L 3634 531 
L 3634 0 
L 628 0 
L 628 4666 
z
" transform="scale(0.015625)"/>
       <path id="DejaVuSans-70" d="M 1159 525 
L 1159 -1331 
L 581 -1331 
L 581 3500 
L 1159 3500 
L 1159 2969 
Q 1341 3281 1617 3432 
Q 1894 3584 2278 3584 
Q 2916 3584 3314 3078 
Q 3713 2572 3713 1747 
Q 3713 922 3314 415 
Q 2916 -91 2278 -91 
Q 1894 -91 1617 61 
Q 1341 213 1159 525 
z
M 3116 1747 
Q 3116 2381 2855 2742 
Q 2594 3103 2138 3103 
Q 1681 3103 1420 2742 
Q 1159 2381 1159 1747 
Q 1159 1113 1420 752 
Q 1681 391 2138 391 
Q 2594 391 2855 752 
Q 3116 1113 3116 1747 
z
" transform="scale(0.015625)"/>
       <path id="DejaVuSans-6f" d="M 1959 3097 
Q 1497 3097 1228 2736 
Q 959 2375 959 1747 
Q 959 1119 1226 758 
Q 1494 397 1959 397 
Q 2419 397 2687 759 
Q 2956 1122 2956 1747 
Q 2956 2369 2687 2733 
Q 2419 3097 1959 3097 
z
M 1959 3584 
Q 2709 3584 3137 3096 
Q 3566 2609 3566 1747 
Q 3566 888 3137 398 
Q 2709 -91 1959 -91 
Q 1206 -91 779 398 
Q 353 888 353 1747 
Q 353 2609 779 3096 
Q 1206 3584 1959 3584 
z
" transform="scale(0.015625)"/>
       <path id="DejaVuSans-63" d="M 3122 3366 
L 3122 2828 
Q 2878 2963 2633 3030 
Q 2388 3097 2138 3097 
Q 1578 3097 1268 2742 
Q 959 2388 959 1747 
Q 959 1106 1268 751 
Q 1578 397 2138 397 
Q 2388 397 2633 464 
Q 2878 531 3122 666 
L 3122 134 
Q 2881 22 2623 -34 
Q 2366 -91 2075 -91 
Q 1284 -91 818 406 
Q 353 903 353 1747 
Q 353 2603 823 3093 
Q 1294 3584 2113 3584 
Q 2378 3584 2631 3529 
Q 2884 3475 3122 3366 
z
" transform="scale(0.015625)"/>
       <path id="DejaVuSans-68" d="M 3513 2113 
L 3513 0 
L 2938 0 
L 2938 2094 
Q 2938 2591 2744 2837 
Q 2550 3084 2163 3084 
Q 1697 3084 1428 2787 
Q 1159 2491 1159 1978 
L 1159 0 
L 581 0 
L 581 4863 
L 1159 4863 
L 1159 2956 
Q 1366 3272 1645 3428 
Q 1925 3584 2291 3584 
Q 2894 3584 3203 3211 
Q 3513 2838 3513 2113 
z
" transform="scale(0.015625)"/>
      </defs>
      <use xlink:href="#DejaVuSans-45"/>
      <use xlink:href="#DejaVuSans-70" x="63.183594"/>
      <use xlink:href="#DejaVuSans-6f" x="126.660156"/>
      <use xlink:href="#DejaVuSans-63" x="187.841797"/>
      <use xlink:href="#DejaVuSans-68" x="242.822266"/>
     </g>
    </g>
   </g>
   <g id="matplotlib.axis_2">
    <g id="ytick_1">
     <g id="line2d_9">
      <path d="M 56.18 374.359991 
L 708.12 374.359991 
" clip-path="url(#pe18ce228fe)" style="fill: none; stroke-dasharray: 0.6,0.99; stroke-dashoffset: 0; stroke: #b0b0b0; stroke-opacity: 0.6; stroke-width: 0.6"/>
     </g>
     <g id="line2d_10">
      <defs>
       <path id="mb6c87098ab" d="M 0 0 
L -3.5 0 
" style="stroke: #000000; stroke-width: 0.8"/>
      </defs>
      <g>
       <use xlink:href="#mb6c87098ab" x="56.18" y="374.359991" style="stroke: #000000; stroke-width: 0.8"/>
      </g>
     </g>
     <g id="text_10">
      <!-- 20% -->
      <g transform="translate(26.953438 378.15921) scale(0.1 -0.1)">
       <defs>
        <path id="DejaVuSans-25" d="M 4653 2053 
Q 4381 2053 4226 1822 
Q 4072 1591 4072 1178 
Q 4072 772 4226 539 
Q 4381 306 4653 306 
Q 4919 306 5073 539 
Q 5228 772 5228 1178 
Q 5228 1588 5073 1820 
Q 4919 2053 4653 2053 
z
M 4653 2450 
Q 5147 2450 5437 2106 
Q 5728 1763 5728 1178 
Q 5728 594 5436 251 
Q 5144 -91 4653 -91 
Q 4153 -91 3862 251 
Q 3572 594 3572 1178 
Q 3572 1766 3864 2108 
Q 4156 2450 4653 2450 
z
M 1428 4353 
Q 1159 4353 1004 4120 
Q 850 3888 850 3481 
Q 850 3069 1003 2837 
Q 1156 2606 1428 2606 
Q 1700 2606 1854 2837 
Q 2009 3069 2009 3481 
Q 2009 3884 1853 4118 
Q 1697 4353 1428 4353 
z
M 4250 4750 
L 4750 4750 
L 1831 -91 
L 1331 -91 
L 4250 4750 
z
M 1428 4750 
Q 1922 4750 2215 4408 
Q 2509 4066 2509 3481 
Q 2509 2891 2217 2550 
Q 1925 2209 1428 2209 
Q 931 2209 642 2551 
Q 353 2894 353 3481 
Q 353 4063 643 4406 
Q 934 4750 1428 4750 
z
" transform="scale(0.015625)"/>
       </defs>
       <use xlink:href="#DejaVuSans-32"/>
       <use xlink:href="#DejaVuSans-30" x="63.623047"/>
       <use xlink:href="#DejaVuSans-25" x="127.246094"/>
      </g>
     </g>
    </g>
    <g id="ytick_2">
     <g id="line2d_11">
      <path d="M 56.18 307.249682 
L 708.12 307.249682 
" clip-path="url(#pe18ce228fe)" style="fill: none; stroke-dasharray: 0.6,0.99; stroke-dashoffset: 0; stroke: #b0b0b0; stroke-opacity: 0.6; stroke-width: 0.6"/>
     </g>
     <g id="line2d_12">
      <g>
       <use xlink:href="#mb6c87098ab" x="56.18" y="307.249682" style="stroke: #000000; stroke-width: 0.8"/>
      </g>
     </g>
     <g id="text_11">
      <!-- 30% -->
      <g transform="translate(26.953438 311.048901) scale(0.1 -0.1)">
       <defs>
        <path id="DejaVuSans-33" d="M 2597 2516 
Q 3050 2419 3304 2112 
Q 3559 1806 3559 1356 
Q 3559 666 3084 287 
Q 2609 -91 1734 -91 
Q 1441 -91 1130 -33 
Q 819 25 488 141 
L 488 750 
Q 750 597 1062 519 
Q 1375 441 1716 441 
Q 2309 441 2620 675 
Q 2931 909 2931 1356 
Q 2931 1769 2642 2001 
Q 2353 2234 1838 2234 
L 1294 2234 
L 1294 2753 
L 1863 2753 
Q 2328 2753 2575 2939 
Q 2822 3125 2822 3475 
Q 2822 3834 2567 4026 
Q 2313 4219 1838 4219 
Q 1578 4219 1281 4162 
Q 984 4106 628 3988 
L 628 4550 
Q 988 4650 1302 4700 
Q 1616 4750 1894 4750 
Q 2613 4750 3031 4423 
Q 3450 4097 3450 3541 
Q 3450 3153 3228 2886 
Q 3006 2619 2597 2516 
z
" transform="scale(0.015625)"/>
       </defs>
       <use xlink:href="#DejaVuSans-33"/>
       <use xlink:href="#DejaVuSans-30" x="63.623047"/>
       <use xlink:href="#DejaVuSans-25" x="127.246094"/>
      </g>
     </g>
    </g>
    <g id="ytick_3">
     <g id="line2d_13">
      <path d="M 56.18 240.139373 
L 708.12 240.139373 
" clip-path="url(#pe18ce228fe)" style="fill: none; stroke-dasharray: 0.6,0.99; stroke-dashoffset: 0; stroke: #b0b0b0; stroke-opacity: 0.6; stroke-width: 0.6"/>
     </g>
     <g id="line2d_14">
      <g>
       <use xlink:href="#mb6c87098ab" x="56.18" y="240.139373" style="stroke: #000000; stroke-width: 0.8"/>
      </g>
     </g>
     <g id="text_12">
      <!-- 40% -->
      <g transform="translate(26.953438 243.938592) scale(0.1 -0.1)">
       <use xlink:href="#DejaVuSans-34"/>
       <use xlink:href="#DejaVuSans-30" x="63.623047"/>
       <use xlink:href="#DejaVuSans-25" x="127.246094"/>
      </g>
     </g>
    </g>
    <g id="ytick_4">
     <g id="line2d_15">
      <path d="M 56.18 173.029064 
L 708.12 173.029064 
" clip-path="url(#pe18ce228fe)" style="fill: none; stroke-dasharray: 0.6,0.99; stroke-dashoffset: 0; stroke: #b0b0b0; stroke-opacity: 0.6; stroke-width: 0.6"/>
     </g>
     <g id="line2d_16">
      <g>
       <use xlink:href="#mb6c87098ab" x="56.18" y="173.029064" style="stroke: #000000; stroke-width: 0.8"/>
      </g>
     </g>
     <g id="text_13">
      <!-- 50% -->
      <g transform="translate(26.953438 176.828283) scale(0.1 -0.1)">
       <defs>
        <path id="DejaVuSans-35" d="M 691 4666 
L 3169 4666 
L 3169 4134 
L 1269 4134 
L 1269 2991 
Q 1406 3038 1543 3061 
Q 1681 3084 1819 3084 
Q 2600 3084 3056 2656 
Q 3513 2228 3513 1497 
Q 3513 744 3044 326 
Q 2575 -91 1722 -91 
Q 1428 -91 1123 -41 
Q 819 9 494 109 
L 494 744 
Q 775 591 1075 516 
Q 1375 441 1709 441 
Q 2250 441 2565 725 
Q 2881 1009 2881 1497 
Q 2881 1984 2565 2268 
Q 2250 2553 1709 2553 
Q 1456 2553 1204 2497 
Q 953 2441 691 2322 
L 691 4666 
z
" transform="scale(0.015625)"/>
       </defs>
       <use xlink:href="#DejaVuSans-35"/>
       <use xlink:href="#DejaVuSans-30" x="63.623047"/>
       <use xlink:href="#DejaVuSans-25" x="127.246094"/>
      </g>
     </g>
    </g>
    <g id="ytick_5">
     <g id="line2d_17">
      <path d="M 56.18 105.918755 
L 708.12 105.918755 
" clip-path="url(#pe18ce228fe)" style="fill: none; stroke-dasharray: 0.6,0.99; stroke-dashoffset: 0; stroke: #b0b0b0; stroke-opacity: 0.6; stroke-width: 0.6"/>
     </g>
     <g id="line2d_18">
      <g>
       <use xlink:href="#mb6c87098ab" x="56.18" y="105.918755" style="stroke: #000000; stroke-width: 0.8"/>
      </g>
     </g>
     <g id="text_14">
      <!-- 60% -->
      <g transform="translate(26.953438 109.717974) scale(0.1 -0.1)">
       <use xlink:href="#DejaVuSans-36"/>
       <use xlink:href="#DejaVuSans-30" x="63.623047"/>
       <use xlink:href="#DejaVuSans-25" x="127.246094"/>
      </g>
     </g>
    </g>
    <g id="ytick_6">
     <g id="line2d_19">
      <path d="M 56.18 38.808446 
L 708.12 38.808446 
" clip-path="url(#pe18ce228fe)" style="fill: none; stroke-dasharray: 0.6,0.99; stroke-dashoffset: 0; stroke: #b0b0b0; stroke-opacity: 0.6; stroke-width: 0.6"/>
     </g>
     <g id="line2d_20">
      <g>
       <use xlink:href="#mb6c87098ab" x="56.18" y="38.808446" style="stroke: #000000; stroke-width: 0.8"/>
      </g>
     </g>
     <g id="text_15">
      <!-- 70% -->
      <g transform="translate(26.953438 42.607664) scale(0.1 -0.1)">
       <defs>
        <path id="DejaVuSans-37" d="M 525 4666 
L 3525 4666 
L 3525 4397 
L 1831 0 
L 1172 0 
L 2766 4134 
L 525 4134 
L 525 4666 
z
" transform="scale(0.015625)"/>
       </defs>
       <use xlink:href="#DejaVuSans-37"/>
       <use xlink:href="#DejaVuSans-30" x="63.623047"/>
       <use xlink:href="#DejaVuSans-25" x="127.246094"/>
      </g>
     </g>
    </g>
    <g id="text_16">
     <!-- mAP50-95 (validation) -->
     <g transform="translate(20.665781 271.516406) rotate(-90) scale(0.11 -0.11)">
      <defs>
       <path id="DejaVuSans-6d" d="M 3328 2828 
Q 3544 3216 3844 3400 
Q 4144 3584 4550 3584 
Q 5097 3584 5394 3201 
Q 5691 2819 5691 2113 
L 5691 0 
L 5113 0 
L 5113 2094 
Q 5113 2597 4934 2840 
Q 4756 3084 4391 3084 
Q 3944 3084 3684 2787 
Q 3425 2491 3425 1978 
L 3425 0 
L 2847 0 
L 2847 2094 
Q 2847 2600 2669 2842 
Q 2491 3084 2119 3084 
Q 1678 3084 1418 2786 
Q 1159 2488 1159 1978 
L 1159 0 
L 581 0 
L 581 3500 
L 1159 3500 
L 1159 2956 
Q 1356 3278 1631 3431 
Q 1906 3584 2284 3584 
Q 2666 3584 2933 3390 
Q 3200 3197 3328 2828 
z
" transform="scale(0.015625)"/>
       <path id="DejaVuSans-41" d="M 2188 4044 
L 1331 1722 
L 3047 1722 
L 2188 4044 
z
M 1831 4666 
L 2547 4666 
L 4325 0 
L 3669 0 
L 3244 1197 
L 1141 1197 
L 716 0 
L 50 0 
L 1831 4666 
z
" transform="scale(0.015625)"/>
       <path id="DejaVuSans-50" d="M 1259 4147 
L 1259 2394 
L 2053 2394 
Q 2494 2394 2734 2622 
Q 2975 2850 2975 3272 
Q 2975 3691 2734 3919 
Q 2494 4147 2053 4147 
L 1259 4147 
z
M 628 4666 
L 2053 4666 
Q 2838 4666 3239 4311 
Q 3641 3956 3641 3272 
Q 3641 2581 3239 2228 
Q 2838 1875 2053 1875 
L 1259 1875 
L 1259 0 
L 628 0 
L 628 4666 
z
" transform="scale(0.015625)"/>
       <path id="DejaVuSans-2d" d="M 313 2009 
L 1997 2009 
L 1997 1497 
L 313 1497 
L 313 2009 
z
" transform="scale(0.015625)"/>
       <path id="DejaVuSans-39" d="M 703 97 
L 703 672 
Q 941 559 1184 500 
Q 1428 441 1663 441 
Q 2288 441 2617 861 
Q 2947 1281 2994 2138 
Q 2813 1869 2534 1725 
Q 2256 1581 1919 1581 
Q 1219 1581 811 2004 
Q 403 2428 403 3163 
Q 403 3881 828 4315 
Q 1253 4750 1959 4750 
Q 2769 4750 3195 4129 
Q 3622 3509 3622 2328 
Q 3622 1225 3098 567 
Q 2575 -91 1691 -91 
Q 1453 -91 1209 -44 
Q 966 3 703 97 
z
M 1959 2075 
Q 2384 2075 2632 2365 
Q 2881 2656 2881 3163 
Q 2881 3666 2632 3958 
Q 2384 4250 1959 4250 
Q 1534 4250 1286 3958 
Q 1038 3666 1038 3163 
Q 1038 2656 1286 2365 
Q 1534 2075 1959 2075 
z
" transform="scale(0.015625)"/>
       <path id="DejaVuSans-20" transform="scale(0.015625)"/>
       <path id="DejaVuSans-28" d="M 1984 4856 
Q 1566 4138 1362 3434 
Q 1159 2731 1159 2009 
Q 1159 1288 1364 580 
Q 1569 -128 1984 -844 
L 1484 -844 
Q 1016 -109 783 600 
Q 550 1309 550 2009 
Q 550 2706 781 3412 
Q 1013 4119 1484 4856 
L 1984 4856 
z
" transform="scale(0.015625)"/>
       <path id="DejaVuSans-76" d="M 191 3500 
L 800 3500 
L 1894 563 
L 2988 3500 
L 3597 3500 
L 2284 0 
L 1503 0 
L 191 3500 
z
" transform="scale(0.015625)"/>
       <path id="DejaVuSans-61" d="M 2194 1759 
Q 1497 1759 1228 1600 
Q 959 1441 959 1056 
Q 959 750 1161 570 
Q 1363 391 1709 391 
Q 2188 391 2477 730 
Q 2766 1069 2766 1631 
L 2766 1759 
L 2194 1759 
z
M 3341 1997 
L 3341 0 
L 2766 0 
L 2766 531 
Q 2569 213 2275 61 
Q 1981 -91 1556 -91 
Q 1019 -91 701 211 
Q 384 513 384 1019 
Q 384 1609 779 1909 
Q 1175 2209 1959 2209 
L 2766 2209 
L 2766 2266 
Q 2766 2663 2505 2880 
Q 2244 3097 1772 3097 
Q 1472 3097 1187 3025 
Q 903 2953 641 2809 
L 641 3341 
Q 956 3463 1253 3523 
Q 1550 3584 1831 3584 
Q 2591 3584 2966 3190 
Q 3341 2797 3341 1997 
z
" transform="scale(0.015625)"/>
       <path id="DejaVuSans-6c" d="M 603 4863 
L 1178 4863 
L 1178 0 
L 603 0 
L 603 4863 
z
" transform="scale(0.015625)"/>
       <path id="DejaVuSans-69" d="M 603 3500 
L 1178 3500 
L 1178 0 
L 603 0 
L 603 3500 
z
M 603 4863 
L 1178 4863 
L 1178 4134 
L 603 4134 
L 603 4863 
z
" transform="scale(0.015625)"/>
       <path id="DejaVuSans-64" d="M 2906 2969 
L 2906 4863 
L 3481 4863 
L 3481 0 
L 2906 0 
L 2906 525 
Q 2725 213 2448 61 
Q 2172 -91 1784 -91 
Q 1150 -91 751 415 
Q 353 922 353 1747 
Q 353 2572 751 3078 
Q 1150 3584 1784 3584 
Q 2172 3584 2448 3432 
Q 2725 3281 2906 2969 
z
M 947 1747 
Q 947 1113 1208 752 
Q 1469 391 1925 391 
Q 2381 391 2643 752 
Q 2906 1113 2906 1747 
Q 2906 2381 2643 2742 
Q 2381 3103 1925 3103 
Q 1469 3103 1208 2742 
Q 947 2381 947 1747 
z
" transform="scale(0.015625)"/>
       <path id="DejaVuSans-74" d="M 1172 4494 
L 1172 3500 
L 2356 3500 
L 2356 3053 
L 1172 3053 
L 1172 1153 
Q 1172 725 1289 603 
Q 1406 481 1766 481 
L 2356 481 
L 2356 0 
L 1766 0 
Q 1100 0 847 248 
Q 594 497 594 1153 
L 594 3053 
L 172 3053 
L 172 3500 
L 594 3500 
L 594 4494 
L 1172 4494 
z
" transform="scale(0.015625)"/>
       <path id="DejaVuSans-6e" d="M 3513 2113 
L 3513 0 
L 2938 0 
L 2938 2094 
Q 2938 2591 2744 2837 
Q 2550 3084 2163 3084 
Q 1697 3084 1428 2787 
Q 1159 2491 1159 1978 
L 1159 0 
L 581 0 
L 581 3500 
L 1159 3500 
L 1159 2956 
Q 1366 3272 1645 3428 
Q 1925 3584 2291 3584 
Q 2894 3584 3203 3211 
Q 3513 2838 3513 2113 
z
" transform="scale(0.015625)"/>
       <path id="DejaVuSans-29" d="M 513 4856 
L 1013 4856 
Q 1481 4119 1714 3412 
Q 1947 2706 1947 2009 
Q 1947 1309 1714 600 
Q 1481 -109 1013 -844 
L 513 -844 
Q 928 -128 1133 580 
Q 1338 1288 1338 2009 
Q 1338 2731 1133 3434 
Q 928 4138 513 4856 
z
" transform="scale(0.015625)"/>
      </defs>
      <use xlink:href="#DejaVuSans-6d"/>
      <use xlink:href="#DejaVuSans-41" x="97.412109"/>
      <use xlink:href="#DejaVuSans-50" x="165.820312"/>
      <use xlink:href="#DejaVuSans-35" x="226.123047"/>
      <use xlink:href="#DejaVuSans-30" x="289.746094"/>
      <use xlink:href="#DejaVuSans-2d" x="353.369141"/>
      <use xlink:href="#DejaVuSans-39" x="389.453125"/>
      <use xlink:href="#DejaVuSans-35" x="453.076172"/>
      <use xlink:href="#DejaVuSans-20" x="516.699219"/>
      <use xlink:href="#DejaVuSans-28" x="548.486328"/>
      <use xlink:href="#DejaVuSans-76" x="587.5"/>
      <use xlink:href="#DejaVuSans-61" x="646.679688"/>
      <use xlink:href="#DejaVuSans-6c" x="707.958984"/>
      <use xlink:href="#DejaVuSans-69" x="735.742188"/>
      <use xlink:href="#DejaVuSans-64" x="763.525391"/>
      <use xlink:href="#DejaVuSans-61" x="827.001953"/>
      <use xlink:href="#DejaVuSans-74" x="888.28125"/>
      <use xlink:href="#DejaVuSans-69" x="927.490234"/>
      <use xlink:href="#DejaVuSans-6f" x="955.273438"/>
      <use xlink:href="#DejaVuSans-6e" x="1016.455078"/>
      <use xlink:href="#DejaVuSans-29" x="1079.833984"/>
     </g>
    </g>
   </g>
   <g id="line2d_21">
    <path d="M 85.813636 103.328297 
L 89.791306 179.417965 
L 93.768975 190.484455 
L 97.746644 209.765247 
L 101.724314 155.788425 
L 105.701983 179.156235 
L 109.679652 117.757013 
L 113.657322 131.548182 
L 117.634991 98.409111 
L 121.61266 119.783745 
L 125.590329 100.261356 
L 129.567999 102.50284 
L 133.545668 109.475601 
L 137.523337 110.804385 
L 141.501007 83.356269 
L 145.478676 86.711784 
L 149.456345 94.75831 
L 153.434015 83.16836 
L 157.411684 100.147268 
L 161.389353 89.865969 
L 165.367023 89.597528 
L 169.344692 96.764909 
L 173.322361 103.341719 
L 177.300031 114.253855 
L 181.2777 101.744494 
L 185.255369 97.10046 
L 189.233038 88.825759 
L 193.210708 87.939903 
L 197.188377 99.422477 
L 201.166046 112.623075 
L 205.143716 109.341381 
L 209.121385 99.086925 
L 213.099054 92.657758 
L 217.076724 101.321699 
L 221.054393 96.583711 
L 225.032062 100.02647 
L 229.009732 92.624203 
L 232.987401 92.859089 
L 236.96507 93.221484 
L 240.942739 88.235188 
L 244.920409 87.2688 
L 248.898078 89.074067 
L 252.875747 92.751712 
L 256.853417 94.093918 
L 260.831086 95.872342 
L 264.808755 97.697742 
L 268.786425 99.456032 
L 272.764094 100.039892 
L 276.741763 97.073616 
L 280.719433 97.81854 
L 284.697102 95.858919 
L 288.674771 96.402513 
L 292.652441 95.489813 
L 296.63011 93.046998 
L 300.607779 91.288707 
L 304.585448 91.704791 
L 308.563118 91.731635 
L 312.540787 92.93291 
L 316.518456 91.349107 
L 320.496126 92.120875 
L 324.473795 92.456427 
L 328.451464 93.053709 
L 332.429134 92.892644 
L 336.406803 93.288595 
L 340.384472 93.040286 
L 344.362142 93.550325 
L 348.339811 93.899298 
L 352.31748 95.167683 
" clip-path="url(#pe18ce228fe)" style="fill: none; stroke: #f5b54e; stroke-opacity: 0.8; stroke-width: 1.2; stroke-linecap: square"/>
   </g>
   <g id="line2d_22">
    <path d="M 85.813636 167.505885 
L 89.791306 172.062675 
L 93.768975 297.585797 
L 97.746644 232.260623 
L 101.724314 190.994494 
L 105.701983 141.896591 
L 109.679652 125.588786 
L 113.657322 117.461728 
L 117.634991 104.576549 
L 121.61266 118.052299 
L 125.590329 99.945937 
L 129.567999 134.091663 
L 133.545668 107.938775 
L 137.523337 130.112021 
L 141.501007 113.690129 
L 145.478676 93.677834 
L 149.456345 103.637004 
L 153.434015 75.846625 
L 157.411684 88.349276 
L 161.389353 101.106946 
L 165.367023 81.765755 
L 169.344692 82.121439 
L 173.322361 95.825364 
L 177.300031 96.194471 
L 181.2777 94.785155 
L 185.255369 72.799817 
L 189.233038 81.53758 
L 193.210708 83.027428 
L 197.188377 83.926707 
L 201.166046 90.510228 
L 205.143716 88.047279 
L 209.121385 77.853224 
L 213.099054 85.389711 
L 217.076724 87.59764 
L 221.054393 80.920165 
L 225.032062 84.85954 
L 229.009732 86.262145 
L 232.987401 84.510566 
L 236.96507 79.631647 
L 240.942739 80.63159 
L 244.920409 84.376346 
L 248.898078 83.148227 
L 252.875747 86.101081 
L 256.853417 87.85266 
L 260.831086 86.201746 
L 264.808755 86.335967 
L 268.786425 83.664976 
L 272.764094 85.134692 
L 276.741763 86.530587 
L 280.719433 87.235245 
L 284.697102 89.335797 
L 288.674771 89.047223 
L 292.652441 87.53053 
L 296.63011 86.577564 
L 300.607779 88.282166 
L 304.585448 87.98688 
L 308.563118 87.161423 
L 312.540787 87.054047 
L 316.518456 86.268856 
L 320.496126 86.544009 
L 324.473795 86.000415 
L 328.451464 84.215281 
L 332.429134 83.517334 
L 336.406803 82.852942 
L 340.384472 82.859653 
L 344.362142 83.550889 
L 348.339811 84.047505 
L 352.31748 83.893151 
L 356.295149 83.81933 
L 360.272819 84.034083 
L 364.250488 84.611232 
L 368.228157 85.000471 
L 372.205827 84.315946 
L 376.183496 85.000471 
L 380.161165 84.973627 
L 384.138835 85.047449 
" clip-path="url(#pe18ce228fe)" style="fill: none; stroke: #f8c471; stroke-opacity: 0.8; stroke-width: 1.2; stroke-linecap: square"/>
   </g>
   <g id="line2d_23">
    <path d="M 85.813636 118.260341 
L 89.791306 179.96827 
L 93.768975 176.753686 
L 97.746644 214.905897 
L 101.724314 152.734906 
L 105.701983 150.735019 
L 109.679652 131.172364 
L 113.657322 141.185222 
L 117.634991 111.68353 
L 121.61266 102.341775 
L 125.590329 104.187309 
L 129.567999 106.905276 
L 133.545668 90.651159 
L 137.523337 87.798971 
L 141.501007 116.817469 
L 145.478676 82.38988 
L 149.456345 111.307713 
L 153.434015 103.596738 
L 157.411684 83.450223 
L 161.389353 88.564029 
L 165.367023 85.295757 
L 169.344692 74.913792 
L 173.322361 89.329086 
L 177.300031 72.189113 
L 181.2777 85.228647 
L 185.255369 90.986711 
L 189.233038 91.342396 
L 193.210708 71.497877 
L 197.188377 82.309348 
L 201.166046 90.812224 
L 205.143716 84.591099 
L 209.121385 80.10813 
L 213.099054 78.182064 
L 217.076724 87.101024 
L 221.054393 85.617886 
L 225.032062 83.785775 
L 229.009732 84.329368 
L 232.987401 77.927045 
L 236.96507 76.041245 
L 240.942739 80.222217 
L 244.920409 80.993986 
L 248.898078 81.094651 
L 252.875747 78.752502 
L 256.853417 78.967255 
L 260.831086 82.356325 
L 264.808755 78.497483 
L 268.786425 73.826605 
L 272.764094 72.10187 
L 276.741763 70.591888 
L 280.719433 73.564875 
L 284.697102 75.188944 
L 288.674771 75.457386 
L 292.652441 75.806359 
L 296.63011 75.141967 
L 300.607779 74.598374 
L 304.585448 76.376797 
L 308.563118 76.302975 
L 312.540787 76.517728 
L 316.518456 77.336474 
L 320.496126 77.470695 
L 324.473795 79.141741 
L 328.451464 80.047731 
L 332.429134 80.785944 
L 336.406803 80.926876 
L 340.384472 81.363093 
L 344.362142 81.926819 
L 348.339811 80.900032 
L 352.31748 80.23564 
L 356.295149 79.994042 
L 360.272819 79.832978 
L 364.250488 79.853111 
L 368.228157 79.577958 
L 372.205827 80.262484 
L 376.183496 79.551114 
L 380.161165 79.141741 
L 384.138835 79.302806 
L 388.116504 78.752502 
L 392.094173 78.161931 
L 396.071843 77.953889 
L 400.049512 76.537861 
L 404.027181 76.571417 
L 408.004851 75.739249 
L 411.98252 75.853336 
L 415.960189 75.269477 
L 419.937858 74.826549 
L 423.915528 75.242633 
L 427.893197 76.195599 
L 431.870866 76.417063 
L 435.848536 76.880124 
L 439.826205 77.792824 
L 443.803874 77.83309 
L 447.781544 78.121665 
L 451.759213 78.893433 
L 455.736882 79.551114 
L 459.714552 79.906799 
L 463.692221 80.17524 
L 467.66989 80.410126 
L 471.647559 81.389937 
L 475.625229 81.121496 
" clip-path="url(#pe18ce228fe)" style="fill: none; stroke: #ff8800; stroke-opacity: 0.8; stroke-width: 1.2; stroke-linecap: square"/>
   </g>
   <g id="line2d_24">
    <path d="M 85.813636 221.294798 
L 89.791306 317.161875 
L 93.768975 353.1934 
L 97.746644 335.778274 
L 101.724314 206.711728 
L 105.701983 248.682515 
L 109.679652 244.575364 
L 113.657322 216.348768 
L 117.634991 183.317074 
L 121.61266 191.62533 
L 125.590329 160.009664 
L 129.567999 178.840817 
L 133.545668 133.266206 
L 137.523337 163.230959 
L 141.501007 191.746129 
L 145.478676 132.272973 
L 149.456345 151.030305 
L 153.434015 103.529628 
L 157.411684 125.796828 
L 161.389353 95.509946 
L 165.367023 99.355367 
L 169.344692 112.992181 
L 173.322361 123.387568 
L 177.300031 90.704848 
L 181.2777 99.590253 
L 185.255369 93.375838 
L 189.233038 81.128207 
L 193.210708 63.384241 
L 197.188377 84.01395 
L 201.166046 87.087602 
L 205.143716 92.134297 
L 209.121385 84.617943 
L 213.099054 79.088053 
L 217.076724 74.96748 
L 221.054393 88.302299 
L 225.032062 65.894166 
L 229.009732 64.337207 
L 232.987401 57.632887 
L 236.96507 62.458119 
L 240.942739 67.035042 
L 244.920409 57.102716 
L 248.898078 51.438606 
L 252.875747 50.700393 
L 256.853417 55.404825 
L 260.831086 54.297505 
L 264.808755 53.841155 
L 268.786425 54.290794 
L 272.764094 52.854633 
L 276.741763 53.54587 
L 280.719433 55.679977 
L 284.697102 58.223458 
L 288.674771 59.263668 
L 292.652441 58.250302 
L 296.63011 60.793783 
L 300.607779 62.847358 
L 304.585448 63.323842 
L 308.563118 62.565495 
L 312.540787 62.807092 
L 316.518456 61.746749 
L 320.496126 62.310476 
L 324.473795 62.209811 
L 328.451464 61.954791 
L 332.429134 63.337264 
L 336.406803 60.800494 
L 340.384472 62.525229 
L 344.362142 62.370875 
L 348.339811 61.766882 
L 352.31748 61.270266 
L 356.295149 60.995114 
L 360.272819 60.605874 
L 364.250488 60.57903 
L 368.228157 59.001938 
L 372.205827 58.04226 
L 376.183496 57.438268 
L 380.161165 57.545644 
L 384.138835 57.793952 
L 388.116504 58.250302 
L 392.094173 58.028838 
L 396.071843 57.699998 
L 400.049512 57.183248 
L 404.027181 56.794009 
L 408.004851 57.478534 
L 411.98252 57.626176 
L 415.960189 58.505321 
L 419.937858 58.713363 
L 423.915528 59.4046 
L 427.893197 58.914694 
L 431.870866 58.277146 
L 435.848536 58.867717 
L 439.826205 59.505265 
L 443.803874 60.981692 
L 447.781544 61.867548 
L 451.759213 61.082357 
" clip-path="url(#pe18ce228fe)" style="fill: none; stroke: #2874a6; stroke-opacity: 0.8; stroke-width: 1.2; stroke-linecap: square"/>
   </g>
   <g id="line2d_25">
    <path d="M 85.813636 167.391798 
L 89.791306 293.505491 
L 93.768975 349.401667 
L 97.746644 294.807431 
L 101.724314 281.049817 
L 105.701983 246.508141 
L 109.679652 211.382605 
L 113.657322 224.589914 
L 117.634991 191.806528 
L 121.61266 191.578353 
L 125.590329 161.325026 
L 129.567999 184.907589 
L 133.545668 160.747877 
L 137.523337 162.84843 
L 141.501007 148.674733 
L 145.478676 150.688042 
L 149.456345 119.461615 
L 153.434015 140.681895 
L 157.411684 95.744832 
L 161.389353 109.180316 
L 165.367023 108.200505 
L 169.344692 115.374597 
L 173.322361 133.615179 
L 177.300031 111.468777 
L 181.2777 96.301848 
L 185.255369 106.375105 
L 189.233038 104.375218 
L 193.210708 114.911536 
L 197.188377 105.838222 
L 201.166046 105.120142 
L 205.143716 110.468834 
L 209.121385 100.080158 
L 213.099054 87.46342 
L 217.076724 91.530305 
L 221.054393 75.631872 
L 225.032062 62.59905 
L 229.009732 67.02162 
L 232.987401 74.470864 
L 236.96507 88.121101 
L 240.942739 82.631478 
L 244.920409 80.792655 
L 248.898078 74.37691 
L 252.875747 69.055062 
L 256.853417 68.290005 
L 260.831086 69.04164 
L 264.808755 67.598768 
L 268.786425 67.712856 
L 272.764094 67.860499 
L 276.741763 68.699377 
L 280.719433 65.464661 
L 284.697102 64.900934 
L 288.674771 62.901047 
L 292.652441 62.323898 
L 296.63011 63.44464 
L 300.607779 64.659337 
L 304.585448 63.807036 
L 308.563118 63.713081 
L 312.540787 64.317074 
L 316.518456 63.303709 
L 320.496126 63.974812 
L 324.473795 65.115687 
L 328.451464 64.780135 
L 332.429134 64.907645 
L 336.406803 65.310307 
L 340.384472 65.921011 
L 344.362142 67.001487 
L 348.339811 67.316905 
L 352.31748 67.21624 
L 356.295149 67.02162 
L 360.272819 66.605536 
L 364.250488 65.8539 
L 368.228157 66.149186 
L 372.205827 65.665991 
L 376.183496 65.994832 
L 380.161165 65.894166 
L 384.138835 66.04852 
L 388.116504 65.585459 
L 392.094173 64.793557 
L 396.071843 64.370762 
L 400.049512 63.927834 
L 404.027181 64.129165 
L 408.004851 64.592226 
L 411.98252 64.411029 
L 415.960189 64.458006 
L 419.937858 65.00831 
L 423.915528 65.665991 
L 427.893197 65.155953 
L 431.870866 65.431105 
L 435.848536 65.303596 
L 439.826205 65.337151 
L 443.803874 65.739813 
L 447.781544 66.17603 
L 451.759213 66.833711 
L 455.736882 67.41757 
L 459.714552 68.048407 
L 463.692221 68.679244 
L 467.66989 68.773199 
L 471.647559 69.175861 
L 475.625229 70.088561 
L 479.602898 69.484568 
L 483.580567 68.410803 
L 487.558237 69.182572 
L 491.535906 68.377248 
" clip-path="url(#pe18ce228fe)" style="fill: none; stroke: #3498db; stroke-opacity: 0.8; stroke-width: 1.2; stroke-linecap: square"/>
   </g>
   <g id="line2d_26">
    <path d="M 85.813636 353.39473 
L 89.791306 336.892305 
L 93.768975 372.252727 
L 97.746644 357.220018 
L 101.724314 240.723233 
L 105.701983 258.232312 
L 109.679652 202.651554 
L 113.657322 197.564593 
L 117.634991 216.342057 
L 121.61266 184.572037 
L 125.590329 200.99393 
L 129.567999 228.07965 
L 133.545668 192.115236 
L 137.523337 187.383959 
L 141.501007 135.89693 
L 145.478676 159.539892 
L 149.456345 166.593185 
L 153.434015 161.855197 
L 157.411684 152.271845 
L 161.389353 129.950956 
L 165.367023 129.615405 
L 169.344692 112.240546 
L 173.322361 121.179639 
L 177.300031 99.066792 
L 181.2777 125.508254 
L 185.255369 131.125387 
L 189.233038 117.199998 
L 193.210708 117.387907 
L 197.188377 101.78476 
L 201.166046 107.764288 
L 205.143716 109.395069 
L 209.121385 109.676932 
L 213.099054 119.273706 
L 217.076724 101.26801 
L 221.054393 95.509946 
L 225.032062 90.818935 
L 229.009732 86.268856 
L 232.987401 86.584275 
L 236.96507 77.719003 
L 240.942739 82.597922 
L 244.920409 78.141798 
L 248.898078 78.524327 
L 252.875747 79.121608 
L 256.853417 77.417007 
L 260.831086 76.752614 
L 264.808755 74.336643 
L 268.786425 79.074631 
L 272.764094 74.128601 
L 276.741763 77.994155 
L 280.719433 76.034534 
L 284.697102 76.732481 
L 288.674771 75.235921 
L 292.652441 74.853393 
L 296.63011 74.12189 
L 300.607779 71.336813 
L 304.585448 70.464379 
L 308.563118 69.075195 
L 312.540787 70.21607 
L 316.518456 70.900596 
L 320.496126 70.242915 
L 324.473795 70.692554 
L 328.451464 69.994606 
L 332.429134 70.068428 
L 336.406803 69.182572 
L 340.384472 68.853731 
L 344.362142 67.665879 
L 348.339811 66.974642 
L 352.31748 66.692779 
L 356.295149 66.773312 
L 360.272819 67.511525 
L 364.250488 68.605423 
L 368.228157 69.249682 
L 372.205827 69.383903 
L 376.183496 70.578466 
L 380.161165 70.981128 
L 384.138835 70.914018 
L 388.116504 70.887173 
L 392.094173 71.826718 
L 396.071843 71.77303 
L 400.049512 72.135425 
L 404.027181 72.330045 
L 408.004851 72.330045 
L 411.98252 72.55822 
L 415.960189 71.920672 
L 419.937858 71.806585 
L 423.915528 71.786452 
L 427.893197 70.350291 
L 431.870866 69.504701 
L 435.848536 69.779853 
L 439.826205 69.437591 
L 443.803874 69.961051 
L 447.781544 69.987895 
L 451.759213 70.497934 
L 455.736882 70.766375 
L 459.714552 71.276413 
L 463.692221 71.101926 
L 467.66989 71.967649 
L 471.647559 72.202536 
L 475.625229 71.491166 
L 479.602898 71.786452 
L 483.580567 71.135482 
L 487.558237 70.336869 
L 491.535906 69.30337 
L 495.513575 68.645689 
L 499.491245 69.638922 
L 503.468914 70.028162 
L 507.446583 69.289948 
L 511.424253 68.6524 
L 515.401922 68.773199 
L 519.379591 69.195994 
L 523.357261 69.135594 
L 527.33493 68.853731 
L 531.312599 68.934263 
L 535.290268 68.477913 
L 539.267938 68.377248 
L 543.245607 68.055118 
L 547.223276 67.511525 
L 551.200946 66.444471 
" clip-path="url(#pe18ce228fe)" style="fill: none; stroke: #1b4f72; stroke-opacity: 0.8; stroke-width: 1.2; stroke-linecap: square"/>
   </g>
   <g id="line2d_27">
    <path d="M 85.813636 83.651554 
L 89.791306 128.635594 
L 93.768975 168.754137 
L 97.746644 172.082808 
L 101.724314 111.797618 
L 105.701983 140.91007 
L 109.679652 90.087433 
L 113.657322 105.019477 
L 117.634991 77.11501 
L 121.61266 78.477349 
L 125.590329 112.247257 
L 129.567999 57.32418 
L 133.545668 82.154994 
L 137.523337 81.920108 
L 141.501007 69.068484 
L 145.478676 61.646084 
L 149.456345 62.203099 
L 153.434015 63.921123 
L 157.411684 70.263048 
L 161.389353 73.712517 
L 165.367023 65.994832 
L 169.344692 70.27647 
L 173.322361 79.571247 
L 177.300031 69.04164 
L 181.2777 67.853788 
L 185.255369 57.961728 
L 189.233038 57.840929 
L 193.210708 63.686237 
L 197.188377 62.310476 
L 201.166046 58.49861 
L 205.143716 60.068992 
L 209.121385 60.008592 
L 213.099054 56.941651 
L 217.076724 57.418134 
L 221.054393 62.042035 
L 225.032062 61.370932 
L 229.009732 57.304047 
L 232.987401 57.767108 
L 236.96507 53.888132 
L 240.942739 56.713476 
L 244.920409 54.666612 
L 248.898078 56.431613 
L 252.875747 57.049028 
L 256.853417 57.894618 
L 260.831086 57.606043 
L 264.808755 56.726898 
L 268.786425 56.156461 
L 276.741763 54.304216 
L 280.719433 54.035775 
L 284.697102 54.310927 
L 288.674771 55.10954 
L 292.652441 54.532391 
L 296.63011 54.753855 
L 300.607779 54.52568 
L 304.585448 55.022296 
L 308.563118 55.216916 
L 312.540787 55.129673 
L 316.518456 55.196783 
L 324.473795 53.646535 
L 332.429134 53.666668 
L 344.362142 54.384748 
L 348.339811 54.062619 
L 352.31748 54.076041 
L 356.295149 53.599558 
L 360.272819 53.566003 
L 364.250488 53.371383 
L 368.228157 53.961954 
L 372.205827 54.06933 
L 380.161165 52.753968 
L 388.116504 52.901611 
L 400.049512 53.15663 
L 404.027181 52.921744 
L 408.004851 52.800945 
L 411.98252 52.143264 
L 415.960189 52.290907 
L 419.937858 52.606325 
L 423.915528 52.70028 
L 435.848536 51.85469 
L 439.826205 51.995621 
L 443.803874 51.801002 
L 447.781544 52.035888 
L 455.736882 51.431895 
L 459.714552 50.418529 
L 463.692221 50.81448 
L 467.66989 50.861457 
L 471.647559 50.787636 
L 475.625229 50.539328 
L 479.602898 50.136666 
L 483.580567 50.566172 
L 487.558237 50.720526 
L 491.535906 51.20372 
L 495.513575 51.834557 
L 499.491245 51.78758 
L 503.468914 52.431838 
L 511.424253 51.962066 
L 515.401922 52.076154 
L 519.379591 51.78758 
L 523.357261 52.787523 
L 535.290268 53.049253 
L 539.267938 53.539159 
L 555.178615 53.519025 
L 559.156284 53.94182 
L 563.133954 53.847866 
L 567.111623 54.612924 
L 571.089292 55.122962 
L 575.066962 55.143095 
L 579.044631 55.767221 
L 583.0223 56.243704 
L 586.999969 55.706822 
L 590.977639 57.418134 
L 594.955308 56.47859 
L 598.932977 58.196614 
L 602.910647 59.377755 
L 606.888316 59.505265 
L 610.865985 60.444809 
L 614.843655 60.639429 
L 622.798993 59.780417 
L 626.776663 59.189847 
L 630.754332 59.518687 
L 634.732001 60.089125 
L 638.709671 60.458231 
L 642.68734 61.189734 
L 646.665009 60.545475 
L 650.642678 61.115912 
L 654.620348 60.028725 
L 658.598017 60.431387 
L 662.575686 60.277034 
L 666.553356 60.928004 
L 670.531025 61.136046 
L 674.508694 60.290456 
L 678.486364 59.968326 
L 678.486364 59.968326 
" clip-path="url(#pe18ce228fe)" style="fill: none; stroke: #27ae60; stroke-opacity: 0.8; stroke-width: 1.2; stroke-linecap: square"/>
   </g>
   <g id="line2d_28">
    <path d="M 85.813636 110.871496 
L 89.791306 125.447855 
L 93.768975 156.030023 
L 97.746644 192.350122 
L 101.724314 116.609427 
L 105.701983 149.842452 
L 109.679652 79.101475 
L 113.657322 123.199659 
L 117.634991 86.463476 
L 121.61266 101.670672 
L 125.590329 82.826097 
L 129.567999 120.79711 
L 133.545668 103.67727 
L 137.523337 92.724868 
L 141.501007 77.229098 
L 145.478676 68.336982 
L 149.456345 68.122229 
L 153.434015 79.410183 
L 157.411684 67.719567 
L 161.389353 68.404092 
L 165.367023 60.834049 
L 169.344692 60.458231 
L 173.322361 66.484737 
L 177.300031 67.900765 
L 181.2777 63.229887 
L 185.255369 69.531545 
L 189.233038 56.465168 
L 193.210708 75.021169 
L 197.188377 58.827451 
L 201.166046 53.881421 
L 205.143716 49.492407 
L 209.121385 55.552468 
L 213.099054 54.156573 
L 217.076724 56.324236 
L 221.054393 62.397719 
L 225.032062 53.492181 
L 229.009732 61.639373 
L 232.987401 61.209867 
L 236.96507 57.398001 
L 240.942739 57.45169 
L 244.920409 56.512145 
L 248.898078 52.955299 
L 252.875747 55.592734 
L 256.853417 54.216973 
L 260.831086 55.659844 
L 264.808755 56.438324 
L 268.786425 57.06245 
L 272.764094 57.90804 
L 276.741763 57.330891 
L 280.719433 58.243591 
L 284.697102 55.532335 
L 288.674771 55.56589 
L 292.652441 54.26395 
L 296.63011 55.465224 
L 300.607779 55.981974 
L 304.585448 57.807374 
L 308.563118 56.747031 
L 312.540787 56.418191 
L 316.518456 57.290625 
L 320.496126 57.71342 
L 324.473795 57.002051 
L 328.451464 55.619578 
L 332.429134 54.586079 
L 336.406803 54.565946 
L 340.384472 54.908209 
L 344.362142 55.767221 
L 348.339811 56.532278 
L 352.31748 55.706822 
L 356.295149 55.626289 
L 360.272819 54.98203 
L 364.250488 55.029007 
L 368.228157 54.740433 
L 372.205827 54.968608 
L 376.183496 54.693456 
L 380.161165 54.713589 
L 384.138835 54.948475 
L 388.116504 55.981974 
L 392.094173 55.767221 
L 396.071843 56.183305 
L 400.049512 55.706822 
L 404.027181 56.559122 
" clip-path="url(#pe18ce228fe)" style="fill: none; stroke: #2ecc71; stroke-opacity: 0.8; stroke-width: 1.2; stroke-linecap: square"/>
   </g>
   <g id="line2d_29">
    <path d="M 85.813636 122.085628 
L 89.791306 102.610217 
L 93.768975 152.157758 
L 97.746644 122.964773 
L 101.724314 106.609991 
L 105.701983 108.643433 
L 109.679652 95.174394 
L 113.657322 76.933812 
L 117.634991 106.247595 
L 121.61266 106.361683 
L 125.590329 81.839576 
L 129.567999 77.69887 
L 133.545668 76.00769 
L 137.523337 81.262427 
L 141.501007 90.483384 
L 145.478676 79.128319 
L 149.456345 77.819668 
L 153.434015 69.598656 
L 157.411684 77.296208 
L 161.389353 61.196445 
L 165.367023 61.35751 
L 169.344692 56.820853 
L 173.322361 55.653133 
L 177.300031 65.706258 
L 181.2777 71.981072 
L 185.255369 56.753742 
L 189.233038 55.505491 
L 193.210708 69.967762 
L 197.188377 61.444753 
L 201.166046 66.618958 
L 205.143716 56.874541 
L 209.121385 60.156235 
L 213.099054 61.941369 
L 217.076724 58.163059 
L 221.054393 57.659732 
L 225.032062 58.961672 
L 229.009732 53.250584 
L 232.987401 53.995509 
L 236.96507 55.753799 
L 240.942739 55.30416 
L 244.920409 53.54587 
L 248.898078 49.136722 
L 252.875747 54.351193 
L 256.853417 51.874823 
L 260.831086 52.485527 
L 264.808755 50.593016 
L 268.786425 52.123131 
L 272.764094 54.223684 
L 276.741763 54.941764 
L 280.719433 54.941764 
L 284.697102 54.243817 
L 292.652441 53.861288 
L 296.63011 53.921687 
L 300.607779 54.344482 
L 304.585448 53.445204 
L 308.563118 53.398227 
L 312.540787 52.935166 
L 320.496126 52.653303 
L 324.473795 52.747257 
L 328.451464 51.197009 
L 336.406803 49.586361 
L 340.384472 49.1233 
L 348.339811 50.29102 
L 352.31748 50.250753 
L 356.295149 50.029289 
L 364.250488 49.895069 
L 368.228157 49.593072 
L 372.205827 49.546095 
L 376.183496 48.814593 
L 380.161165 48.874992 
L 384.138835 48.324688 
L 388.116504 48.633395 
L 396.071843 48.640106 
L 400.049512 48.73406 
L 404.027181 49.089745 
L 408.004851 48.828015 
L 411.98252 48.304554 
L 415.960189 47.928737 
L 419.937858 48.109935 
L 423.915528 47.707273 
L 427.893197 48.237444 
L 431.870866 48.982369 
L 435.848536 48.968947 
L 439.826205 48.593129 
L 443.803874 48.398509 
L 447.781544 48.445486 
L 451.759213 48.130068 
L 455.736882 49.143433 
L 459.714552 49.485696 
L 467.66989 49.499118 
L 471.647559 50.056134 
L 475.625229 50.317864 
L 483.580567 50.48564 
L 487.558237 51.485583 
L 491.535906 51.156743 
L 495.513575 50.505773 
L 499.491245 50.68697 
L 503.468914 50.606438 
L 507.446583 50.848035 
L 511.424253 50.270887 
L 515.401922 50.150088 
L 519.379591 49.77427 
L 523.357261 50.062845 
L 527.33493 49.44543 
L 531.312599 50.002445 
L 535.290268 50.324575 
L 539.267938 50.42524 
L 543.245607 49.948757 
L 547.223276 49.64005 
L 555.178615 50.586305 
L 563.133954 51.237275 
L 567.111623 50.693681 
L 571.089292 50.935279 
L 575.066962 50.787636 
L 579.044631 51.431895 
L 583.0223 51.868112 
L 586.999969 51.66007 
L 590.977639 51.9218 
L 594.955308 51.861401 
L 598.932977 51.545982 
L 602.910647 51.995621 
L 606.888316 51.163454 
L 610.865985 50.787636 
L 622.798993 50.693681 
L 622.798993 50.693681 
" clip-path="url(#pe18ce228fe)" style="fill: none; stroke: #145a32; stroke-opacity: 0.8; stroke-width: 1.2; stroke-linecap: square"/>
   </g>
   <g id="line2d_30">
    <path d="M 85.813636 124.407645 
L 89.791306 163.183982 
L 93.768975 175.525567 
L 97.746644 246.722894 
L 101.724314 161.217649 
L 105.701983 180.511863 
L 109.679652 126.756506 
L 113.657322 139.259156 
L 117.634991 99.905671 
L 121.61266 125.790117 
L 125.590329 108.650144 
L 129.567999 120.568935 
L 133.545668 112.777428 
L 137.523337 136.943851 
L 141.501007 69.893941 
L 145.478676 90.308897 
L 149.456345 105.791245 
L 153.434015 104.898678 
L 157.411684 96.865574 
L 161.389353 83.933418 
L 165.367023 93.409393 
L 169.344692 90.899468 
L 173.322361 111.730508 
L 177.300031 118.589181 
L 181.2777 105.153697 
L 185.255369 86.758762 
L 189.233038 100.952592 
L 193.210708 102.408886 
L 197.188377 92.892644 
L 201.166046 103.972556 
L 205.143716 100.241223 
L 209.121385 93.046998 
L 213.099054 87.684884 
L 217.076724 92.838956 
L 221.054393 90.845779 
L 225.032062 89.349219 
L 229.009732 89.456596 
L 232.987401 91.56386 
L 236.96507 85.785662 
L 240.942739 85.980282 
L 244.920409 86.530587 
L 248.898078 86.637963 
L 252.875747 87.255378 
L 256.853417 86.262145 
L 260.831086 86.114503 
L 264.808755 85.993704 
L 268.786425 86.450054 
L 272.764094 85.523932 
L 276.741763 84.812563 
L 280.719433 84.383057 
L 284.697102 86.221879 
L 288.674771 86.215168 
L 292.652441 88.147945 
L 296.63011 87.980169 
L 300.607779 87.570796 
L 304.585448 88.033857 
L 308.563118 87.443287 
L 312.540787 87.476842 
L 316.518456 89.530417 
L 320.496126 89.530417 
L 324.473795 89.188155 
L 328.451464 89.570684 
L 332.429134 89.496862 
L 336.406803 89.55055 
L 340.384472 89.792148 
" clip-path="url(#pe18ce228fe)" style="fill: none; stroke: #888888; stroke-opacity: 0.8; stroke-width: 1.2; stroke-linecap: square"/>
   </g>
   <g id="patch_3">
    <path d="M 56.18 388.48 
L 56.18 31.48 
" style="fill: none; stroke: #333333; stroke-width: 0.8; stroke-linejoin: miter; stroke-linecap: square"/>
   </g>
   <g id="patch_4">
    <path d="M 56.18 388.48 
L 708.12 388.48 
" style="fill: none; stroke: #333333; stroke-width: 0.8; stroke-linejoin: miter; stroke-linecap: square"/>
   </g>
   <g id="text_17">
    <!-- Évolution du mAP50-95 sur le validation set -->
    <g transform="translate(239.698437 21.48) scale(0.13 -0.13)">
     <defs>
      <path id="DejaVuSans-c9" d="M 628 4666 
L 3578 4666 
L 3578 4134 
L 1259 4134 
L 1259 2753 
L 3481 2753 
L 3481 2222 
L 1259 2222 
L 1259 531 
L 3634 531 
L 3634 0 
L 628 0 
L 628 4666 
z
M 2268 5921 
L 2846 5921 
L 2134 5096 
L 1655 5096 
L 2268 5921 
z
" transform="scale(0.015625)"/>
      <path id="DejaVuSans-75" d="M 544 1381 
L 544 3500 
L 1119 3500 
L 1119 1403 
Q 1119 906 1312 657 
Q 1506 409 1894 409 
Q 2359 409 2629 706 
Q 2900 1003 2900 1516 
L 2900 3500 
L 3475 3500 
L 3475 0 
L 2900 0 
L 2900 538 
Q 2691 219 2414 64 
Q 2138 -91 1772 -91 
Q 1169 -91 856 284 
Q 544 659 544 1381 
z
M 1991 3584 
L 1991 3584 
z
" transform="scale(0.015625)"/>
      <path id="DejaVuSans-73" d="M 2834 3397 
L 2834 2853 
Q 2591 2978 2328 3040 
Q 2066 3103 1784 3103 
Q 1356 3103 1142 2972 
Q 928 2841 928 2578 
Q 928 2378 1081 2264 
Q 1234 2150 1697 2047 
L 1894 2003 
Q 2506 1872 2764 1633 
Q 3022 1394 3022 966 
Q 3022 478 2636 193 
Q 2250 -91 1575 -91 
Q 1294 -91 989 -36 
Q 684 19 347 128 
L 347 722 
Q 666 556 975 473 
Q 1284 391 1588 391 
Q 1994 391 2212 530 
Q 2431 669 2431 922 
Q 2431 1156 2273 1281 
Q 2116 1406 1581 1522 
L 1381 1569 
Q 847 1681 609 1914 
Q 372 2147 372 2553 
Q 372 3047 722 3315 
Q 1072 3584 1716 3584 
Q 2034 3584 2315 3537 
Q 2597 3491 2834 3397 
z
" transform="scale(0.015625)"/>
      <path id="DejaVuSans-72" d="M 2631 2963 
Q 2534 3019 2420 3045 
Q 2306 3072 2169 3072 
Q 1681 3072 1420 2755 
Q 1159 2438 1159 1844 
L 1159 0 
L 581 0 
L 581 3500 
L 1159 3500 
L 1159 2956 
Q 1341 3275 1631 3429 
Q 1922 3584 2338 3584 
Q 2397 3584 2469 3576 
Q 2541 3569 2628 3553 
L 2631 2963 
z
" transform="scale(0.015625)"/>
      <path id="DejaVuSans-65" d="M 3597 1894 
L 3597 1613 
L 953 1613 
Q 991 1019 1311 708 
Q 1631 397 2203 397 
Q 2534 397 2845 478 
Q 3156 559 3463 722 
L 3463 178 
Q 3153 47 2828 -22 
Q 2503 -91 2169 -91 
Q 1331 -91 842 396 
Q 353 884 353 1716 
Q 353 2575 817 3079 
Q 1281 3584 2069 3584 
Q 2775 3584 3186 3129 
Q 3597 2675 3597 1894 
z
M 3022 2063 
Q 3016 2534 2758 2815 
Q 2500 3097 2075 3097 
Q 1594 3097 1305 2825 
Q 1016 2553 972 2059 
L 3022 2063 
z
" transform="scale(0.015625)"/>
     </defs>
     <use xlink:href="#DejaVuSans-c9"/>
     <use xlink:href="#DejaVuSans-76" x="63.183594"/>
     <use xlink:href="#DejaVuSans-6f" x="122.363281"/>
     <use xlink:href="#DejaVuSans-6c" x="183.544922"/>
     <use xlink:href="#DejaVuSans-75" x="211.328125"/>
     <use xlink:href="#DejaVuSans-74" x="274.707031"/>
     <use xlink:href="#DejaVuSans-69" x="313.916016"/>
     <use xlink:href="#DejaVuSans-6f" x="341.699219"/>
     <use xlink:href="#DejaVuSans-6e" x="402.880859"/>
     <use xlink:href="#DejaVuSans-20" x="466.259766"/>
     <use xlink:href="#DejaVuSans-64" x="498.046875"/>
     <use xlink:href="#DejaVuSans-75" x="561.523438"/>
     <use xlink:href="#DejaVuSans-20" x="624.902344"/>
     <use xlink:href="#DejaVuSans-6d" x="656.689453"/>
     <use xlink:href="#DejaVuSans-41" x="754.101562"/>
     <use xlink:href="#DejaVuSans-50" x="822.509766"/>
     <use xlink:href="#DejaVuSans-35" x="882.8125"/>
     <use xlink:href="#DejaVuSans-30" x="946.435547"/>
     <use xlink:href="#DejaVuSans-2d" x="1010.058594"/>
     <use xlink:href="#DejaVuSans-39" x="1046.142578"/>
     <use xlink:href="#DejaVuSans-35" x="1109.765625"/>
     <use xlink:href="#DejaVuSans-20" x="1173.388672"/>
     <use xlink:href="#DejaVuSans-73" x="1205.175781"/>
     <use xlink:href="#DejaVuSans-75" x="1257.275391"/>
     <use xlink:href="#DejaVuSans-72" x="1320.654297"/>
     <use xlink:href="#DejaVuSans-20" x="1361.767578"/>
     <use xlink:href="#DejaVuSans-6c" x="1393.554688"/>
     <use xlink:href="#DejaVuSans-65" x="1421.337891"/>
     <use xlink:href="#DejaVuSans-20" x="1482.861328"/>
     <use xlink:href="#DejaVuSans-76" x="1514.648438"/>
     <use xlink:href="#DejaVuSans-61" x="1573.828125"/>
     <use xlink:href="#DejaVuSans-6c" x="1635.107422"/>
     <use xlink:href="#DejaVuSans-69" x="1662.890625"/>
     <use xlink:href="#DejaVuSans-64" x="1690.673828"/>
     <use xlink:href="#DejaVuSans-61" x="1754.150391"/>
     <use xlink:href="#DejaVuSans-74" x="1815.429688"/>
     <use xlink:href="#DejaVuSans-69" x="1854.638672"/>
     <use xlink:href="#DejaVuSans-6f" x="1882.421875"/>
     <use xlink:href="#DejaVuSans-6e" x="1943.603516"/>
     <use xlink:href="#DejaVuSans-20" x="2006.982422"/>
     <use xlink:href="#DejaVuSans-73" x="2038.769531"/>
     <use xlink:href="#DejaVuSans-65" x="2090.869141"/>
     <use xlink:href="#DejaVuSans-74" x="2152.392578"/>
    </g>
   </g>
   <g id="legend_1">
    <g id="line2d_31">
     <path d="M 319.357969 335.727344 
L 331.957969 335.727344 
L 344.557969 335.727344 
" style="fill: none; stroke: #f5b54e; stroke-opacity: 0.8; stroke-width: 1.2; stroke-linecap: square"/>
    </g>
    <g id="text_18">
     <!-- Light-Medium -->
     <g transform="translate(351.757969 338.877344) scale(0.09 -0.09)">
      <defs>
       <path id="DejaVuSans-4c" d="M 628 4666 
L 1259 4666 
L 1259 531 
L 3531 531 
L 3531 0 
L 628 0 
L 628 4666 
z
" transform="scale(0.015625)"/>
       <path id="DejaVuSans-67" d="M 2906 1791 
Q 2906 2416 2648 2759 
Q 2391 3103 1925 3103 
Q 1463 3103 1205 2759 
Q 947 2416 947 1791 
Q 947 1169 1205 825 
Q 1463 481 1925 481 
Q 2391 481 2648 825 
Q 2906 1169 2906 1791 
z
M 3481 434 
Q 3481 -459 3084 -895 
Q 2688 -1331 1869 -1331 
Q 1566 -1331 1297 -1286 
Q 1028 -1241 775 -1147 
L 775 -588 
Q 1028 -725 1275 -790 
Q 1522 -856 1778 -856 
Q 2344 -856 2625 -561 
Q 2906 -266 2906 331 
L 2906 616 
Q 2728 306 2450 153 
Q 2172 0 1784 0 
Q 1141 0 747 490 
Q 353 981 353 1791 
Q 353 2603 747 3093 
Q 1141 3584 1784 3584 
Q 2172 3584 2450 3431 
Q 2728 3278 2906 2969 
L 2906 3500 
L 3481 3500 
L 3481 434 
z
" transform="scale(0.015625)"/>
       <path id="DejaVuSans-4d" d="M 628 4666 
L 1569 4666 
L 2759 1491 
L 3956 4666 
L 4897 4666 
L 4897 0 
L 4281 0 
L 4281 4097 
L 3078 897 
L 2444 897 
L 1241 4097 
L 1241 0 
L 628 0 
L 628 4666 
z
" transform="scale(0.015625)"/>
      </defs>
      <use xlink:href="#DejaVuSans-4c"/>
      <use xlink:href="#DejaVuSans-69" x="55.712891"/>
      <use xlink:href="#DejaVuSans-67" x="83.496094"/>
      <use xlink:href="#DejaVuSans-68" x="146.972656"/>
      <use xlink:href="#DejaVuSans-74" x="210.351562"/>
      <use xlink:href="#DejaVuSans-2d" x="249.560547"/>
      <use xlink:href="#DejaVuSans-4d" x="285.644531"/>
      <use xlink:href="#DejaVuSans-65" x="371.923828"/>
      <use xlink:href="#DejaVuSans-64" x="433.447266"/>
      <use xlink:href="#DejaVuSans-69" x="496.923828"/>
      <use xlink:href="#DejaVuSans-75" x="524.707031"/>
      <use xlink:href="#DejaVuSans-6d" x="588.085938"/>
     </g>
    </g>
    <g id="line2d_32">
     <path d="M 319.357969 348.937656 
L 331.957969 348.937656 
L 344.557969 348.937656 
" style="fill: none; stroke: #f8c471; stroke-opacity: 0.8; stroke-width: 1.2; stroke-linecap: square"/>
    </g>
    <g id="text_19">
     <!-- Light-Small -->
     <g transform="translate(351.757969 352.087656) scale(0.09 -0.09)">
      <defs>
       <path id="DejaVuSans-53" d="M 3425 4513 
L 3425 3897 
Q 3066 4069 2747 4153 
Q 2428 4238 2131 4238 
Q 1616 4238 1336 4038 
Q 1056 3838 1056 3469 
Q 1056 3159 1242 3001 
Q 1428 2844 1947 2747 
L 2328 2669 
Q 3034 2534 3370 2195 
Q 3706 1856 3706 1288 
Q 3706 609 3251 259 
Q 2797 -91 1919 -91 
Q 1588 -91 1214 -16 
Q 841 59 441 206 
L 441 856 
Q 825 641 1194 531 
Q 1563 422 1919 422 
Q 2459 422 2753 634 
Q 3047 847 3047 1241 
Q 3047 1584 2836 1778 
Q 2625 1972 2144 2069 
L 1759 2144 
Q 1053 2284 737 2584 
Q 422 2884 422 3419 
Q 422 4038 858 4394 
Q 1294 4750 2059 4750 
Q 2388 4750 2728 4690 
Q 3069 4631 3425 4513 
z
" transform="scale(0.015625)"/>
      </defs>
      <use xlink:href="#DejaVuSans-4c"/>
      <use xlink:href="#DejaVuSans-69" x="55.712891"/>
      <use xlink:href="#DejaVuSans-67" x="83.496094"/>
      <use xlink:href="#DejaVuSans-68" x="146.972656"/>
      <use xlink:href="#DejaVuSans-74" x="210.351562"/>
      <use xlink:href="#DejaVuSans-2d" x="249.560547"/>
      <use xlink:href="#DejaVuSans-53" x="285.644531"/>
      <use xlink:href="#DejaVuSans-6d" x="349.121094"/>
      <use xlink:href="#DejaVuSans-61" x="446.533203"/>
      <use xlink:href="#DejaVuSans-6c" x="507.8125"/>
      <use xlink:href="#DejaVuSans-6c" x="535.595703"/>
     </g>
    </g>
    <g id="line2d_33">
     <path d="M 319.357969 362.147969 
L 331.957969 362.147969 
L 344.557969 362.147969 
" style="fill: none; stroke: #ff8800; stroke-opacity: 0.8; stroke-width: 1.2; stroke-linecap: square"/>
    </g>
    <g id="text_20">
     <!-- Light-Strong -->
     <g transform="translate(351.757969 365.297969) scale(0.09 -0.09)">
      <use xlink:href="#DejaVuSans-4c"/>
      <use xlink:href="#DejaVuSans-69" x="55.712891"/>
      <use xlink:href="#DejaVuSans-67" x="83.496094"/>
      <use xlink:href="#DejaVuSans-68" x="146.972656"/>
      <use xlink:href="#DejaVuSans-74" x="210.351562"/>
      <use xlink:href="#DejaVuSans-2d" x="249.560547"/>
      <use xlink:href="#DejaVuSans-53" x="285.644531"/>
      <use xlink:href="#DejaVuSans-74" x="349.121094"/>
      <use xlink:href="#DejaVuSans-72" x="388.330078"/>
      <use xlink:href="#DejaVuSans-6f" x="427.193359"/>
      <use xlink:href="#DejaVuSans-6e" x="488.375"/>
      <use xlink:href="#DejaVuSans-67" x="551.753906"/>
     </g>
    </g>
    <g id="line2d_34">
     <path d="M 319.357969 375.358281 
L 331.957969 375.358281 
L 344.557969 375.358281 
" style="fill: none; stroke: #2874a6; stroke-opacity: 0.8; stroke-width: 1.2; stroke-linecap: square"/>
    </g>
    <g id="text_21">
     <!-- Geometric-Medium -->
     <g transform="translate(351.757969 378.508281) scale(0.09 -0.09)">
      <defs>
       <path id="DejaVuSans-47" d="M 3809 666 
L 3809 1919 
L 2778 1919 
L 2778 2438 
L 4434 2438 
L 4434 434 
Q 4069 175 3628 42 
Q 3188 -91 2688 -91 
Q 1594 -91 976 548 
Q 359 1188 359 2328 
Q 359 3472 976 4111 
Q 1594 4750 2688 4750 
Q 3144 4750 3555 4637 
Q 3966 4525 4313 4306 
L 4313 3634 
Q 3963 3931 3569 4081 
Q 3175 4231 2741 4231 
Q 1884 4231 1454 3753 
Q 1025 3275 1025 2328 
Q 1025 1384 1454 906 
Q 1884 428 2741 428 
Q 3075 428 3337 486 
Q 3600 544 3809 666 
z
" transform="scale(0.015625)"/>
      </defs>
      <use xlink:href="#DejaVuSans-47"/>
      <use xlink:href="#DejaVuSans-65" x="77.490234"/>
      <use xlink:href="#DejaVuSans-6f" x="139.013672"/>
      <use xlink:href="#DejaVuSans-6d" x="200.195312"/>
      <use xlink:href="#DejaVuSans-65" x="297.607422"/>
      <use xlink:href="#DejaVuSans-74" x="359.130859"/>
      <use xlink:href="#DejaVuSans-72" x="398.339844"/>
      <use xlink:href="#DejaVuSans-69" x="439.453125"/>
      <use xlink:href="#DejaVuSans-63" x="467.236328"/>
      <use xlink:href="#DejaVuSans-2d" x="522.216797"/>
      <use xlink:href="#DejaVuSans-4d" x="558.300781"/>
      <use xlink:href="#DejaVuSans-65" x="644.580078"/>
      <use xlink:href="#DejaVuSans-64" x="706.103516"/>
      <use xlink:href="#DejaVuSans-69" x="769.580078"/>
      <use xlink:href="#DejaVuSans-75" x="797.363281"/>
      <use xlink:href="#DejaVuSans-6d" x="860.742188"/>
     </g>
    </g>
    <g id="line2d_35">
     <path d="M 455.992031 335.727344 
L 468.592031 335.727344 
L 481.192031 335.727344 
" style="fill: none; stroke: #3498db; stroke-opacity: 0.8; stroke-width: 1.2; stroke-linecap: square"/>
    </g>
    <g id="text_22">
     <!-- Geometric-Small -->
     <g transform="translate(488.392031 338.877344) scale(0.09 -0.09)">
      <use xlink:href="#DejaVuSans-47"/>
      <use xlink:href="#DejaVuSans-65" x="77.490234"/>
      <use xlink:href="#DejaVuSans-6f" x="139.013672"/>
      <use xlink:href="#DejaVuSans-6d" x="200.195312"/>
      <use xlink:href="#DejaVuSans-65" x="297.607422"/>
      <use xlink:href="#DejaVuSans-74" x="359.130859"/>
      <use xlink:href="#DejaVuSans-72" x="398.339844"/>
      <use xlink:href="#DejaVuSans-69" x="439.453125"/>
      <use xlink:href="#DejaVuSans-63" x="467.236328"/>
      <use xlink:href="#DejaVuSans-2d" x="522.216797"/>
      <use xlink:href="#DejaVuSans-53" x="558.300781"/>
      <use xlink:href="#DejaVuSans-6d" x="621.777344"/>
      <use xlink:href="#DejaVuSans-61" x="719.189453"/>
      <use xlink:href="#DejaVuSans-6c" x="780.46875"/>
      <use xlink:href="#DejaVuSans-6c" x="808.251953"/>
     </g>
    </g>
    <g id="line2d_36">
     <path d="M 455.992031 348.937656 
L 468.592031 348.937656 
L 481.192031 348.937656 
" style="fill: none; stroke: #1b4f72; stroke-opacity: 0.8; stroke-width: 1.2; stroke-linecap: square"/>
    </g>
    <g id="text_23">
     <!-- Geometric-Strong -->
     <g transform="translate(488.392031 352.087656) scale(0.09 -0.09)">
      <use xlink:href="#DejaVuSans-47"/>
      <use xlink:href="#DejaVuSans-65" x="77.490234"/>
      <use xlink:href="#DejaVuSans-6f" x="139.013672"/>
      <use xlink:href="#DejaVuSans-6d" x="200.195312"/>
      <use xlink:href="#DejaVuSans-65" x="297.607422"/>
      <use xlink:href="#DejaVuSans-74" x="359.130859"/>
      <use xlink:href="#DejaVuSans-72" x="398.339844"/>
      <use xlink:href="#DejaVuSans-69" x="439.453125"/>
      <use xlink:href="#DejaVuSans-63" x="467.236328"/>
      <use xlink:href="#DejaVuSans-2d" x="522.216797"/>
      <use xlink:href="#DejaVuSans-53" x="558.300781"/>
      <use xlink:href="#DejaVuSans-74" x="621.777344"/>
      <use xlink:href="#DejaVuSans-72" x="660.986328"/>
      <use xlink:href="#DejaVuSans-6f" x="699.849609"/>
      <use xlink:href="#DejaVuSans-6e" x="761.03125"/>
      <use xlink:href="#DejaVuSans-67" x="824.410156"/>
     </g>
    </g>
    <g id="line2d_37">
     <path d="M 455.992031 362.147969 
L 468.592031 362.147969 
L 481.192031 362.147969 
" style="fill: none; stroke: #27ae60; stroke-opacity: 0.8; stroke-width: 1.2; stroke-linecap: square"/>
    </g>
    <g id="text_24">
     <!-- Structural-Medium -->
     <g transform="translate(488.392031 365.297969) scale(0.09 -0.09)">
      <use xlink:href="#DejaVuSans-53"/>
      <use xlink:href="#DejaVuSans-74" x="63.476562"/>
      <use xlink:href="#DejaVuSans-72" x="102.685547"/>
      <use xlink:href="#DejaVuSans-75" x="143.798828"/>
      <use xlink:href="#DejaVuSans-63" x="207.177734"/>
      <use xlink:href="#DejaVuSans-74" x="262.158203"/>
      <use xlink:href="#DejaVuSans-75" x="301.367188"/>
      <use xlink:href="#DejaVuSans-72" x="364.746094"/>
      <use xlink:href="#DejaVuSans-61" x="405.859375"/>
      <use xlink:href="#DejaVuSans-6c" x="467.138672"/>
      <use xlink:href="#DejaVuSans-2d" x="494.921875"/>
      <use xlink:href="#DejaVuSans-4d" x="531.005859"/>
      <use xlink:href="#DejaVuSans-65" x="617.285156"/>
      <use xlink:href="#DejaVuSans-64" x="678.808594"/>
      <use xlink:href="#DejaVuSans-69" x="742.285156"/>
      <use xlink:href="#DejaVuSans-75" x="770.068359"/>
      <use xlink:href="#DejaVuSans-6d" x="833.447266"/>
     </g>
    </g>
    <g id="line2d_38">
     <path d="M 590.167969 335.727344 
L 602.767969 335.727344 
L 615.367969 335.727344 
" style="fill: none; stroke: #2ecc71; stroke-opacity: 0.8; stroke-width: 1.2; stroke-linecap: square"/>
    </g>
    <g id="text_25">
     <!-- Structural-Small -->
     <g transform="translate(622.567969 338.877344) scale(0.09 -0.09)">
      <use xlink:href="#DejaVuSans-53"/>
      <use xlink:href="#DejaVuSans-74" x="63.476562"/>
      <use xlink:href="#DejaVuSans-72" x="102.685547"/>
      <use xlink:href="#DejaVuSans-75" x="143.798828"/>
      <use xlink:href="#DejaVuSans-63" x="207.177734"/>
      <use xlink:href="#DejaVuSans-74" x="262.158203"/>
      <use xlink:href="#DejaVuSans-75" x="301.367188"/>
      <use xlink:href="#DejaVuSans-72" x="364.746094"/>
      <use xlink:href="#DejaVuSans-61" x="405.859375"/>
      <use xlink:href="#DejaVuSans-6c" x="467.138672"/>
      <use xlink:href="#DejaVuSans-2d" x="494.921875"/>
      <use xlink:href="#DejaVuSans-53" x="531.005859"/>
      <use xlink:href="#DejaVuSans-6d" x="594.482422"/>
      <use xlink:href="#DejaVuSans-61" x="691.894531"/>
      <use xlink:href="#DejaVuSans-6c" x="753.173828"/>
      <use xlink:href="#DejaVuSans-6c" x="780.957031"/>
     </g>
    </g>
    <g id="line2d_39">
     <path d="M 590.167969 348.937656 
L 602.767969 348.937656 
L 615.367969 348.937656 
" style="fill: none; stroke: #145a32; stroke-opacity: 0.8; stroke-width: 1.2; stroke-linecap: square"/>
    </g>
    <g id="text_26">
     <!-- Structural-Strong -->
     <g transform="translate(622.567969 352.087656) scale(0.09 -0.09)">
      <use xlink:href="#DejaVuSans-53"/>
      <use xlink:href="#DejaVuSans-74" x="63.476562"/>
      <use xlink:href="#DejaVuSans-72" x="102.685547"/>
      <use xlink:href="#DejaVuSans-75" x="143.798828"/>
      <use xlink:href="#DejaVuSans-63" x="207.177734"/>
      <use xlink:href="#DejaVuSans-74" x="262.158203"/>
      <use xlink:href="#DejaVuSans-75" x="301.367188"/>
      <use xlink:href="#DejaVuSans-72" x="364.746094"/>
      <use xlink:href="#DejaVuSans-61" x="405.859375"/>
      <use xlink:href="#DejaVuSans-6c" x="467.138672"/>
      <use xlink:href="#DejaVuSans-2d" x="494.921875"/>
      <use xlink:href="#DejaVuSans-53" x="531.005859"/>
      <use xlink:href="#DejaVuSans-74" x="594.482422"/>
      <use xlink:href="#DejaVuSans-72" x="633.691406"/>
      <use xlink:href="#DejaVuSans-6f" x="672.554688"/>
      <use xlink:href="#DejaVuSans-6e" x="733.736328"/>
      <use xlink:href="#DejaVuSans-67" x="797.115234"/>
     </g>
    </g>
    <g id="line2d_40">
     <path d="M 590.167969 362.147969 
L 602.767969 362.147969 
L 615.367969 362.147969 
" style="fill: none; stroke: #888888; stroke-opacity: 0.8; stroke-width: 1.2; stroke-linecap: square"/>
    </g>
    <g id="text_27">
     <!-- Baseline-None -->
     <g transform="translate(622.567969 365.297969) scale(0.09 -0.09)">
      <defs>
       <path id="DejaVuSans-42" d="M 1259 2228 
L 1259 519 
L 2272 519 
Q 2781 519 3026 730 
Q 3272 941 3272 1375 
Q 3272 1813 3026 2020 
Q 2781 2228 2272 2228 
L 1259 2228 
z
M 1259 4147 
L 1259 2741 
L 2194 2741 
Q 2656 2741 2882 2914 
Q 3109 3088 3109 3444 
Q 3109 3797 2882 3972 
Q 2656 4147 2194 4147 
L 1259 4147 
z
M 628 4666 
L 2241 4666 
Q 2963 4666 3353 4366 
Q 3744 4066 3744 3513 
Q 3744 3084 3544 2831 
Q 3344 2578 2956 2516 
Q 3422 2416 3680 2098 
Q 3938 1781 3938 1306 
Q 3938 681 3513 340 
Q 3088 0 2303 0 
L 628 0 
L 628 4666 
z
" transform="scale(0.015625)"/>
       <path id="DejaVuSans-4e" d="M 628 4666 
L 1478 4666 
L 3547 763 
L 3547 4666 
L 4159 4666 
L 4159 0 
L 3309 0 
L 1241 3903 
L 1241 0 
L 628 0 
L 628 4666 
z
" transform="scale(0.015625)"/>
      </defs>
      <use xlink:href="#DejaVuSans-42"/>
      <use xlink:href="#DejaVuSans-61" x="68.603516"/>
      <use xlink:href="#DejaVuSans-73" x="129.882812"/>
      <use xlink:href="#DejaVuSans-65" x="181.982422"/>
      <use xlink:href="#DejaVuSans-6c" x="243.505859"/>
      <use xlink:href="#DejaVuSans-69" x="271.289062"/>
      <use xlink:href="#DejaVuSans-6e" x="299.072266"/>
      <use xlink:href="#DejaVuSans-65" x="362.451172"/>
      <use xlink:href="#DejaVuSans-2d" x="423.974609"/>
      <use xlink:href="#DejaVuSans-4e" x="460.058594"/>
      <use xlink:href="#DejaVuSans-6f" x="534.863281"/>
      <use xlink:href="#DejaVuSans-6e" x="596.044922"/>
      <use xlink:href="#DejaVuSans-65" x="659.423828"/>
     </g>
    </g>
   </g>
  </g>
 </g>
 <defs>
  <clipPath id="pe18ce228fe">
   <rect x="56.18" y="31.48" width="651.94" height="357"/>
  </clipPath>
 </defs>
</svg>
