<?xml version="1.0" encoding="utf-8" standalone="no"?>
<!DOCTYPE svg PUBLIC "-//W3C//DTD SVG 1.1//EN"
  "http://www.w3.org/Graphics/SVG/1.1/DTD/svg11.dtd">
<svg xmlns:xlink="http://www.w3.org/1999/xlink" width="720pt" height="432pt" viewBox="0 0 720 432" xmlns="http://www.w3.org/2000/svg" version="1.1">
 <metadata>
  <rdf:RDF xmlns:dc="http://purl.org/dc/elements/1.1/" xmlns:cc="http://creativecommons.org/ns#" xmlns:rdf="http://www.w3.org/1999/02/22-rdf-syntax-ns#">
   <cc:Work>
    <dc:type rdf:resource="http://purl.org/dc/dcmitype/StillImage"/>
    <dc:date>2026-01-02T11:07:03.492194</dc:date>
    <dc:format>image/svg+xml</dc:format>
    <dc:creator>
     <cc:Agent>
      <dc:title>Matplotlib v3.8.4, https://matplotlib.org/</dc:title>
     </cc:Agent>
    </dc:creator>
   </cc:Work>
  </rdf:RDF>
 </metadata>
 <defs>
  <style type="text/css">*{stroke-linejoin: round; stroke-linecap: butt}</style>
 </defs>
 <g id="figure_1">
  <g id="patch_1">
   <path d="M 0 432 
L 720 432 
L 720 0 
L 0 0 
z
" style="fill: #ffffff"/>
  </g>
  <g id="axes_1">
   <g id="patch_2">
    <path d="M 56.18 388.48 
L 708.12 388.48 
L 708.12 31.48 
L 56.18 31.48 
z
" style="fill: #ffffff"/>
   </g>
   <g id="matplotlib.axis_1">
    <g id="xtick_1">
     <g id="line2d_1">
      <defs>
       <path id="m1ddf8b2f3b" d="M 0 0 
L 0 3.5 
" style="stroke: #000000; stroke-width: 0.8"/>
      </defs>
      <g>
       <use xlink:href="#m1ddf8b2f3b" x="82.850273" y="388.48" style="stroke: #000000; stroke-width: 0.8"/>
      </g>
     </g>
     <g id="text_1">
      <!-- 0 -->
      <g transform="translate(79.669023 403.078437) scale(0.1 -0.1)">
       <defs>
        <path id="DejaVuSans-30" d="M 2034 4250 
Q 1547 4250 1301 3770 
Q 1056 3291 1056 2328 
Q 1056 1369 1301 889 
Q 1547 409 2034 409 
Q 2525 409 2770 889 
Q 3016 1369 3016 2328 
Q 3016 3291 2770 3770 
Q 2525 4250 2034 4250 
z
M 2034 4750 
Q 2819 4750 3233 4129 
Q 3647 3509 3647 2328 
Q 3647 1150 3233 529 
Q 2819 -91 2034 -91 
Q 1250 -91 836 529 
Q 422 1150 422 2328 
Q 422 3509 836 4129 
Q 1250 4750 2034 4750 
z
" transform="scale(0.015625)"/>
       </defs>
       <use xlink:href="#DejaVuSans-30"/>
      </g>
     </g>
    </g>
    <g id="xtick_2">
     <g id="line2d_2">
      <g>
       <use xlink:href="#m1ddf8b2f3b" x="156.934364" y="388.48" style="stroke: #000000; stroke-width: 0.8"/>
      </g>
     </g>
     <g id="text_2">
      <!-- 25 -->
      <g transform="translate(150.571864 403.078437) scale(0.1 -0.1)">
       <defs>
        <path id="DejaVuSans-32" d="M 1228 531 
L 3431 531 
L 3431 0 
L 469 0 
L 469 531 
Q 828 903 1448 1529 
Q 2069 2156 2228 2338 
Q 2531 2678 2651 2914 
Q 2772 3150 2772 3378 
Q 2772 3750 2511 3984 
Q 2250 4219 1831 4219 
Q 1534 4219 1204 4116 
Q 875 4013 500 3803 
L 500 4441 
Q 881 4594 1212 4672 
Q 1544 4750 1819 4750 
Q 2544 4750 2975 4387 
Q 3406 4025 3406 3419 
Q 3406 3131 3298 2873 
Q 3191 2616 2906 2266 
Q 2828 2175 2409 1742 
Q 1991 1309 1228 531 
z
" transform="scale(0.015625)"/>
        <path id="DejaVuSans-35" d="M 691 4666 
L 3169 4666 
L 3169 4134 
L 1269 4134 
L 1269 2991 
Q 1406 3038 1543 3061 
Q 1681 3084 1819 3084 
Q 2600 3084 3056 2656 
Q 3513 2228 3513 1497 
Q 3513 744 3044 326 
Q 2575 -91 1722 -91 
Q 1428 -91 1123 -41 
Q 819 9 494 109 
L 494 744 
Q 775 591 1075 516 
Q 1375 441 1709 441 
Q 2250 441 2565 725 
Q 2881 1009 2881 1497 
Q 2881 1984 2565 2268 
Q 2250 2553 1709 2553 
Q 1456 2553 1204 2497 
Q 953 2441 691 2322 
L 691 4666 
z
" transform="scale(0.015625)"/>
       </defs>
       <use xlink:href="#DejaVuSans-32"/>
       <use xlink:href="#DejaVuSans-35" x="63.623047"/>
      </g>
     </g>
    </g>
    <g id="xtick_3">
     <g id="line2d_3">
      <g>
       <use xlink:href="#m1ddf8b2f3b" x="231.018455" y="388.48" style="stroke: #000000; stroke-width: 0.8"/>
      </g>
     </g>
     <g id="text_3">
      <!-- 50 -->
      <g transform="translate(224.655955 403.078437) scale(0.1 -0.1)">
       <use xlink:href="#DejaVuSans-35"/>
       <use xlink:href="#DejaVuSans-30" x="63.623047"/>
      </g>
     </g>
    </g>
    <g id="xtick_4">
     <g id="line2d_4">
      <g>
       <use xlink:href="#m1ddf8b2f3b" x="305.102545" y="388.48" style="stroke: #000000; stroke-width: 0.8"/>
      </g>
     </g>
     <g id="text_4">
      <!-- 75 -->
      <g transform="translate(298.740045 403.078437) scale(0.1 -0.1)">
       <defs>
        <path id="DejaVuSans-37" d="M 525 4666 
L 3525 4666 
L 3525 4397 
L 1831 0 
L 1172 0 
L 2766 4134 
L 525 4134 
L 525 4666 
z
" transform="scale(0.015625)"/>
       </defs>
       <use xlink:href="#DejaVuSans-37"/>
       <use xlink:href="#DejaVuSans-35" x="63.623047"/>
      </g>
     </g>
    </g>
    <g id="xtick_5">
     <g id="line2d_5">
      <g>
       <use xlink:href="#m1ddf8b2f3b" x="379.186636" y="388.48" style="stroke: #000000; stroke-width: 0.8"/>
      </g>
     </g>
     <g id="text_5">
      <!-- 100 -->
      <g transform="translate(369.642886 403.078437) scale(0.1 -0.1)">
       <defs>
        <path id="DejaVuSans-31" d="M 794 531 
L 1825 531 
L 1825 4091 
L 703 3866 
L 703 4441 
L 1819 4666 
L 2450 4666 
L 2450 531 
L 3481 531 
L 3481 0 
L 794 0 
L 794 531 
z
" transform="scale(0.015625)"/>
       </defs>
       <use xlink:href="#DejaVuSans-31"/>
       <use xlink:href="#DejaVuSans-30" x="63.623047"/>
       <use xlink:href="#DejaVuSans-30" x="127.246094"/>
      </g>
     </g>
    </g>
    <g id="xtick_6">
     <g id="line2d_6">
      <g>
       <use xlink:href="#m1ddf8b2f3b" x="453.270727" y="388.48" style="stroke: #000000; stroke-width: 0.8"/>
      </g>
     </g>
     <g id="text_6">
      <!-- 125 -->
      <g transform="translate(443.726977 403.078437) scale(0.1 -0.1)">
       <use xlink:href="#DejaVuSans-31"/>
       <use xlink:href="#DejaVuSans-32" x="63.623047"/>
       <use xlink:href="#DejaVuSans-35" x="127.246094"/>
      </g>
     </g>
    </g>
    <g id="xtick_7">
     <g id="line2d_7">
      <g>
       <use xlink:href="#m1ddf8b2f3b" x="527.354818" y="388.48" style="stroke: #000000; stroke-width: 0.8"/>
      </g>
     </g>
     <g id="text_7">
      <!-- 150 -->
      <g transform="translate(517.811068 403.078437) scale(0.1 -0.1)">
       <use xlink:href="#DejaVuSans-31"/>
       <use xlink:href="#DejaVuSans-35" x="63.623047"/>
       <use xlink:href="#DejaVuSans-30" x="127.246094"/>
      </g>
     </g>
    </g>
    <g id="xtick_8">
     <g id="line2d_8">
      <g>
       <use xlink:href="#m1ddf8b2f3b" x="601.438909" y="388.48" style="stroke: #000000; stroke-width: 0.8"/>
      </g>
     </g>
     <g id="text_8">
      <!-- 175 -->
      <g transform="translate(591.895159 403.078437) scale(0.1 -0.1)">
       <use xlink:href="#DejaVuSans-31"/>
       <use xlink:href="#DejaVuSans-37" x="63.623047"/>
       <use xlink:href="#DejaVuSans-35" x="127.246094"/>
      </g>
     </g>
    </g>
    <g id="xtick_9">
     <g id="line2d_9">
      <g>
       <use xlink:href="#m1ddf8b2f3b" x="675.523" y="388.48" style="stroke: #000000; stroke-width: 0.8"/>
      </g>
     </g>
     <g id="text_9">
      <!-- 200 -->
      <g transform="translate(665.97925 403.078437) scale(0.1 -0.1)">
       <use xlink:href="#DejaVuSans-32"/>
       <use xlink:href="#DejaVuSans-30" x="63.623047"/>
       <use xlink:href="#DejaVuSans-30" x="127.246094"/>
      </g>
     </g>
    </g>
    <g id="text_10">
     <!-- Epoch -->
     <g transform="translate(365.307969 417.516406) scale(0.11 -0.11)">
      <defs>
       <path id="DejaVuSans-45" d="M 628 4666 
L 3578 4666 
L 3578 4134 
L 1259 4134 
L 1259 2753 
L 3481 2753 
L 3481 2222 
L 1259 2222 
L 1259 531 
L 3634 531 
L 3634 0 
L 628 0 
L 628 4666 
z
" transform="scale(0.015625)"/>
       <path id="DejaVuSans-70" d="M 1159 525 
L 1159 -1331 
L 581 -1331 
L 581 3500 
L 1159 3500 
L 1159 2969 
Q 1341 3281 1617 3432 
Q 1894 3584 2278 3584 
Q 2916 3584 3314 3078 
Q 3713 2572 3713 1747 
Q 3713 922 3314 415 
Q 2916 -91 2278 -91 
Q 1894 -91 1617 61 
Q 1341 213 1159 525 
z
M 3116 1747 
Q 3116 2381 2855 2742 
Q 2594 3103 2138 3103 
Q 1681 3103 1420 2742 
Q 1159 2381 1159 1747 
Q 1159 1113 1420 752 
Q 1681 391 2138 391 
Q 2594 391 2855 752 
Q 3116 1113 3116 1747 
z
" transform="scale(0.015625)"/>
       <path id="DejaVuSans-6f" d="M 1959 3097 
Q 1497 3097 1228 2736 
Q 959 2375 959 1747 
Q 959 1119 1226 758 
Q 1494 397 1959 397 
Q 2419 397 2687 759 
Q 2956 1122 2956 1747 
Q 2956 2369 2687 2733 
Q 2419 3097 1959 3097 
z
M 1959 3584 
Q 2709 3584 3137 3096 
Q 3566 2609 3566 1747 
Q 3566 888 3137 398 
Q 2709 -91 1959 -91 
Q 1206 -91 779 398 
Q 353 888 353 1747 
Q 353 2609 779 3096 
Q 1206 3584 1959 3584 
z
" transform="scale(0.015625)"/>
       <path id="DejaVuSans-63" d="M 3122 3366 
L 3122 2828 
Q 2878 2963 2633 3030 
Q 2388 3097 2138 3097 
Q 1578 3097 1268 2742 
Q 959 2388 959 1747 
Q 959 1106 1268 751 
Q 1578 397 2138 397 
Q 2388 397 2633 464 
Q 2878 531 3122 666 
L 3122 134 
Q 2881 22 2623 -34 
Q 2366 -91 2075 -91 
Q 1284 -91 818 406 
Q 353 903 353 1747 
Q 353 2603 823 3093 
Q 1294 3584 2113 3584 
Q 2378 3584 2631 3529 
Q 2884 3475 3122 3366 
z
" transform="scale(0.015625)"/>
       <path id="DejaVuSans-68" d="M 3513 2113 
L 3513 0 
L 2938 0 
L 2938 2094 
Q 2938 2591 2744 2837 
Q 2550 3084 2163 3084 
Q 1697 3084 1428 2787 
Q 1159 2491 1159 1978 
L 1159 0 
L 581 0 
L 581 4863 
L 1159 4863 
L 1159 2956 
Q 1366 3272 1645 3428 
Q 1925 3584 2291 3584 
Q 2894 3584 3203 3211 
Q 3513 2838 3513 2113 
z
" transform="scale(0.015625)"/>
      </defs>
      <use xlink:href="#DejaVuSans-45"/>
      <use xlink:href="#DejaVuSans-70" x="63.183594"/>
      <use xlink:href="#DejaVuSans-6f" x="126.660156"/>
      <use xlink:href="#DejaVuSans-63" x="187.841797"/>
      <use xlink:href="#DejaVuSans-68" x="242.822266"/>
     </g>
    </g>
   </g>
   <g id="matplotlib.axis_2">
    <g id="ytick_1">
     <g id="line2d_10">
      <path d="M 56.18 334.866043 
L 708.12 334.866043 
" clip-path="url(#p1786ea3b1d)" style="fill: none; stroke-dasharray: 0.6,0.99; stroke-dashoffset: 0; stroke: #b0b0b0; stroke-opacity: 0.6; stroke-width: 0.6"/>
     </g>
     <g id="line2d_11">
      <defs>
       <path id="m42d3588d4c" d="M 0 0 
L -3.5 0 
" style="stroke: #000000; stroke-width: 0.8"/>
      </defs>
      <g>
       <use xlink:href="#m42d3588d4c" x="56.18" y="334.866043" style="stroke: #000000; stroke-width: 0.8"/>
      </g>
     </g>
     <g id="text_11">
      <!-- 50% -->
      <g transform="translate(26.953438 338.665262) scale(0.1 -0.1)">
       <defs>
        <path id="DejaVuSans-25" d="M 4653 2053 
Q 4381 2053 4226 1822 
Q 4072 1591 4072 1178 
Q 4072 772 4226 539 
Q 4381 306 4653 306 
Q 4919 306 5073 539 
Q 5228 772 5228 1178 
Q 5228 1588 5073 1820 
Q 4919 2053 4653 2053 
z
M 4653 2450 
Q 5147 2450 5437 2106 
Q 5728 1763 5728 1178 
Q 5728 594 5436 251 
Q 5144 -91 4653 -91 
Q 4153 -91 3862 251 
Q 3572 594 3572 1178 
Q 3572 1766 3864 2108 
Q 4156 2450 4653 2450 
z
M 1428 4353 
Q 1159 4353 1004 4120 
Q 850 3888 850 3481 
Q 850 3069 1003 2837 
Q 1156 2606 1428 2606 
Q 1700 2606 1854 2837 
Q 2009 3069 2009 3481 
Q 2009 3884 1853 4118 
Q 1697 4353 1428 4353 
z
M 4250 4750 
L 4750 4750 
L 1831 -91 
L 1331 -91 
L 4250 4750 
z
M 1428 4750 
Q 1922 4750 2215 4408 
Q 2509 4066 2509 3481 
Q 2509 2891 2217 2550 
Q 1925 2209 1428 2209 
Q 931 2209 642 2551 
Q 353 2894 353 3481 
Q 353 4063 643 4406 
Q 934 4750 1428 4750 
z
" transform="scale(0.015625)"/>
       </defs>
       <use xlink:href="#DejaVuSans-35"/>
       <use xlink:href="#DejaVuSans-30" x="63.623047"/>
       <use xlink:href="#DejaVuSans-25" x="127.246094"/>
      </g>
     </g>
    </g>
    <g id="ytick_2">
     <g id="line2d_12">
      <path d="M 56.18 269.470409 
L 708.12 269.470409 
" clip-path="url(#p1786ea3b1d)" style="fill: none; stroke-dasharray: 0.6,0.99; stroke-dashoffset: 0; stroke: #b0b0b0; stroke-opacity: 0.6; stroke-width: 0.6"/>
     </g>
     <g id="line2d_13">
      <g>
       <use xlink:href="#m42d3588d4c" x="56.18" y="269.470409" style="stroke: #000000; stroke-width: 0.8"/>
      </g>
     </g>
     <g id="text_12">
      <!-- 60% -->
      <g transform="translate(26.953438 273.269627) scale(0.1 -0.1)">
       <defs>
        <path id="DejaVuSans-36" d="M 2113 2584 
Q 1688 2584 1439 2293 
Q 1191 2003 1191 1497 
Q 1191 994 1439 701 
Q 1688 409 2113 409 
Q 2538 409 2786 701 
Q 3034 994 3034 1497 
Q 3034 2003 2786 2293 
Q 2538 2584 2113 2584 
z
M 3366 4563 
L 3366 3988 
Q 3128 4100 2886 4159 
Q 2644 4219 2406 4219 
Q 1781 4219 1451 3797 
Q 1122 3375 1075 2522 
Q 1259 2794 1537 2939 
Q 1816 3084 2150 3084 
Q 2853 3084 3261 2657 
Q 3669 2231 3669 1497 
Q 3669 778 3244 343 
Q 2819 -91 2113 -91 
Q 1303 -91 875 529 
Q 447 1150 447 2328 
Q 447 3434 972 4092 
Q 1497 4750 2381 4750 
Q 2619 4750 2861 4703 
Q 3103 4656 3366 4563 
z
" transform="scale(0.015625)"/>
       </defs>
       <use xlink:href="#DejaVuSans-36"/>
       <use xlink:href="#DejaVuSans-30" x="63.623047"/>
       <use xlink:href="#DejaVuSans-25" x="127.246094"/>
      </g>
     </g>
    </g>
    <g id="ytick_3">
     <g id="line2d_14">
      <path d="M 56.18 204.074774 
L 708.12 204.074774 
" clip-path="url(#p1786ea3b1d)" style="fill: none; stroke-dasharray: 0.6,0.99; stroke-dashoffset: 0; stroke: #b0b0b0; stroke-opacity: 0.6; stroke-width: 0.6"/>
     </g>
     <g id="line2d_15">
      <g>
       <use xlink:href="#m42d3588d4c" x="56.18" y="204.074774" style="stroke: #000000; stroke-width: 0.8"/>
      </g>
     </g>
     <g id="text_13">
      <!-- 70% -->
      <g transform="translate(26.953438 207.873993) scale(0.1 -0.1)">
       <use xlink:href="#DejaVuSans-37"/>
       <use xlink:href="#DejaVuSans-30" x="63.623047"/>
       <use xlink:href="#DejaVuSans-25" x="127.246094"/>
      </g>
     </g>
    </g>
    <g id="ytick_4">
     <g id="line2d_16">
      <path d="M 56.18 138.67914 
L 708.12 138.67914 
" clip-path="url(#p1786ea3b1d)" style="fill: none; stroke-dasharray: 0.6,0.99; stroke-dashoffset: 0; stroke: #b0b0b0; stroke-opacity: 0.6; stroke-width: 0.6"/>
     </g>
     <g id="line2d_17">
      <g>
       <use xlink:href="#m42d3588d4c" x="56.18" y="138.67914" style="stroke: #000000; stroke-width: 0.8"/>
      </g>
     </g>
     <g id="text_14">
      <!-- 80% -->
      <g transform="translate(26.953438 142.478359) scale(0.1 -0.1)">
       <defs>
        <path id="DejaVuSans-38" d="M 2034 2216 
Q 1584 2216 1326 1975 
Q 1069 1734 1069 1313 
Q 1069 891 1326 650 
Q 1584 409 2034 409 
Q 2484 409 2743 651 
Q 3003 894 3003 1313 
Q 3003 1734 2745 1975 
Q 2488 2216 2034 2216 
z
M 1403 2484 
Q 997 2584 770 2862 
Q 544 3141 544 3541 
Q 544 4100 942 4425 
Q 1341 4750 2034 4750 
Q 2731 4750 3128 4425 
Q 3525 4100 3525 3541 
Q 3525 3141 3298 2862 
Q 3072 2584 2669 2484 
Q 3125 2378 3379 2068 
Q 3634 1759 3634 1313 
Q 3634 634 3220 271 
Q 2806 -91 2034 -91 
Q 1263 -91 848 271 
Q 434 634 434 1313 
Q 434 1759 690 2068 
Q 947 2378 1403 2484 
z
M 1172 3481 
Q 1172 3119 1398 2916 
Q 1625 2713 2034 2713 
Q 2441 2713 2670 2916 
Q 2900 3119 2900 3481 
Q 2900 3844 2670 4047 
Q 2441 4250 2034 4250 
Q 1625 4250 1398 4047 
Q 1172 3844 1172 3481 
z
" transform="scale(0.015625)"/>
       </defs>
       <use xlink:href="#DejaVuSans-38"/>
       <use xlink:href="#DejaVuSans-30" x="63.623047"/>
       <use xlink:href="#DejaVuSans-25" x="127.246094"/>
      </g>
     </g>
    </g>
    <g id="ytick_5">
     <g id="line2d_18">
      <path d="M 56.18 73.283505 
L 708.12 73.283505 
" clip-path="url(#p1786ea3b1d)" style="fill: none; stroke-dasharray: 0.6,0.99; stroke-dashoffset: 0; stroke: #b0b0b0; stroke-opacity: 0.6; stroke-width: 0.6"/>
     </g>
     <g id="line2d_19">
      <g>
       <use xlink:href="#m42d3588d4c" x="56.18" y="73.283505" style="stroke: #000000; stroke-width: 0.8"/>
      </g>
     </g>
     <g id="text_15">
      <!-- 90% -->
      <g transform="translate(26.953438 77.082724) scale(0.1 -0.1)">
       <defs>
        <path id="DejaVuSans-39" d="M 703 97 
L 703 672 
Q 941 559 1184 500 
Q 1428 441 1663 441 
Q 2288 441 2617 861 
Q 2947 1281 2994 2138 
Q 2813 1869 2534 1725 
Q 2256 1581 1919 1581 
Q 1219 1581 811 2004 
Q 403 2428 403 3163 
Q 403 3881 828 4315 
Q 1253 4750 1959 4750 
Q 2769 4750 3195 4129 
Q 3622 3509 3622 2328 
Q 3622 1225 3098 567 
Q 2575 -91 1691 -91 
Q 1453 -91 1209 -44 
Q 966 3 703 97 
z
M 1959 2075 
Q 2384 2075 2632 2365 
Q 2881 2656 2881 3163 
Q 2881 3666 2632 3958 
Q 2384 4250 1959 4250 
Q 1534 4250 1286 3958 
Q 1038 3666 1038 3163 
Q 1038 2656 1286 2365 
Q 1534 2075 1959 2075 
z
" transform="scale(0.015625)"/>
       </defs>
       <use xlink:href="#DejaVuSans-39"/>
       <use xlink:href="#DejaVuSans-30" x="63.623047"/>
       <use xlink:href="#DejaVuSans-25" x="127.246094"/>
      </g>
     </g>
    </g>
    <g id="text_16">
     <!-- Recall (validation) -->
     <g transform="translate(20.665781 259.5075) rotate(-90) scale(0.11 -0.11)">
      <defs>
       <path id="DejaVuSans-52" d="M 2841 2188 
Q 3044 2119 3236 1894 
Q 3428 1669 3622 1275 
L 4263 0 
L 3584 0 
L 2988 1197 
Q 2756 1666 2539 1819 
Q 2322 1972 1947 1972 
L 1259 1972 
L 1259 0 
L 628 0 
L 628 4666 
L 2053 4666 
Q 2853 4666 3247 4331 
Q 3641 3997 3641 3322 
Q 3641 2881 3436 2590 
Q 3231 2300 2841 2188 
z
M 1259 4147 
L 1259 2491 
L 2053 2491 
Q 2509 2491 2742 2702 
Q 2975 2913 2975 3322 
Q 2975 3731 2742 3939 
Q 2509 4147 2053 4147 
L 1259 4147 
z
" transform="scale(0.015625)"/>
       <path id="DejaVuSans-65" d="M 3597 1894 
L 3597 1613 
L 953 1613 
Q 991 1019 1311 708 
Q 1631 397 2203 397 
Q 2534 397 2845 478 
Q 3156 559 3463 722 
L 3463 178 
Q 3153 47 2828 -22 
Q 2503 -91 2169 -91 
Q 1331 -91 842 396 
Q 353 884 353 1716 
Q 353 2575 817 3079 
Q 1281 3584 2069 3584 
Q 2775 3584 3186 3129 
Q 3597 2675 3597 1894 
z
M 3022 2063 
Q 3016 2534 2758 2815 
Q 2500 3097 2075 3097 
Q 1594 3097 1305 2825 
Q 1016 2553 972 2059 
L 3022 2063 
z
" transform="scale(0.015625)"/>
       <path id="DejaVuSans-61" d="M 2194 1759 
Q 1497 1759 1228 1600 
Q 959 1441 959 1056 
Q 959 750 1161 570 
Q 1363 391 1709 391 
Q 2188 391 2477 730 
Q 2766 1069 2766 1631 
L 2766 1759 
L 2194 1759 
z
M 3341 1997 
L 3341 0 
L 2766 0 
L 2766 531 
Q 2569 213 2275 61 
Q 1981 -91 1556 -91 
Q 1019 -91 701 211 
Q 384 513 384 1019 
Q 384 1609 779 1909 
Q 1175 2209 1959 2209 
L 2766 2209 
L 2766 2266 
Q 2766 2663 2505 2880 
Q 2244 3097 1772 3097 
Q 1472 3097 1187 3025 
Q 903 2953 641 2809 
L 641 3341 
Q 956 3463 1253 3523 
Q 1550 3584 1831 3584 
Q 2591 3584 2966 3190 
Q 3341 2797 3341 1997 
z
" transform="scale(0.015625)"/>
       <path id="DejaVuSans-6c" d="M 603 4863 
L 1178 4863 
L 1178 0 
L 603 0 
L 603 4863 
z
" transform="scale(0.015625)"/>
       <path id="DejaVuSans-20" transform="scale(0.015625)"/>
       <path id="DejaVuSans-28" d="M 1984 4856 
Q 1566 4138 1362 3434 
Q 1159 2731 1159 2009 
Q 1159 1288 1364 580 
Q 1569 -128 1984 -844 
L 1484 -844 
Q 1016 -109 783 600 
Q 550 1309 550 2009 
Q 550 2706 781 3412 
Q 1013 4119 1484 4856 
L 1984 4856 
z
" transform="scale(0.015625)"/>
       <path id="DejaVuSans-76" d="M 191 3500 
L 800 3500 
L 1894 563 
L 2988 3500 
L 3597 3500 
L 2284 0 
L 1503 0 
L 191 3500 
z
" transform="scale(0.015625)"/>
       <path id="DejaVuSans-69" d="M 603 3500 
L 1178 3500 
L 1178 0 
L 603 0 
L 603 3500 
z
M 603 4863 
L 1178 4863 
L 1178 4134 
L 603 4134 
L 603 4863 
z
" transform="scale(0.015625)"/>
       <path id="DejaVuSans-64" d="M 2906 2969 
L 2906 4863 
L 3481 4863 
L 3481 0 
L 2906 0 
L 2906 525 
Q 2725 213 2448 61 
Q 2172 -91 1784 -91 
Q 1150 -91 751 415 
Q 353 922 353 1747 
Q 353 2572 751 3078 
Q 1150 3584 1784 3584 
Q 2172 3584 2448 3432 
Q 2725 3281 2906 2969 
z
M 947 1747 
Q 947 1113 1208 752 
Q 1469 391 1925 391 
Q 2381 391 2643 752 
Q 2906 1113 2906 1747 
Q 2906 2381 2643 2742 
Q 2381 3103 1925 3103 
Q 1469 3103 1208 2742 
Q 947 2381 947 1747 
z
" transform="scale(0.015625)"/>
       <path id="DejaVuSans-74" d="M 1172 4494 
L 1172 3500 
L 2356 3500 
L 2356 3053 
L 1172 3053 
L 1172 1153 
Q 1172 725 1289 603 
Q 1406 481 1766 481 
L 2356 481 
L 2356 0 
L 1766 0 
Q 1100 0 847 248 
Q 594 497 594 1153 
L 594 3053 
L 172 3053 
L 172 3500 
L 594 3500 
L 594 4494 
L 1172 4494 
z
" transform="scale(0.015625)"/>
       <path id="DejaVuSans-6e" d="M 3513 2113 
L 3513 0 
L 2938 0 
L 2938 2094 
Q 2938 2591 2744 2837 
Q 2550 3084 2163 3084 
Q 1697 3084 1428 2787 
Q 1159 2491 1159 1978 
L 1159 0 
L 581 0 
L 581 3500 
L 1159 3500 
L 1159 2956 
Q 1366 3272 1645 3428 
Q 1925 3584 2291 3584 
Q 2894 3584 3203 3211 
Q 3513 2838 3513 2113 
z
" transform="scale(0.015625)"/>
       <path id="DejaVuSans-29" d="M 513 4856 
L 1013 4856 
Q 1481 4119 1714 3412 
Q 1947 2706 1947 2009 
Q 1947 1309 1714 600 
Q 1481 -109 1013 -844 
L 513 -844 
Q 928 -128 1133 580 
Q 1338 1288 1338 2009 
Q 1338 2731 1133 3434 
Q 928 4138 513 4856 
z
" transform="scale(0.015625)"/>
      </defs>
      <use xlink:href="#DejaVuSans-52"/>
      <use xlink:href="#DejaVuSans-65" x="64.982422"/>
      <use xlink:href="#DejaVuSans-63" x="126.505859"/>
      <use xlink:href="#DejaVuSans-61" x="181.486328"/>
      <use xlink:href="#DejaVuSans-6c" x="242.765625"/>
      <use xlink:href="#DejaVuSans-6c" x="270.548828"/>
      <use xlink:href="#DejaVuSans-20" x="298.332031"/>
      <use xlink:href="#DejaVuSans-28" x="330.119141"/>
      <use xlink:href="#DejaVuSans-76" x="369.132812"/>
      <use xlink:href="#DejaVuSans-61" x="428.3125"/>
      <use xlink:href="#DejaVuSans-6c" x="489.591797"/>
      <use xlink:href="#DejaVuSans-69" x="517.375"/>
      <use xlink:href="#DejaVuSans-64" x="545.158203"/>
      <use xlink:href="#DejaVuSans-61" x="608.634766"/>
      <use xlink:href="#DejaVuSans-74" x="669.914062"/>
      <use xlink:href="#DejaVuSans-69" x="709.123047"/>
      <use xlink:href="#DejaVuSans-6f" x="736.90625"/>
      <use xlink:href="#DejaVuSans-6e" x="798.087891"/>
      <use xlink:href="#DejaVuSans-29" x="861.466797"/>
     </g>
    </g>
   </g>
   <g id="line2d_20">
    <path d="M 85.813636 159.19375 
L 88.777 194.383141 
L 91.740364 216.022557 
L 94.703727 232.44994 
L 97.667091 131.309052 
L 100.630455 191.388021 
L 103.593818 170.454879 
L 106.557182 168.133334 
L 109.520545 168.63688 
L 112.483909 161.724561 
L 115.447273 134.022971 
L 118.410636 146.703184 
L 121.374 123.128058 
L 124.337364 161.482598 
L 127.300727 150.398037 
L 130.264091 111.337225 
L 133.227455 126.973321 
L 136.190818 109.931219 
L 139.154182 125.763502 
L 142.117545 130.877441 
L 145.080909 113.272936 
L 148.044273 129.209852 
L 151.007636 153.563186 
L 153.971 135.795192 
L 156.934364 128.405486 
L 159.897727 144.309704 
L 162.861091 140.889512 
L 165.824455 133.329777 
L 168.787818 141.948922 
L 171.751182 145.820343 
L 174.714545 145.820343 
L 177.677909 144.66938 
L 180.641273 132.518871 
L 183.604636 145.820343 
L 186.568 128.843636 
L 189.531364 135.088919 
L 192.494727 132.453475 
L 195.458091 135.795192 
L 198.421455 134.212618 
L 201.384818 134.291093 
L 204.348182 132.453475 
L 207.311545 125.49538 
L 210.274909 130.929757 
L 213.238273 125.240337 
L 216.201636 138.175593 
L 219.165 137.377767 
L 222.128364 128.562435 
L 225.091727 132.100339 
L 228.055091 146.879752 
L 231.018455 144.767473 
L 233.981818 149.515196 
L 236.945182 154.413329 
L 239.908545 129.262168 
L 242.871909 144.028503 
L 245.835273 134.807718 
L 248.798636 136.645336 
L 251.762 139.490046 
L 254.725364 122.95149 
L 257.688727 127.810385 
L 260.652091 128.758622 
L 263.615455 129.458355 
L 266.578818 131.923771 
L 269.542182 135.23279 
L 272.505545 136.494926 
L 275.468909 137.201198 
L 278.432273 134.389186 
L 281.395636 134.984286 
L 284.359 134.539596 
" clip-path="url(#p1786ea3b1d)" style="fill: none; stroke: #f5b54e; stroke-opacity: 0.8; stroke-width: 1.2; stroke-linecap: square"/>
   </g>
   <g id="line2d_21">
    <path d="M 85.813636 176.262011 
L 88.777 203.159235 
L 91.740364 346.669955 
L 94.703727 223.7654 
L 97.667091 165.177451 
L 100.630455 161.129461 
L 103.593818 134.389186 
L 106.557182 150.398037 
L 109.520545 116.091488 
L 112.483909 142.12549 
L 115.447273 149.16206 
L 118.410636 182.768877 
L 121.374 122.068649 
L 124.337364 143.230676 
L 127.300727 125.240337 
L 130.264091 122.631051 
L 133.227455 130.759728 
L 136.190818 109.224946 
L 139.154182 114.678942 
L 142.117545 128.758622 
L 145.080909 120.486074 
L 148.044273 104.555698 
L 151.007636 108.701781 
L 153.971 115.914919 
L 156.934364 125.109546 
L 159.897727 105.706661 
L 162.861091 110.637492 
L 165.824455 116.438085 
L 168.787818 112.220066 
L 171.751182 121.368915 
L 174.714545 111.86693 
L 177.677909 118.197227 
L 180.641273 117.674062 
L 183.604636 106.236366 
L 186.568 106.02056 
L 189.531364 110.984089 
L 192.494727 109.401514 
L 195.458091 123.291547 
L 198.421455 117.078962 
L 201.384818 109.46037 
L 204.348182 137.299292 
L 207.311545 123.651223 
L 210.274909 129.634924 
L 213.238273 115.967236 
L 216.201636 119.145464 
L 219.165 119.557456 
L 222.128364 111.160657 
L 225.091727 118.027198 
L 228.055091 111.827692 
L 231.018455 128.582054 
L 233.981818 119.989067 
L 236.945182 126.646343 
L 239.908545 119.537838 
L 242.871909 119.688248 
L 245.835273 122.984188 
L 248.798636 121.192347 
L 251.762 120.983081 
L 254.725364 120.486074 
L 257.688727 122.395627 
L 260.652091 123.304626 
L 263.615455 124.8872 
L 266.578818 125.94007 
L 269.542182 127.359155 
L 272.505545 123.128058 
L 275.468909 121.545484 
L 278.432273 122.245217 
L 281.395636 121.368915 
L 284.359 124.357496 
L 287.322364 121.192347 
L 290.285727 121.362376 
L 293.249091 118.975435 
L 296.212455 121.061556 
L 299.175818 119.256636 
L 302.139182 120.911146 
L 305.102545 120.728038 
L 308.065909 119.786341 
" clip-path="url(#p1786ea3b1d)" style="fill: none; stroke: #f8c471; stroke-opacity: 0.8; stroke-width: 1.2; stroke-linecap: square"/>
   </g>
   <g id="line2d_22">
    <path d="M 85.813636 163.065172 
L 88.777 195.789147 
L 91.740364 224.733255 
L 94.703727 225.622636 
L 97.667091 183.455531 
L 100.630455 134.559215 
L 103.593818 149.521736 
L 106.557182 185.096961 
L 109.520545 155.145761 
L 112.483909 131.04093 
L 115.447273 148.351154 
L 118.410636 155.852033 
L 121.374 117.582508 
L 124.337364 129.889967 
L 127.300727 132.100339 
L 130.264091 132.263828 
L 133.227455 157.820442 
L 136.190818 163.764905 
L 139.154182 128.93519 
L 142.117545 124.004359 
L 145.080909 127.699213 
L 148.044273 121.722052 
L 151.007636 120.309506 
L 153.971 117.674062 
L 156.934364 131.152102 
L 159.897727 119.747104 
L 162.861091 123.304626 
L 165.824455 107.681609 
L 168.787818 119.080068 
L 171.751182 146.873213 
L 174.714545 138.607205 
L 177.677909 148.638895 
L 180.641273 125.031071 
L 183.604636 134.389186 
L 186.568 145.996911 
L 189.531364 141.170713 
L 192.494727 138.783773 
L 195.458091 133.859482 
L 198.421455 121.571642 
L 201.384818 127.699213 
L 204.348182 130.864361 
L 207.311545 119.95637 
L 210.274909 113.122526 
L 213.238273 122.245217 
L 216.201636 126.934084 
L 219.165 116.268056 
L 222.128364 119.609773 
L 225.091727 112.043498 
L 228.055091 109.931219 
L 231.018455 127.548803 
L 233.981818 131.864915 
L 236.945182 131.021311 
L 239.908545 136.318357 
L 242.871909 128.228917 
L 245.835273 125.410366 
L 248.798636 133.506345 
L 251.762 132.97664 
L 254.725364 118.9035 
L 257.688727 128.667068 
L 260.652091 126.469775 
L 263.615455 131.498699 
L 266.578818 128.104666 
L 269.542182 123.644683 
L 272.505545 124.004359 
L 275.468909 124.534064 
L 278.432273 136.148329 
L 281.395636 131.027851 
L 284.359 132.97664 
L 287.322364 132.800072 
L 290.285727 134.938509 
L 293.249091 126.293207 
L 296.212455 127.705752 
L 299.175818 125.410366 
L 302.139182 123.304626 
L 305.102545 123.611986 
L 308.065909 125.410366 
L 311.029273 127.686134 
L 313.992636 127.176048 
L 316.956 123.128058 
L 319.919364 130.694333 
L 322.882727 126.469775 
L 325.846091 127.993493 
L 328.809455 127.176048 
L 331.772818 127.176048 
L 334.736182 126.443617 
L 337.699545 126.482854 
L 340.662909 124.710632 
L 343.626273 130.694333 
L 346.589636 124.710632 
L 349.553 123.651223 
L 352.516364 124.710632 
L 355.479727 123.39618 
L 358.443091 122.284454 
L 361.406455 121.015779 
L 364.369818 134.389186 
L 367.333182 126.110099 
L 370.296545 126.580947 
L 373.259909 133.480187 
L 376.223273 121.89208 
" clip-path="url(#p1786ea3b1d)" style="fill: none; stroke: #ff8800; stroke-opacity: 0.8; stroke-width: 1.2; stroke-linecap: square"/>
   </g>
   <g id="line2d_23">
    <path d="M 85.813636 200.713439 
L 88.777 278.651956 
L 91.740364 321.172197 
L 94.703727 254.200528 
L 97.667091 195.612579 
L 100.630455 192.794027 
L 103.593818 214.695025 
L 106.557182 128.93519 
L 109.520545 155.675465 
L 112.483909 160.69131 
L 115.447273 145.297178 
L 118.410636 167.88483 
L 121.374 104.477223 
L 124.337364 196.142284 
L 127.300727 191.211453 
L 130.264091 140.654088 
L 133.227455 141.602325 
L 136.190818 138.783773 
L 139.154182 119.825578 
L 142.117545 131.963008 
L 145.080909 125.586934 
L 148.044273 134.212618 
L 151.007636 124.115532 
L 153.971 142.12549 
L 156.934364 107.034192 
L 159.897727 115.332898 
L 162.861091 117.039724 
L 165.824455 87.729401 
L 168.787818 113.011353 
L 171.751182 114.332345 
L 174.714545 100.730053 
L 177.677909 112.475109 
L 180.641273 111.690361 
L 183.604636 109.931219 
L 186.568 126.469775 
L 189.531364 101.135506 
L 192.494727 110.107787 
L 195.458091 94.275504 
L 198.421455 92.483664 
L 201.384818 93.549612 
L 204.348182 80.136968 
L 207.311545 85.64982 
L 210.274909 80.195824 
L 213.238273 93.392663 
L 216.201636 93.216095 
L 219.165 89.050393 
L 222.128364 88.115235 
L 225.091727 83.125548 
L 228.055091 89.298896 
L 231.018455 93.516915 
L 233.981818 96.721301 
L 236.945182 92.38557 
L 239.908545 93.392663 
L 242.871909 92.398649 
L 245.835273 92.346333 
L 248.798636 91.456952 
L 251.762 92.68639 
L 254.725364 93.863512 
L 257.688727 94.622101 
L 260.652091 89.99209 
L 263.615455 94.909842 
L 266.578818 87.709782 
L 269.542182 89.874378 
L 272.505545 87.762099 
L 275.468909 89.782824 
L 278.432273 87.89289 
L 281.395636 88.821508 
L 284.359 86.584977 
L 287.322364 88.291803 
L 290.285727 89.475464 
L 293.249091 89.880917 
L 296.212455 88.618782 
L 299.175818 92.464045 
L 302.139182 88.821508 
L 305.102545 86.709229 
L 308.065909 87.408962 
L 311.029273 86.748466 
L 313.992636 80.54896 
L 316.956 83.367512 
L 319.919364 88.64494 
L 322.882727 86.179524 
L 325.846091 88.115235 
L 328.809455 85.656359 
L 331.772818 83.759886 
L 334.736182 82.837808 
L 337.699545 82.131535 
L 340.662909 85.303223 
L 343.626273 88.64494 
L 346.589636 87.14738 
L 349.553 87.134301 
L 352.516364 87.938667 
L 355.479727 89.344673 
L 358.443091 88.821508 
" clip-path="url(#p1786ea3b1d)" style="fill: none; stroke: #2874a6; stroke-opacity: 0.8; stroke-width: 1.2; stroke-linecap: square"/>
   </g>
   <g id="line2d_24">
    <path d="M 85.813636 193.513379 
L 88.777 296.426489 
L 91.740364 341.634491 
L 94.703727 266.16139 
L 97.667091 260.177689 
L 100.630455 212.039962 
L 103.593818 170.27831 
L 106.557182 205.63773 
L 109.520545 167.989463 
L 112.483909 164.824314 
L 115.447273 188.085542 
L 118.410636 154.446027 
L 121.374 138.607205 
L 124.337364 130.517765 
L 127.300727 158.840614 
L 130.264091 137.554335 
L 133.227455 123.500813 
L 136.190818 163.24174 
L 139.154182 109.048378 
L 142.117545 125.063769 
L 145.080909 119.34819 
L 148.044273 104.196022 
L 151.007636 124.357496 
L 153.971 105.183496 
L 156.934364 104.830359 
L 159.897727 104.124087 
L 162.861091 142.12549 
L 165.824455 110.683269 
L 168.787818 116.791221 
L 171.751182 116.967789 
L 174.714545 106.739912 
L 177.677909 96.73438 
L 180.641273 94.275504 
L 183.604636 123.128058 
L 186.568 99.552932 
L 189.531364 93.745799 
L 192.494727 95.08641 
L 195.458091 89.488544 
L 198.421455 93.392663 
L 201.384818 98.199242 
L 204.348182 104.830359 
L 207.311545 85.074338 
L 210.274909 85.64982 
L 213.238273 90.050946 
L 216.201636 86.002956 
L 219.165 88.115235 
L 222.128364 93.019908 
L 225.091727 80.784385 
L 228.055091 83.138627 
L 231.018455 83.328275 
L 233.981818 82.661239 
L 236.945182 81.032888 
L 239.908545 83.655253 
L 242.871909 86.002956 
L 245.835273 84.243814 
L 248.798636 77.207243 
L 251.762 80.954413 
L 254.725364 81.837254 
L 257.688727 84.243814 
L 260.652091 84.067245 
L 263.615455 86.532661 
L 266.578818 85.64982 
L 269.542182 83.812202 
L 272.505545 84.426921 
L 275.468909 84.067245 
L 278.432273 86.382251 
L 281.395636 84.59695 
L 284.359 82.661239 
L 287.322364 83.8449 
L 290.285727 86.493424 
L 293.249091 86.709229 
L 296.212455 88.64494 
L 299.175818 88.232947 
L 302.139182 87.938667 
L 305.102545 89.69781 
L 308.065909 89.939773 
L 311.029273 89.69781 
L 313.992636 88.468372 
L 316.956 89.652033 
L 319.919364 90.031327 
L 322.882727 92.771404 
L 325.846091 90.194816 
L 328.809455 91.855866 
L 331.772818 90.757219 
L 334.736182 91.437333 
L 337.699545 91.456952 
L 340.662909 89.84168 
L 343.626273 93.641166 
L 346.589636 91.456952 
L 349.553 90.933787 
L 352.516364 89.521241 
L 355.479727 95.328374 
L 358.443091 95.83846 
L 361.406455 96.557812 
L 364.369818 91.280384 
L 367.333182 90.050946 
L 370.296545 91.528887 
L 373.259909 91.810089 
L 376.223273 90.397543 
L 379.186636 92.84334 
L 382.15 96.642826 
L 385.113364 96.531653 
L 388.076727 94.798669 
" clip-path="url(#p1786ea3b1d)" style="fill: none; stroke: #3498db; stroke-opacity: 0.8; stroke-width: 1.2; stroke-linecap: square"/>
   </g>
   <g id="line2d_25">
    <path d="M 85.813636 324.043066 
L 88.777 286.394799 
L 91.740364 372.252727 
L 94.703727 355.792646 
L 97.667091 217.480879 
L 100.630455 207.573441 
L 103.593818 208.279714 
L 106.557182 145.996911 
L 109.520545 139.084593 
L 112.483909 165.308242 
L 115.447273 167.636327 
L 118.410636 173.535013 
L 121.374 123.886647 
L 124.337364 125.907372 
L 127.300727 112.46857 
L 130.264091 102.71808 
L 133.227455 106.412934 
L 136.190818 97.970357 
L 139.154182 116.967789 
L 142.117545 91.456952 
L 145.080909 86.179524 
L 148.044273 85.532108 
L 151.007636 79.319522 
L 153.971 77.56038 
L 156.934364 90.207896 
L 159.897727 79.496091 
L 162.861091 89.344673 
L 165.824455 94.942539 
L 168.787818 99.552932 
L 171.751182 94.975237 
L 174.714545 93.216095 
L 177.677909 92.339793 
L 180.641273 115.032078 
L 183.604636 95.629194 
L 186.568 70.347241 
L 189.531364 68.41807 
L 192.494727 64.010404 
L 195.458091 67.116697 
L 198.421455 57.261575 
L 201.384818 61.139536 
L 204.348182 62.780966 
L 207.311545 64.010404 
L 210.274909 56.705712 
L 213.238273 60.492119 
L 216.201636 64.716677 
L 219.165 58.732977 
L 222.128364 64.271987 
L 225.091727 59.897019 
L 228.055091 60.250155 
L 231.018455 59.243063 
L 233.981818 62.42783 
L 236.945182 58.889926 
L 239.908545 59.962415 
L 242.871909 60.119364 
L 245.835273 57.150402 
L 248.798636 59.615818 
L 251.762 54.508419 
L 254.725364 60.845256 
L 257.688727 56.359115 
L 260.652091 58.144416 
L 263.615455 59.740069 
L 266.578818 61.198392 
L 269.542182 65.069814 
L 272.505545 65.769547 
L 275.468909 60.452882 
L 278.432273 62.251262 
L 281.395636 58.817991 
L 284.359 58.909545 
L 287.322364 55.920964 
L 290.285727 60.315551 
L 293.249091 58.307905 
L 296.212455 57.496999 
L 299.175818 58.732977 
L 302.139182 56.620698 
L 305.102545 58.850689 
L 308.065909 56.450669 
L 311.029273 55.600526 
L 313.992636 53.985254 
L 316.956 57.058848 
L 319.919364 57.013072 
L 322.882727 56.444129 
L 325.846091 55.744396 
L 328.809455 59.615818 
L 331.772818 53.985254 
L 334.736182 55.764015 
L 337.699545 55.214692 
L 340.662909 54.698066 
L 343.626273 55.227771 
L 346.589636 56.267561 
L 349.553 58.37984 
L 352.516364 54.508419 
L 355.479727 57.680107 
L 358.443091 56.444129 
L 361.406455 58.052862 
L 364.369818 60.492119 
L 367.333182 59.229984 
L 370.296545 60.315551 
L 373.259909 66.652388 
L 376.223273 59.43925 
L 379.186636 63.657268 
L 382.15 62.957535 
L 385.113364 67.175553 
L 388.076727 68.588099 
L 391.040091 71.929816 
L 394.003455 70.870406 
L 396.966818 73.335822 
L 399.930182 67.881826 
L 402.893545 59.341156 
L 405.856909 59.517724 
L 408.820273 61.558068 
L 411.783636 66.861654 
L 414.747 59.151509 
L 417.710364 58.615265 
L 420.673727 59.779307 
L 423.637091 59.066494 
L 426.600455 60.668687 
L 429.563818 60.138983 
L 432.527182 59.43925 
" clip-path="url(#p1786ea3b1d)" style="fill: none; stroke: #1b4f72; stroke-opacity: 0.8; stroke-width: 1.2; stroke-linecap: square"/>
   </g>
   <g id="line2d_26">
    <path d="M 85.813636 129.458355 
L 88.777 162.005763 
L 91.740364 218.481432 
L 94.703727 192.44743 
L 97.667091 136.612638 
L 100.630455 168.689196 
L 103.593818 123.003806 
L 106.557182 123.827791 
L 109.520545 126.646343 
L 112.483909 121.107333 
L 115.447273 121.722052 
L 118.410636 117.85063 
L 121.374 108.348645 
L 124.337364 107.37425 
L 127.300727 113.272936 
L 130.264091 107.81894 
L 133.227455 110.984089 
L 136.190818 95.393769 
L 139.154182 108.701781 
L 142.117545 118.524205 
L 145.080909 100.78237 
L 148.044273 106.478329 
L 151.007636 106.445632 
L 153.971 100.278823 
L 156.934364 113.560677 
L 159.897727 101.312074 
L 162.861091 104.987309 
L 165.824455 100.252665 
L 168.787818 101.737146 
L 171.751182 98.846659 
L 174.714545 97.708775 
L 177.677909 106.76607 
L 180.641273 92.68639 
L 183.604636 101.050492 
L 186.568 95.68151 
L 189.531364 92.163225 
L 192.494727 92.516361 
L 195.458091 92.339793 
L 198.421455 86.709229 
L 201.384818 89.69781 
L 207.311545 90.358306 
L 210.274909 93.392663 
L 213.238273 86.853099 
L 216.201636 90.404082 
L 219.165 90.580651 
L 222.128364 87.768638 
L 225.091727 88.396436 
L 228.055091 89.952853 
L 231.018455 88.64494 
L 233.981818 86.709229 
L 236.945182 85.597503 
L 239.908545 85.839467 
L 242.871909 87.232394 
L 245.835273 87.173538 
L 248.798636 91.228067 
L 251.762 90.031327 
L 254.725364 90.927248 
L 257.688727 89.69781 
L 260.652091 86.709229 
L 263.615455 86.709229 
L 266.578818 87.461279 
L 269.542182 86.002956 
L 272.505545 86.584977 
L 275.468909 88.965378 
L 278.432273 89.344673 
L 281.395636 90.279831 
L 284.359 88.821508 
L 287.322364 88.115235 
L 290.285727 84.950087 
L 293.249091 87.408962 
L 296.212455 83.890677 
L 299.175818 86.179524 
L 302.139182 86.356093 
L 305.102545 89.652033 
L 308.065909 88.64494 
L 311.029273 88.324501 
L 313.992636 87.408962 
L 316.956 86.356093 
L 319.919364 88.291803 
L 322.882727 87.480898 
L 325.846091 88.677638 
L 328.809455 87.762099 
L 331.772818 86.127208 
L 334.736182 85.303223 
L 337.699545 87.363185 
L 340.662909 86.356093 
L 343.626273 86.885797 
L 346.589636 86.179524 
L 349.553 88.278724 
L 352.516364 85.747913 
L 355.479727 84.773518 
L 358.443091 82.981678 
L 361.406455 83.975692 
L 364.369818 84.668885 
L 367.333182 81.202917 
L 370.296545 82.536988 
L 373.259909 85.303223 
L 376.223273 85.64982 
L 379.186636 87.408962 
L 382.15 87.062366 
L 385.113364 89.279278 
L 388.076727 90.404082 
L 391.040091 87.709782 
L 394.003455 90.7376 
L 396.966818 90.874931 
L 399.930182 91.260765 
L 402.893545 88.540307 
L 405.856909 92.195923 
L 408.820273 90.325608 
L 411.783636 86.212222 
L 414.747 86.356093 
L 417.710364 93.118001 
L 420.673727 93.039527 
L 423.637091 94.798669 
L 426.600455 97.264084 
L 429.563818 91.810089 
L 432.527182 94.098936 
L 435.490545 87.664005 
L 438.453909 91.626981 
L 441.417273 91.581204 
L 444.380636 88.991537 
L 447.344 90.050946 
L 450.307364 88.991537 
L 453.270727 89.69781 
L 456.234091 87.59861 
L 459.197455 88.991537 
L 462.160818 89.959392 
L 465.124182 92.895656 
L 468.087545 106.059797 
L 471.050909 96.296229 
L 474.014273 94.798669 
L 476.977636 97.918041 
L 479.941 95.328374 
L 482.904364 93.569231 
L 485.867727 97.77417 
L 488.831091 96.381243 
L 491.794455 95.53764 
L 494.757818 101.135506 
L 497.721182 90.234054 
L 500.684545 100.605801 
L 503.647909 97.309861 
L 506.611273 101.998728 
L 509.574636 102.4238 
L 512.538 102.011808 
L 515.501364 100.076097 
L 518.464727 90.489097 
L 521.428091 97.970357 
L 524.391455 94.085857 
L 527.354818 97.041739 
L 527.354818 97.041739 
" clip-path="url(#p1786ea3b1d)" style="fill: none; stroke: #27ae60; stroke-opacity: 0.8; stroke-width: 1.2; stroke-linecap: square"/>
   </g>
   <g id="line2d_27">
    <path d="M 85.813636 126.469775 
L 88.777 147.579486 
L 91.740364 204.055156 
L 94.703727 183.821746 
L 97.667091 174.718674 
L 100.630455 169.964411 
L 103.593818 131.583713 
L 106.557182 110.630952 
L 109.520545 127.875781 
L 112.483909 136.148329 
L 115.447273 134.945049 
L 118.410636 138.849168 
L 121.374 123.827791 
L 124.337364 114.502374 
L 127.300727 116.35307 
L 130.264091 122.356389 
L 133.227455 123.644683 
L 136.190818 104.653791 
L 139.154182 122.421785 
L 142.117545 123.481194 
L 145.080909 117.320926 
L 148.044273 119.609773 
L 151.007636 109.852744 
L 153.971 108.315947 
L 156.934364 104.784582 
L 159.897727 102.12298 
L 162.861091 100.429233 
L 165.824455 106.327919 
L 168.787818 100.972017 
L 171.751182 104.830359 
L 174.714545 91.810089 
L 177.677909 102.364944 
L 180.641273 99.27827 
L 183.604636 94.798669 
L 186.568 94.308202 
L 189.531364 92.889117 
L 192.494727 99.899529 
L 195.458091 102.71808 
L 198.421455 96.910948 
L 201.384818 104.274497 
L 204.348182 103.228166 
L 207.311545 103.228166 
L 210.274909 106.942638 
L 213.238273 97.793789 
L 216.201636 94.393216 
L 219.165 104.542619 
L 222.128364 104.477223 
L 225.091727 104.124087 
L 228.055091 103.228166 
L 231.018455 101.835239 
L 233.981818 97.885343 
L 236.945182 94.412835 
L 239.908545 95.328374 
L 242.871909 97.970357 
L 245.835273 98.316954 
L 248.798636 98.846659 
L 251.762 101.423247 
L 254.725364 97.898422 
L 257.688727 95.151806 
L 260.652091 100.252665 
L 263.615455 98.212321 
L 266.578818 102.044505 
L 269.542182 97.525667 
L 272.505545 96.891329 
L 275.468909 101.645592 
L 278.432273 102.71808 
L 281.395636 103.228166 
L 284.359 102.678843 
L 287.322364 99.807975 
L 290.285727 100.429233 
L 293.249091 99.199795 
L 296.212455 99.023227 
L 299.175818 104.300655 
L 302.139182 99.7295 
L 305.102545 102.443419 
L 308.065909 100.605801 
L 311.029273 98.846659 
L 313.992636 97.793789 
L 316.956 96.381243 
L 319.919364 95.151806 
L 322.882727 92.620994 
" clip-path="url(#p1786ea3b1d)" style="fill: none; stroke: #2ecc71; stroke-opacity: 0.8; stroke-width: 1.2; stroke-linecap: square"/>
   </g>
   <g id="line2d_28">
    <path d="M 85.813636 119.786341 
L 88.777 146.526616 
L 91.740364 203.708559 
L 94.703727 203.355422 
L 97.667091 154.092891 
L 100.630455 132.113418 
L 103.593818 124.534064 
L 106.557182 139.686233 
L 109.520545 120.132938 
L 112.483909 137.011551 
L 115.447273 109.905061 
L 118.410636 118.726932 
L 121.374 123.016885 
L 124.337364 118.995054 
L 127.300727 113.717626 
L 130.264091 109.048378 
L 133.227455 121.820145 
L 136.190818 118.550364 
L 139.154182 104.477223 
L 142.117545 105.373143 
L 145.080909 99.958385 
L 148.044273 105.634726 
L 151.007636 101.665211 
L 153.971 100.769291 
L 156.934364 118.197227 
L 159.897727 98.944752 
L 162.861091 90.757219 
L 165.824455 108.139379 
L 168.787818 105.006928 
L 171.751182 105.006928 
L 174.714545 92.68639 
L 177.677909 90.116342 
L 180.641273 91.280384 
L 183.604636 94.798669 
L 186.568 98.140386 
L 189.531364 85.473252 
L 192.494727 89.168105 
L 195.458091 92.594836 
L 198.421455 91.084197 
L 201.384818 99.376363 
L 204.348182 91.6466 
L 207.311545 93.922368 
L 210.274909 95.328374 
L 213.238273 93.902749 
L 216.201636 90.050946 
L 219.165 91.967038 
L 222.128364 97.970357 
L 225.091727 92.862958 
L 228.055091 102.011808 
L 231.018455 84.59695 
L 233.981818 88.291803 
L 236.945182 91.574664 
L 239.908545 92.804102 
L 242.871909 95.38723 
L 245.835273 91.535427 
L 248.798636 89.168105 
L 251.762 92.862958 
L 254.725364 91.280384 
L 257.688727 86.519582 
L 260.652091 89.364292 
L 263.615455 88.265645 
L 266.578818 92.143606 
L 269.542182 84.243814 
L 272.505545 87.408962 
L 275.468909 91.319621 
L 278.432273 87.938667 
L 281.395636 88.161012 
L 284.359 86.709229 
L 287.322364 87.193157 
L 290.285727 89.168105 
L 293.249091 89.436227 
L 296.212455 91.365398 
L 299.175818 87.193157 
L 302.139182 88.291803 
L 305.102545 90.868391 
L 308.065909 87.232394 
L 311.029273 83.190944 
L 313.992636 86.885797 
L 316.956 84.309209 
L 319.919364 84.989324 
L 322.882727 83.890677 
L 325.846091 84.773518 
L 328.809455 84.773518 
L 331.772818 84.59695 
L 334.736182 88.94576 
L 337.699545 84.59695 
L 340.662909 86.683071 
L 343.626273 85.303223 
L 346.589636 85.420935 
L 349.553 84.243814 
L 352.516364 86.532661 
L 355.479727 85.996417 
L 358.443091 87.062366 
L 361.406455 87.762099 
L 364.369818 88.291803 
L 367.333182 89.874378 
L 370.296545 88.422595 
L 373.259909 87.533214 
L 376.223273 89.168105 
L 379.186636 87.062366 
L 382.15 88.468372 
L 385.113364 87.376265 
L 388.076727 89.266198 
L 391.040091 89.828601 
L 394.003455 91.280384 
L 396.966818 89.521241 
L 402.893545 88.723415 
L 405.856909 88.115235 
L 408.820273 88.677638 
L 411.783636 88.291803 
L 414.747 87.435121 
L 417.710364 88.520688 
L 420.673727 91.967038 
L 423.637091 90.580651 
L 426.600455 89.527781 
L 429.563818 90.227514 
L 432.527182 90.299449 
L 435.490545 87.415502 
L 438.453909 88.304883 
L 441.417273 88.0433 
L 444.380636 86.09451 
L 447.344 86.709229 
L 450.307364 86.055273 
L 453.270727 86.532661 
L 456.234091 85.9441 
L 459.197455 86.519582 
L 465.124182 86.885797 
L 468.087545 87.618228 
L 471.050909 88.010602 
L 474.014273 85.64982 
L 476.977636 88.984997 
L 479.941 91.522348 
L 482.904364 91.986657 
L 485.867727 92.078211 
L 485.867727 92.078211 
" clip-path="url(#p1786ea3b1d)" style="fill: none; stroke: #145a32; stroke-opacity: 0.8; stroke-width: 1.2; stroke-linecap: square"/>
   </g>
   <g id="line2d_29">
    <path d="M 85.813636 171.455432 
L 88.777 246.457685 
L 91.740364 191.388021 
L 94.703727 217.958267 
L 97.667091 191.211453 
L 100.630455 156.080918 
L 103.593818 123.304626 
L 106.557182 140.896052 
L 109.520545 122.774921 
L 112.483909 133.72869 
L 115.447273 151.980612 
L 118.410636 101.181283 
L 121.374 134.500359 
L 124.337364 117.497494 
L 127.300727 94.798669 
L 130.264091 89.161565 
L 133.227455 105.883229 
L 136.190818 102.541512 
L 139.154182 92.339793 
L 142.117545 88.291803 
L 145.080909 97.087516 
L 148.044273 92.954512 
L 151.007636 78.253574 
L 153.971 81.954966 
L 156.934364 81.386024 
L 159.897727 84.420382 
L 162.861091 82.229628 
L 165.824455 86.38879 
L 168.787818 76.618683 
L 171.751182 71.046975 
L 174.714545 71.753248 
L 177.677909 71.046975 
L 180.641273 70.798471 
L 183.604636 67.953761 
L 186.568 67.005524 
L 189.531364 71.753248 
L 192.494727 74.56526 
L 195.458091 77.207243 
L 198.421455 70.347241 
L 201.384818 64.683979 
L 204.348182 65.834943 
L 207.311545 65.416411 
L 210.274909 68.56848 
L 213.238273 69.287832 
L 216.201636 66.796258 
L 219.165 61.800032 
L 222.128364 69.994105 
L 225.091727 61.898125 
L 228.055091 65.592979 
L 231.018455 70.347241 
L 233.981818 70.52381 
L 236.945182 73.551627 
L 239.908545 70.700378 
L 242.871909 66.299252 
L 245.835273 69.4644 
L 248.798636 66.933589 
L 251.762 67.52869 
L 254.725364 69.287832 
L 257.688727 67.705258 
L 260.652091 70.870406 
L 263.615455 64.186973 
L 266.578818 62.42783 
L 269.542182 62.251262 
L 272.505545 65.180986 
L 275.468909 62.368974 
L 278.432273 65.246382 
L 281.395636 62.957535 
L 284.359 63.062168 
L 287.322364 69.640969 
L 290.285727 66.122683 
L 293.249091 62.198945 
L 296.212455 64.768994 
L 299.175818 61.322644 
L 302.139182 65.416411 
L 305.102545 68.045315 
L 308.065909 65.246382 
L 311.029273 66.122683 
L 313.992636 64.010404 
L 316.956 63.467621 
L 319.919364 63.977707 
L 322.882727 63.657268 
L 325.846091 62.604398 
L 328.809455 62.074694 
L 331.772818 61.721557 
L 334.736182 61.37496 
L 337.699545 60.465961 
L 340.662909 65.946115 
L 343.626273 62.251262 
L 346.589636 60.407105 
L 349.553 62.041996 
L 352.516364 62.42783 
L 355.479727 63.055628 
L 358.443091 60.492119 
L 361.406455 62.414751 
" clip-path="url(#p1786ea3b1d)" style="fill: none; stroke: #888888; stroke-opacity: 0.8; stroke-width: 1.2; stroke-linecap: square"/>
   </g>
   <g id="line2d_30">
    <path d="M 85.813636 237.308836 
L 88.777 244.698542 
L 91.740364 301.35078 
L 94.703727 216.72229 
L 97.667091 178.021153 
L 100.630455 162.358899 
L 103.593818 159.612282 
L 106.557182 138.08404 
L 109.520545 151.137008 
L 112.483909 111.160657 
L 115.447273 137.554335 
L 118.410636 135.971761 
L 121.374 141.948922 
L 124.337364 106.275603 
L 127.300727 121.833224 
L 130.264091 118.373795 
L 133.227455 94.622101 
L 136.190818 102.188376 
L 139.154182 95.583417 
L 142.117545 112.90672 
L 145.080909 94.975237 
L 148.044273 92.104369 
L 151.007636 77.736948 
L 153.971 84.623108 
L 156.934364 83.537541 
L 159.897727 95.858078 
L 162.861091 88.115235 
L 165.824455 94.694036 
L 168.787818 81.75878 
L 171.751182 72.806117 
L 174.714545 63.461081 
L 177.677909 75.271533 
L 180.641273 76.991438 
L 183.604636 78.227415 
L 186.568 79.319522 
L 189.531364 75.01649 
L 192.494727 80.019256 
L 195.458091 78.260113 
L 198.421455 72.276413 
L 201.384818 77.913516 
L 204.348182 74.035555 
L 207.311545 72.982685 
L 210.274909 72.806117 
L 213.238273 75.801237 
L 216.201636 69.869853 
L 219.165 67.66602 
L 222.128364 72.551074 
L 225.091727 71.733629 
L 228.055091 68.588099 
L 231.018455 67.37174 
L 233.981818 69.791378 
L 236.945182 70.020263 
L 239.908545 67.705258 
L 242.871909 71.007737 
L 245.835273 66.652388 
L 248.798636 68.888919 
L 251.762 66.652388 
L 254.725364 68.588099 
L 257.688727 63.657268 
L 260.652091 64.010404 
L 263.615455 61.754255 
L 266.578818 63.833836 
L 269.542182 66.122683 
L 272.505545 64.363541 
L 275.468909 64.690519 
L 278.432273 63.814217 
L 281.395636 63.02293 
L 284.359 64.363541 
L 287.322364 64.474713 
L 290.285727 66.161921 
L 293.249091 64.21967 
L 296.212455 64.540109 
L 299.175818 64.82131 
L 302.139182 65.416411 
L 305.102545 62.604398 
L 308.065909 62.251262 
L 311.029273 63.591872 
L 313.992636 63.17988 
L 316.956 62.709031 
L 319.919364 62.820204 
L 322.882727 65.416411 
L 325.846091 64.860548 
L 328.809455 63.709584 
L 331.772818 65.246382 
L 334.736182 63.153722 
L 337.699545 65.069814 
L 340.662909 64.605505 
L 343.626273 66.47582 
L 346.589636 64.363541 
L 349.553 65.069814 
L 352.516364 64.540109 
L 355.479727 63.4807 
L 358.443091 63.657268 
L 361.406455 64.363541 
L 364.369818 68.934696 
L 367.333182 68.091092 
L 370.296545 65.769547 
L 373.259909 64.716677 
L 376.223273 69.444782 
L 379.186636 66.47582 
L 382.15 67.352121 
L 385.113364 65.946115 
L 388.076727 65.763007 
L 391.040091 69.4644 
L 394.003455 66.47582 
L 396.966818 65.88072 
L 399.930182 65.946115 
" clip-path="url(#p1786ea3b1d)" style="fill: none; stroke: #888888; stroke-opacity: 0.8; stroke-width: 1.2; stroke-linecap: square"/>
   </g>
   <g id="line2d_31">
    <path d="M 85.813636 164.824314 
L 88.777 217.605131 
L 91.740364 230.272265 
L 94.703727 177.936139 
L 97.667091 158.494017 
L 100.630455 190.864856 
L 103.593818 148.462327 
L 106.557182 118.720392 
L 109.520545 114.306187 
L 112.483909 139.313477 
L 115.447273 86.885797 
L 118.410636 101.697909 
L 121.374 71.046975 
L 124.337364 109.663097 
L 127.300727 86.885797 
L 130.264091 105.006928 
L 133.227455 91.18883 
L 136.190818 99.834133 
L 139.154182 91.456952 
L 142.117545 93.922368 
L 145.080909 91.306542 
L 148.044273 96.910948 
L 151.007636 75.657367 
L 153.971 77.540761 
L 156.934364 84.243814 
L 159.897727 78.083545 
L 162.861091 78.508617 
L 165.824455 79.339141 
L 168.787818 82.275405 
L 171.751182 79.241048 
L 174.714545 63.369527 
L 177.677909 62.42783 
L 180.641273 69.817537 
L 183.604636 65.658374 
L 186.568 65.246382 
L 189.531364 67.705258 
L 192.494727 71.223543 
L 195.458091 61.67578 
L 198.421455 69.994105 
L 201.384818 66.47582 
L 204.348182 66.828956 
L 207.311545 63.650728 
L 213.238273 55.567828 
L 216.201636 63.657268 
L 219.165 66.959748 
L 222.128364 64.540109 
L 225.091727 60.171681 
L 228.055091 62.852902 
L 231.018455 64.540109 
L 236.945182 66.122683 
L 239.908545 60.315551 
L 242.871909 61.688859 
L 245.835273 61.021824 
L 248.798636 62.074694 
L 251.762 61.198392 
L 254.725364 62.251262 
L 257.688727 59.164588 
L 260.652091 59.086113 
L 263.615455 62.767887 
L 266.578818 58.347142 
L 269.542182 59.58966 
L 272.505545 55.920964 
L 275.468909 55.103519 
L 278.432273 59.792386 
L 281.395636 55.567828 
L 284.359 57.503539 
L 287.322364 56.973834 
L 290.285727 58.07902 
L 293.249091 61.165694 
L 296.212455 58.844149 
L 299.175818 57.503539 
L 302.139182 56.908438 
L 305.102545 57.680107 
L 308.065909 57.392366 
L 311.029273 61.551529 
L 313.992636 61.37496 
L 316.956 61.839269 
L 319.919364 59.58966 
L 322.882727 57.503539 
L 325.846091 56.620698 
L 328.809455 55.476274 
L 331.772818 54.684987 
L 334.736182 54.684987 
L 337.699545 54.161822 
L 340.662909 52.768895 
L 343.626273 55.0839 
L 346.589636 58.909545 
L 349.553 54.560735 
L 352.516364 54.410325 
L 355.479727 55.358562 
L 358.443091 55.365102 
L 361.406455 55.09044 
L 364.369818 56.444129 
L 367.333182 58.203272 
L 370.296545 58.026704 
L 373.259909 58.203272 
L 376.223273 58.896466 
L 379.186636 56.339496 
L 382.15 56.502986 
L 385.113364 55.39126 
L 388.076727 51.872975 
L 391.040091 50.323098 
L 394.003455 51.395587 
L 396.966818 53.854462 
L 399.930182 53.200506 
L 402.893545 51.696406 
L 405.856909 53.050096 
L 408.820273 52.978161 
L 411.783636 55.038123 
L 414.747 54.050649 
L 417.710364 56.914978 
L 420.673727 57.052309 
L 423.637091 58.732977 
L 426.600455 58.327524 
L 429.563818 48.707826 
L 432.527182 59.184207 
L 435.490545 56.097533 
L 438.453909 55.744396 
L 441.417273 60.838716 
L 444.380636 47.707273 
L 447.344 49.191754 
L 453.270727 54.33839 
L 456.234091 54.4888 
L 459.197455 56.097533 
L 462.160818 54.33839 
L 465.124182 54.985807 
L 468.087545 55.214692 
L 474.014273 51.519838 
L 476.977636 51.166702 
L 479.941 50.166149 
L 482.904364 51.519838 
L 485.867727 51.872975 
L 488.831091 48.465862 
L 491.794455 50.689314 
L 494.757818 51.258256 
L 497.721182 53.102413 
L 500.684545 54.619591 
L 503.647909 55.489353 
L 506.611273 53.841383 
L 509.574636 56.620698 
L 512.538 54.861555 
L 515.501364 53.985254 
L 518.464727 54.161822 
L 521.428091 53.102413 
L 524.391455 54.508419 
L 527.354818 55.39126 
L 530.318182 56.712252 
L 533.281545 55.038123 
L 536.244909 57.503539 
L 539.208273 55.299706 
L 542.171636 54.18798 
L 545.135 60.721004 
L 548.098364 57.542776 
L 551.061727 61.551529 
L 554.025091 60.302472 
L 556.988455 59.792386 
L 559.951818 58.732977 
L 562.915182 58.909545 
L 565.878545 58.026704 
L 568.841909 60.276314 
L 571.805273 59.72699 
L 574.768636 62.251262 
L 577.732 62.780966 
L 580.695364 60.668687 
L 586.622091 57.150402 
L 589.585455 57.830517 
L 592.548818 57.856675 
L 595.512182 58.556408 
L 598.475545 58.589106 
L 601.438909 56.659935 
L 604.402273 56.620698 
L 607.365636 56.973834 
L 610.329 56.444129 
L 613.292364 56.914978 
L 616.255727 55.214692 
L 619.219091 57.326971 
L 622.182455 57.856675 
L 625.145818 55.803252 
L 628.109182 57.902452 
L 631.072545 58.909545 
L 634.035909 55.443576 
L 636.999273 57.503539 
L 639.962636 57.503539 
L 642.926 61.329183 
L 645.889364 59.962415 
L 648.852727 59.812005 
L 651.816091 57.503539 
L 654.779455 56.646856 
L 657.742818 56.032137 
L 660.706182 55.920964 
L 663.669545 56.359115 
L 666.632909 54.33839 
L 672.559636 56.620698 
L 675.523 55.672461 
L 678.486364 56.967295 
L 678.486364 56.967295 
" clip-path="url(#p1786ea3b1d)" style="fill: none; stroke: #888888; stroke-opacity: 0.8; stroke-width: 1.2; stroke-linecap: square"/>
   </g>
   <g id="line2d_32">
    <path d="M 85.813636 160.423188 
L 88.777 224.994838 
L 91.740364 176.608608 
L 94.703727 272.851363 
L 97.667091 167.28319 
L 100.630455 219.187705 
L 103.593818 151.627475 
L 106.557182 179.603728 
L 109.520545 135.442056 
L 112.483909 165.909882 
L 115.447273 140.189779 
L 118.410636 149.325549 
L 121.374 147.952241 
L 124.337364 129.281787 
L 127.300727 101.135506 
L 130.264091 119.269715 
L 133.227455 137.730903 
L 136.190818 135.618624 
L 139.154182 124.534064 
L 142.117545 118.229925 
L 145.080909 118.027198 
L 148.044273 135.795192 
L 151.007636 158.422082 
L 153.971 164.621588 
L 156.934364 134.735783 
L 159.897727 115.914919 
L 162.861091 133.388633 
L 165.824455 117.824472 
L 168.787818 119.786341 
L 171.751182 123.128058 
L 174.714545 121.60434 
L 177.677909 124.8872 
L 180.641273 126.116638 
L 183.604636 137.377767 
L 186.568 134.833876 
L 189.531364 138.08404 
L 192.494727 124.004359 
L 195.458091 140.726023 
L 198.421455 125.410366 
L 201.384818 117.144357 
L 204.348182 120.486074 
L 207.311545 128.405486 
L 210.274909 124.534064 
L 213.238273 126.116638 
L 216.201636 127.522645 
L 219.165 121.283901 
L 222.128364 128.725924 
L 225.091727 122.421785 
L 228.055091 120.669182 
L 231.018455 124.357496 
L 233.981818 119.95637 
L 236.945182 124.717172 
L 239.908545 123.226151 
L 242.871909 127.875781 
L 245.835273 124.357496 
L 248.798636 121.218505 
L 251.762 126.293207 
L 254.725364 122.95149 
L 257.688727 125.456143 
L 260.652091 124.710632 
L 263.615455 121.421232 
L 266.578818 122.598353 
L 269.542182 125.64579 
L 272.505545 125.763502 
L 275.468909 125.410366 
" clip-path="url(#p1786ea3b1d)" style="fill: none; stroke: #888888; stroke-opacity: 0.8; stroke-width: 1.2; stroke-linecap: square"/>
   </g>
   <g id="patch_3">
    <path d="M 56.18 388.48 
L 56.18 31.48 
" style="fill: none; stroke: #333333; stroke-width: 0.8; stroke-linejoin: miter; stroke-linecap: square"/>
   </g>
   <g id="patch_4">
    <path d="M 56.18 388.48 
L 708.12 388.48 
" style="fill: none; stroke: #333333; stroke-width: 0.8; stroke-linejoin: miter; stroke-linecap: square"/>
   </g>
   <g id="text_17">
    <!-- volution du Recall sur le validation set -->
    <g transform="translate(253.890781 21.48) scale(0.13 -0.13)">
     <defs>
      <path id="DejaVuSans-c9" d="M 628 4666 
L 3578 4666 
L 3578 4134 
L 1259 4134 
L 1259 2753 
L 3481 2753 
L 3481 2222 
L 1259 2222 
L 1259 531 
L 3634 531 
L 3634 0 
L 628 0 
L 628 4666 
z
M 2268 5921 
L 2846 5921 
L 2134 5096 
L 1655 5096 
L 2268 5921 
z
" transform="scale(0.015625)"/>
      <path id="DejaVuSans-75" d="M 544 1381 
L 544 3500 
L 1119 3500 
L 1119 1403 
Q 1119 906 1312 657 
Q 1506 409 1894 409 
Q 2359 409 2629 706 
Q 2900 1003 2900 1516 
L 2900 3500 
L 3475 3500 
L 3475 0 
L 2900 0 
L 2900 538 
Q 2691 219 2414 64 
Q 2138 -91 1772 -91 
Q 1169 -91 856 284 
Q 544 659 544 1381 
z
M 1991 3584 
L 1991 3584 
z
" transform="scale(0.015625)"/>
      <path id="DejaVuSans-73" d="M 2834 3397 
L 2834 2853 
Q 2591 2978 2328 3040 
Q 2066 3103 1784 3103 
Q 1356 3103 1142 2972 
Q 928 2841 928 2578 
Q 928 2378 1081 2264 
Q 1234 2150 1697 2047 
L 1894 2003 
Q 2506 1872 2764 1633 
Q 3022 1394 3022 966 
Q 3022 478 2636 193 
Q 2250 -91 1575 -91 
Q 1294 -91 989 -36 
Q 684 19 347 128 
L 347 722 
Q 666 556 975 473 
Q 1284 391 1588 391 
Q 1994 391 2212 530 
Q 2431 669 2431 922 
Q 2431 1156 2273 1281 
Q 2116 1406 1581 1522 
L 1381 1569 
Q 847 1681 609 1914 
Q 372 2147 372 2553 
Q 372 3047 722 3315 
Q 1072 3584 1716 3584 
Q 2034 3584 2315 3537 
Q 2597 3491 2834 3397 
z
" transform="scale(0.015625)"/>
      <path id="DejaVuSans-72" d="M 2631 2963 
Q 2534 3019 2420 3045 
Q 2306 3072 2169 3072 
Q 1681 3072 1420 2755 
Q 1159 2438 1159 1844 
L 1159 0 
L 581 0 
L 581 3500 
L 1159 3500 
L 1159 2956 
Q 1341 3275 1631 3429 
Q 1922 3584 2338 3584 
Q 2397 3584 2469 3576 
Q 2541 3569 2628 3553 
L 2631 2963 
z
" transform="scale(0.015625)"/>
     </defs>
     <use xlink:href="#DejaVuSans-c9"/>
     <use xlink:href="#DejaVuSans-76" x="63.183594"/>
     <use xlink:href="#DejaVuSans-6f" x="122.363281"/>
     <use xlink:href="#DejaVuSans-6c" x="183.544922"/>
     <use xlink:href="#DejaVuSans-75" x="211.328125"/>
     <use xlink:href="#DejaVuSans-74" x="274.707031"/>
     <use xlink:href="#DejaVuSans-69" x="313.916016"/>
     <use xlink:href="#DejaVuSans-6f" x="341.699219"/>
     <use xlink:href="#DejaVuSans-6e" x="402.880859"/>
     <use xlink:href="#DejaVuSans-20" x="466.259766"/>
     <use xlink:href="#DejaVuSans-64" x="498.046875"/>
     <use xlink:href="#DejaVuSans-75" x="561.523438"/>
     <use xlink:href="#DejaVuSans-20" x="624.902344"/>
     <use xlink:href="#DejaVuSans-52" x="656.689453"/>
     <use xlink:href="#DejaVuSans-65" x="721.671875"/>
     <use xlink:href="#DejaVuSans-63" x="783.195312"/>
     <use xlink:href="#DejaVuSans-61" x="838.175781"/>
     <use xlink:href="#DejaVuSans-6c" x="899.455078"/>
     <use xlink:href="#DejaVuSans-6c" x="927.238281"/>
     <use xlink:href="#DejaVuSans-20" x="955.021484"/>
     <use xlink:href="#DejaVuSans-73" x="986.808594"/>
     <use xlink:href="#DejaVuSans-75" x="1038.908203"/>
     <use xlink:href="#DejaVuSans-72" x="1102.287109"/>
     <use xlink:href="#DejaVuSans-20" x="1143.400391"/>
     <use xlink:href="#DejaVuSans-6c" x="1175.1875"/>
     <use xlink:href="#DejaVuSans-65" x="1202.970703"/>
     <use xlink:href="#DejaVuSans-20" x="1264.494141"/>
     <use xlink:href="#DejaVuSans-76" x="1296.28125"/>
     <use xlink:href="#DejaVuSans-61" x="1355.460938"/>
     <use xlink:href="#DejaVuSans-6c" x="1416.740234"/>
     <use xlink:href="#DejaVuSans-69" x="1444.523438"/>
     <use xlink:href="#DejaVuSans-64" x="1472.306641"/>
     <use xlink:href="#DejaVuSans-61" x="1535.783203"/>
     <use xlink:href="#DejaVuSans-74" x="1597.0625"/>
     <use xlink:href="#DejaVuSans-69" x="1636.271484"/>
     <use xlink:href="#DejaVuSans-6f" x="1664.054688"/>
     <use xlink:href="#DejaVuSans-6e" x="1725.236328"/>
     <use xlink:href="#DejaVuSans-20" x="1788.615234"/>
     <use xlink:href="#DejaVuSans-73" x="1820.402344"/>
     <use xlink:href="#DejaVuSans-65" x="1872.501953"/>
     <use xlink:href="#DejaVuSans-74" x="1934.025391"/>
    </g>
   </g>
   <g id="legend_1">
    <g id="line2d_33">
     <path d="M 331.922812 322.517031 
L 344.522812 322.517031 
L 357.122812 322.517031 
" style="fill: none; stroke: #f5b54e; stroke-opacity: 0.8; stroke-width: 1.2; stroke-linecap: square"/>
    </g>
    <g id="text_18">
     <!-- Light-Medium -->
     <g transform="translate(364.322812 325.667031) scale(0.09 -0.09)">
      <defs>
       <path id="DejaVuSans-4c" d="M 628 4666 
L 1259 4666 
L 1259 531 
L 3531 531 
L 3531 0 
L 628 0 
L 628 4666 
z
" transform="scale(0.015625)"/>
       <path id="DejaVuSans-67" d="M 2906 1791 
Q 2906 2416 2648 2759 
Q 2391 3103 1925 3103 
Q 1463 3103 1205 2759 
Q 947 2416 947 1791 
Q 947 1169 1205 825 
Q 1463 481 1925 481 
Q 2391 481 2648 825 
Q 2906 1169 2906 1791 
z
M 3481 434 
Q 3481 -459 3084 -895 
Q 2688 -1331 1869 -1331 
Q 1566 -1331 1297 -1286 
Q 1028 -1241 775 -1147 
L 775 -588 
Q 1028 -725 1275 -790 
Q 1522 -856 1778 -856 
Q 2344 -856 2625 -561 
Q 2906 -266 2906 331 
L 2906 616 
Q 2728 306 2450 153 
Q 2172 0 1784 0 
Q 1141 0 747 490 
Q 353 981 353 1791 
Q 353 2603 747 3093 
Q 1141 3584 1784 3584 
Q 2172 3584 2450 3431 
Q 2728 3278 2906 2969 
L 2906 3500 
L 3481 3500 
L 3481 434 
z
" transform="scale(0.015625)"/>
       <path id="DejaVuSans-2d" d="M 313 2009 
L 1997 2009 
L 1997 1497 
L 313 1497 
L 313 2009 
z
" transform="scale(0.015625)"/>
       <path id="DejaVuSans-4d" d="M 628 4666 
L 1569 4666 
L 2759 1491 
L 3956 4666 
L 4897 4666 
L 4897 0 
L 4281 0 
L 4281 4097 
L 3078 897 
L 2444 897 
L 1241 4097 
L 1241 0 
L 628 0 
L 628 4666 
z
" transform="scale(0.015625)"/>
       <path id="DejaVuSans-6d" d="M 3328 2828 
Q 3544 3216 3844 3400 
Q 4144 3584 4550 3584 
Q 5097 3584 5394 3201 
Q 5691 2819 5691 2113 
L 5691 0 
L 5113 0 
L 5113 2094 
Q 5113 2597 4934 2840 
Q 4756 3084 4391 3084 
Q 3944 3084 3684 2787 
Q 3425 2491 3425 1978 
L 3425 0 
L 2847 0 
L 2847 2094 
Q 2847 2600 2669 2842 
Q 2491 3084 2119 3084 
Q 1678 3084 1418 2786 
Q 1159 2488 1159 1978 
L 1159 0 
L 581 0 
L 581 3500 
L 1159 3500 
L 1159 2956 
Q 1356 3278 1631 3431 
Q 1906 3584 2284 3584 
Q 2666 3584 2933 3390 
Q 3200 3197 3328 2828 
z
" transform="scale(0.015625)"/>
      </defs>
      <use xlink:href="#DejaVuSans-4c"/>
      <use xlink:href="#DejaVuSans-69" x="55.712891"/>
      <use xlink:href="#DejaVuSans-67" x="83.496094"/>
      <use xlink:href="#DejaVuSans-68" x="146.972656"/>
      <use xlink:href="#DejaVuSans-74" x="210.351562"/>
      <use xlink:href="#DejaVuSans-2d" x="249.560547"/>
      <use xlink:href="#DejaVuSans-4d" x="285.644531"/>
      <use xlink:href="#DejaVuSans-65" x="371.923828"/>
      <use xlink:href="#DejaVuSans-64" x="433.447266"/>
      <use xlink:href="#DejaVuSans-69" x="496.923828"/>
      <use xlink:href="#DejaVuSans-75" x="524.707031"/>
      <use xlink:href="#DejaVuSans-6d" x="588.085938"/>
     </g>
    </g>
    <g id="line2d_34">
     <path d="M 331.922812 335.727344 
L 344.522812 335.727344 
L 357.122812 335.727344 
" style="fill: none; stroke: #f8c471; stroke-opacity: 0.8; stroke-width: 1.2; stroke-linecap: square"/>
    </g>
    <g id="text_19">
     <!-- Light-Small -->
     <g transform="translate(364.322812 338.877344) scale(0.09 -0.09)">
      <defs>
       <path id="DejaVuSans-53" d="M 3425 4513 
L 3425 3897 
Q 3066 4069 2747 4153 
Q 2428 4238 2131 4238 
Q 1616 4238 1336 4038 
Q 1056 3838 1056 3469 
Q 1056 3159 1242 3001 
Q 1428 2844 1947 2747 
L 2328 2669 
Q 3034 2534 3370 2195 
Q 3706 1856 3706 1288 
Q 3706 609 3251 259 
Q 2797 -91 1919 -91 
Q 1588 -91 1214 -16 
Q 841 59 441 206 
L 441 856 
Q 825 641 1194 531 
Q 1563 422 1919 422 
Q 2459 422 2753 634 
Q 3047 847 3047 1241 
Q 3047 1584 2836 1778 
Q 2625 1972 2144 2069 
L 1759 2144 
Q 1053 2284 737 2584 
Q 422 2884 422 3419 
Q 422 4038 858 4394 
Q 1294 4750 2059 4750 
Q 2388 4750 2728 4690 
Q 3069 4631 3425 4513 
z
" transform="scale(0.015625)"/>
      </defs>
      <use xlink:href="#DejaVuSans-4c"/>
      <use xlink:href="#DejaVuSans-69" x="55.712891"/>
      <use xlink:href="#DejaVuSans-67" x="83.496094"/>
      <use xlink:href="#DejaVuSans-68" x="146.972656"/>
      <use xlink:href="#DejaVuSans-74" x="210.351562"/>
      <use xlink:href="#DejaVuSans-2d" x="249.560547"/>
      <use xlink:href="#DejaVuSans-53" x="285.644531"/>
      <use xlink:href="#DejaVuSans-6d" x="349.121094"/>
      <use xlink:href="#DejaVuSans-61" x="446.533203"/>
      <use xlink:href="#DejaVuSans-6c" x="507.8125"/>
      <use xlink:href="#DejaVuSans-6c" x="535.595703"/>
     </g>
    </g>
    <g id="line2d_35">
     <path d="M 331.922812 348.937656 
L 344.522812 348.937656 
L 357.122812 348.937656 
" style="fill: none; stroke: #ff8800; stroke-opacity: 0.8; stroke-width: 1.2; stroke-linecap: square"/>
    </g>
    <g id="text_20">
     <!-- Light-Strong -->
     <g transform="translate(364.322812 352.087656) scale(0.09 -0.09)">
      <use xlink:href="#DejaVuSans-4c"/>
      <use xlink:href="#DejaVuSans-69" x="55.712891"/>
      <use xlink:href="#DejaVuSans-67" x="83.496094"/>
      <use xlink:href="#DejaVuSans-68" x="146.972656"/>
      <use xlink:href="#DejaVuSans-74" x="210.351562"/>
      <use xlink:href="#DejaVuSans-2d" x="249.560547"/>
      <use xlink:href="#DejaVuSans-53" x="285.644531"/>
      <use xlink:href="#DejaVuSans-74" x="349.121094"/>
      <use xlink:href="#DejaVuSans-72" x="388.330078"/>
      <use xlink:href="#DejaVuSans-6f" x="427.193359"/>
      <use xlink:href="#DejaVuSans-6e" x="488.375"/>
      <use xlink:href="#DejaVuSans-67" x="551.753906"/>
     </g>
    </g>
    <g id="line2d_36">
     <path d="M 331.922812 362.147969 
L 344.522812 362.147969 
L 357.122812 362.147969 
" style="fill: none; stroke: #2874a6; stroke-opacity: 0.8; stroke-width: 1.2; stroke-linecap: square"/>
    </g>
    <g id="text_21">
     <!-- Geometric-Medium -->
     <g transform="translate(364.322812 365.297969) scale(0.09 -0.09)">
      <defs>
       <path id="DejaVuSans-47" d="M 3809 666 
L 3809 1919 
L 2778 1919 
L 2778 2438 
L 4434 2438 
L 4434 434 
Q 4069 175 3628 42 
Q 3188 -91 2688 -91 
Q 1594 -91 976 548 
Q 359 1188 359 2328 
Q 359 3472 976 4111 
Q 1594 4750 2688 4750 
Q 3144 4750 3555 4637 
Q 3966 4525 4313 4306 
L 4313 3634 
Q 3963 3931 3569 4081 
Q 3175 4231 2741 4231 
Q 1884 4231 1454 3753 
Q 1025 3275 1025 2328 
Q 1025 1384 1454 906 
Q 1884 428 2741 428 
Q 3075 428 3337 486 
Q 3600 544 3809 666 
z
" transform="scale(0.015625)"/>
      </defs>
      <use xlink:href="#DejaVuSans-47"/>
      <use xlink:href="#DejaVuSans-65" x="77.490234"/>
      <use xlink:href="#DejaVuSans-6f" x="139.013672"/>
      <use xlink:href="#DejaVuSans-6d" x="200.195312"/>
      <use xlink:href="#DejaVuSans-65" x="297.607422"/>
      <use xlink:href="#DejaVuSans-74" x="359.130859"/>
      <use xlink:href="#DejaVuSans-72" x="398.339844"/>
      <use xlink:href="#DejaVuSans-69" x="439.453125"/>
      <use xlink:href="#DejaVuSans-63" x="467.236328"/>
      <use xlink:href="#DejaVuSans-2d" x="522.216797"/>
      <use xlink:href="#DejaVuSans-4d" x="558.300781"/>
      <use xlink:href="#DejaVuSans-65" x="644.580078"/>
      <use xlink:href="#DejaVuSans-64" x="706.103516"/>
      <use xlink:href="#DejaVuSans-69" x="769.580078"/>
      <use xlink:href="#DejaVuSans-75" x="797.363281"/>
      <use xlink:href="#DejaVuSans-6d" x="860.742188"/>
     </g>
    </g>
    <g id="line2d_37">
     <path d="M 331.922812 375.358281 
L 344.522812 375.358281 
L 357.122812 375.358281 
" style="fill: none; stroke: #3498db; stroke-opacity: 0.8; stroke-width: 1.2; stroke-linecap: square"/>
    </g>
    <g id="text_22">
     <!-- Geometric-Small -->
     <g transform="translate(364.322812 378.508281) scale(0.09 -0.09)">
      <use xlink:href="#DejaVuSans-47"/>
      <use xlink:href="#DejaVuSans-65" x="77.490234"/>
      <use xlink:href="#DejaVuSans-6f" x="139.013672"/>
      <use xlink:href="#DejaVuSans-6d" x="200.195312"/>
      <use xlink:href="#DejaVuSans-65" x="297.607422"/>
      <use xlink:href="#DejaVuSans-74" x="359.130859"/>
      <use xlink:href="#DejaVuSans-72" x="398.339844"/>
      <use xlink:href="#DejaVuSans-69" x="439.453125"/>
      <use xlink:href="#DejaVuSans-63" x="467.236328"/>
      <use xlink:href="#DejaVuSans-2d" x="522.216797"/>
      <use xlink:href="#DejaVuSans-53" x="558.300781"/>
      <use xlink:href="#DejaVuSans-6d" x="621.777344"/>
      <use xlink:href="#DejaVuSans-61" x="719.189453"/>
      <use xlink:href="#DejaVuSans-6c" x="780.46875"/>
      <use xlink:href="#DejaVuSans-6c" x="808.251953"/>
     </g>
    </g>
    <g id="line2d_38">
     <path d="M 468.556875 322.517031 
L 481.156875 322.517031 
L 493.756875 322.517031 
" style="fill: none; stroke: #1b4f72; stroke-opacity: 0.8; stroke-width: 1.2; stroke-linecap: square"/>
    </g>
    <g id="text_23">
     <!-- Geometric-Strong -->
     <g transform="translate(500.956875 325.667031) scale(0.09 -0.09)">
      <use xlink:href="#DejaVuSans-47"/>
      <use xlink:href="#DejaVuSans-65" x="77.490234"/>
      <use xlink:href="#DejaVuSans-6f" x="139.013672"/>
      <use xlink:href="#DejaVuSans-6d" x="200.195312"/>
      <use xlink:href="#DejaVuSans-65" x="297.607422"/>
      <use xlink:href="#DejaVuSans-74" x="359.130859"/>
      <use xlink:href="#DejaVuSans-72" x="398.339844"/>
      <use xlink:href="#DejaVuSans-69" x="439.453125"/>
      <use xlink:href="#DejaVuSans-63" x="467.236328"/>
      <use xlink:href="#DejaVuSans-2d" x="522.216797"/>
      <use xlink:href="#DejaVuSans-53" x="558.300781"/>
      <use xlink:href="#DejaVuSans-74" x="621.777344"/>
      <use xlink:href="#DejaVuSans-72" x="660.986328"/>
      <use xlink:href="#DejaVuSans-6f" x="699.849609"/>
      <use xlink:href="#DejaVuSans-6e" x="761.03125"/>
      <use xlink:href="#DejaVuSans-67" x="824.410156"/>
     </g>
    </g>
    <g id="line2d_39">
     <path d="M 468.556875 335.727344 
L 481.156875 335.727344 
L 493.756875 335.727344 
" style="fill: none; stroke: #27ae60; stroke-opacity: 0.8; stroke-width: 1.2; stroke-linecap: square"/>
    </g>
    <g id="text_24">
     <!-- Structural-Medium -->
     <g transform="translate(500.956875 338.877344) scale(0.09 -0.09)">
      <use xlink:href="#DejaVuSans-53"/>
      <use xlink:href="#DejaVuSans-74" x="63.476562"/>
      <use xlink:href="#DejaVuSans-72" x="102.685547"/>
      <use xlink:href="#DejaVuSans-75" x="143.798828"/>
      <use xlink:href="#DejaVuSans-63" x="207.177734"/>
      <use xlink:href="#DejaVuSans-74" x="262.158203"/>
      <use xlink:href="#DejaVuSans-75" x="301.367188"/>
      <use xlink:href="#DejaVuSans-72" x="364.746094"/>
      <use xlink:href="#DejaVuSans-61" x="405.859375"/>
      <use xlink:href="#DejaVuSans-6c" x="467.138672"/>
      <use xlink:href="#DejaVuSans-2d" x="494.921875"/>
      <use xlink:href="#DejaVuSans-4d" x="531.005859"/>
      <use xlink:href="#DejaVuSans-65" x="617.285156"/>
      <use xlink:href="#DejaVuSans-64" x="678.808594"/>
      <use xlink:href="#DejaVuSans-69" x="742.285156"/>
      <use xlink:href="#DejaVuSans-75" x="770.068359"/>
      <use xlink:href="#DejaVuSans-6d" x="833.447266"/>
     </g>
    </g>
    <g id="line2d_40">
     <path d="M 468.556875 348.937656 
L 481.156875 348.937656 
L 493.756875 348.937656 
" style="fill: none; stroke: #2ecc71; stroke-opacity: 0.8; stroke-width: 1.2; stroke-linecap: square"/>
    </g>
    <g id="text_25">
     <!-- Structural-Small -->
     <g transform="translate(500.956875 352.087656) scale(0.09 -0.09)">
      <use xlink:href="#DejaVuSans-53"/>
      <use xlink:href="#DejaVuSans-74" x="63.476562"/>
      <use xlink:href="#DejaVuSans-72" x="102.685547"/>
      <use xlink:href="#DejaVuSans-75" x="143.798828"/>
      <use xlink:href="#DejaVuSans-63" x="207.177734"/>
      <use xlink:href="#DejaVuSans-74" x="262.158203"/>
      <use xlink:href="#DejaVuSans-75" x="301.367188"/>
      <use xlink:href="#DejaVuSans-72" x="364.746094"/>
      <use xlink:href="#DejaVuSans-61" x="405.859375"/>
      <use xlink:href="#DejaVuSans-6c" x="467.138672"/>
      <use xlink:href="#DejaVuSans-2d" x="494.921875"/>
      <use xlink:href="#DejaVuSans-53" x="531.005859"/>
      <use xlink:href="#DejaVuSans-6d" x="594.482422"/>
      <use xlink:href="#DejaVuSans-61" x="691.894531"/>
      <use xlink:href="#DejaVuSans-6c" x="753.173828"/>
      <use xlink:href="#DejaVuSans-6c" x="780.957031"/>
     </g>
    </g>
    <g id="line2d_41">
     <path d="M 468.556875 362.147969 
L 481.156875 362.147969 
L 493.756875 362.147969 
" style="fill: none; stroke: #145a32; stroke-opacity: 0.8; stroke-width: 1.2; stroke-linecap: square"/>
    </g>
    <g id="text_26">
     <!-- Structural-Strong -->
     <g transform="translate(500.956875 365.297969) scale(0.09 -0.09)">
      <use xlink:href="#DejaVuSans-53"/>
      <use xlink:href="#DejaVuSans-74" x="63.476562"/>
      <use xlink:href="#DejaVuSans-72" x="102.685547"/>
      <use xlink:href="#DejaVuSans-75" x="143.798828"/>
      <use xlink:href="#DejaVuSans-63" x="207.177734"/>
      <use xlink:href="#DejaVuSans-74" x="262.158203"/>
      <use xlink:href="#DejaVuSans-75" x="301.367188"/>
      <use xlink:href="#DejaVuSans-72" x="364.746094"/>
      <use xlink:href="#DejaVuSans-61" x="405.859375"/>
      <use xlink:href="#DejaVuSans-6c" x="467.138672"/>
      <use xlink:href="#DejaVuSans-2d" x="494.921875"/>
      <use xlink:href="#DejaVuSans-53" x="531.005859"/>
      <use xlink:href="#DejaVuSans-74" x="594.482422"/>
      <use xlink:href="#DejaVuSans-72" x="633.691406"/>
      <use xlink:href="#DejaVuSans-6f" x="672.554688"/>
      <use xlink:href="#DejaVuSans-6e" x="733.736328"/>
      <use xlink:href="#DejaVuSans-67" x="797.115234"/>
     </g>
    </g>
    <g id="line2d_42">
     <path d="M 602.732812 322.517031 
L 615.332812 322.517031 
L 627.932812 322.517031 
" style="fill: none; stroke: #888888; stroke-opacity: 0.8; stroke-width: 1.2; stroke-linecap: square"/>
    </g>
    <g id="text_27">
     <!-- Baseline-None -->
     <g transform="translate(635.132812 325.667031) scale(0.09 -0.09)">
      <defs>
       <path id="DejaVuSans-42" d="M 1259 2228 
L 1259 519 
L 2272 519 
Q 2781 519 3026 730 
Q 3272 941 3272 1375 
Q 3272 1813 3026 2020 
Q 2781 2228 2272 2228 
L 1259 2228 
z
M 1259 4147 
L 1259 2741 
L 2194 2741 
Q 2656 2741 2882 2914 
Q 3109 3088 3109 3444 
Q 3109 3797 2882 3972 
Q 2656 4147 2194 4147 
L 1259 4147 
z
M 628 4666 
L 2241 4666 
Q 2963 4666 3353 4366 
Q 3744 4066 3744 3513 
Q 3744 3084 3544 2831 
Q 3344 2578 2956 2516 
Q 3422 2416 3680 2098 
Q 3938 1781 3938 1306 
Q 3938 681 3513 340 
Q 3088 0 2303 0 
L 628 0 
L 628 4666 
z
" transform="scale(0.015625)"/>
       <path id="DejaVuSans-4e" d="M 628 4666 
L 1478 4666 
L 3547 763 
L 3547 4666 
L 4159 4666 
L 4159 0 
L 3309 0 
L 1241 3903 
L 1241 0 
L 628 0 
L 628 4666 
z
" transform="scale(0.015625)"/>
      </defs>
      <use xlink:href="#DejaVuSans-42"/>
      <use xlink:href="#DejaVuSans-61" x="68.603516"/>
      <use xlink:href="#DejaVuSans-73" x="129.882812"/>
      <use xlink:href="#DejaVuSans-65" x="181.982422"/>
      <use xlink:href="#DejaVuSans-6c" x="243.505859"/>
      <use xlink:href="#DejaVuSans-69" x="271.289062"/>
      <use xlink:href="#DejaVuSans-6e" x="299.072266"/>
      <use xlink:href="#DejaVuSans-65" x="362.451172"/>
      <use xlink:href="#DejaVuSans-2d" x="423.974609"/>
      <use xlink:href="#DejaVuSans-4e" x="460.058594"/>
      <use xlink:href="#DejaVuSans-6f" x="534.863281"/>
      <use xlink:href="#DejaVuSans-6e" x="596.044922"/>
      <use xlink:href="#DejaVuSans-65" x="659.423828"/>
     </g>
    </g>
    <g id="line2d_43">
     <path d="M 602.732812 335.727344 
L 615.332812 335.727344 
L 627.932812 335.727344 
" style="fill: none; stroke: #888888; stroke-opacity: 0.8; stroke-width: 1.2; stroke-linecap: square"/>
    </g>
    <g id="text_28">
     <!-- Mix-Medium -->
     <g transform="translate(635.132812 338.877344) scale(0.09 -0.09)">
      <defs>
       <path id="DejaVuSans-78" d="M 3513 3500 
L 2247 1797 
L 3578 0 
L 2900 0 
L 1881 1375 
L 863 0 
L 184 0 
L 1544 1831 
L 300 3500 
L 978 3500 
L 1906 2253 
L 2834 3500 
L 3513 3500 
z
" transform="scale(0.015625)"/>
      </defs>
      <use xlink:href="#DejaVuSans-4d"/>
      <use xlink:href="#DejaVuSans-69" x="86.279297"/>
      <use xlink:href="#DejaVuSans-78" x="114.0625"/>
      <use xlink:href="#DejaVuSans-2d" x="173.242188"/>
      <use xlink:href="#DejaVuSans-4d" x="209.326172"/>
      <use xlink:href="#DejaVuSans-65" x="295.605469"/>
      <use xlink:href="#DejaVuSans-64" x="357.128906"/>
      <use xlink:href="#DejaVuSans-69" x="420.605469"/>
      <use xlink:href="#DejaVuSans-75" x="448.388672"/>
      <use xlink:href="#DejaVuSans-6d" x="511.767578"/>
     </g>
    </g>
    <g id="line2d_44">
     <path d="M 602.732812 348.937656 
L 615.332812 348.937656 
L 627.932812 348.937656 
" style="fill: none; stroke: #888888; stroke-opacity: 0.8; stroke-width: 1.2; stroke-linecap: square"/>
    </g>
    <g id="text_29">
     <!-- Mix-Small -->
     <g transform="translate(635.132812 352.087656) scale(0.09 -0.09)">
      <use xlink:href="#DejaVuSans-4d"/>
      <use xlink:href="#DejaVuSans-69" x="86.279297"/>
      <use xlink:href="#DejaVuSans-78" x="114.0625"/>
      <use xlink:href="#DejaVuSans-2d" x="173.242188"/>
      <use xlink:href="#DejaVuSans-53" x="209.326172"/>
      <use xlink:href="#DejaVuSans-6d" x="272.802734"/>
      <use xlink:href="#DejaVuSans-61" x="370.214844"/>
      <use xlink:href="#DejaVuSans-6c" x="431.494141"/>
      <use xlink:href="#DejaVuSans-6c" x="459.277344"/>
     </g>
    </g>
    <g id="line2d_45">
     <path d="M 602.732812 362.147969 
L 615.332812 362.147969 
L 627.932812 362.147969 
" style="fill: none; stroke: #888888; stroke-opacity: 0.8; stroke-width: 1.2; stroke-linecap: square"/>
    </g>
    <g id="text_30">
     <!-- Mix-Strong -->
     <g transform="translate(635.132812 365.297969) scale(0.09 -0.09)">
      <use xlink:href="#DejaVuSans-4d"/>
      <use xlink:href="#DejaVuSans-69" x="86.279297"/>
      <use xlink:href="#DejaVuSans-78" x="114.0625"/>
      <use xlink:href="#DejaVuSans-2d" x="173.242188"/>
      <use xlink:href="#DejaVuSans-53" x="209.326172"/>
      <use xlink:href="#DejaVuSans-74" x="272.802734"/>
      <use xlink:href="#DejaVuSans-72" x="312.011719"/>
      <use xlink:href="#DejaVuSans-6f" x="350.875"/>
      <use xlink:href="#DejaVuSans-6e" x="412.056641"/>
      <use xlink:href="#DejaVuSans-67" x="475.435547"/>
     </g>
    </g>
   </g>
  </g>
 </g>
 <defs>
  <clipPath id="p1786ea3b1d">
   <rect x="56.18" y="31.48" width="651.94" height="357"/>
  </clipPath>
 </defs>
</svg>
